# Exported from USD: /mycobot_pro450/mygripper_f100/Geometry/f100_base_link/joint1_left_link/J1_L_Link/J1_L_Link
mtllib J1_L_Link.mtl

g J1_L_Link
v 0.06468270 -0.01006586 0.00350000
v 0.06248804 -0.00984550 0.00350000
v 0.06462604 -0.01060260 0.00350000
v 0.06231784 -0.01074835 0.00350000
v 0.06183299 -0.01152874 0.00350000
v 0.06421316 -0.01212289 0.00350000
v 0.06453066 -0.01108637 0.00350000
v 0.06109897 -0.01208129 0.00350000
v 0.06315966 -0.01401169 0.00350000
v 0.06375312 -0.01310450 0.00350000
v 0.05408056 -0.01668876 0.00350000
v 0.05847842 -0.01183443 0.00350000
v 0.05171086 -0.01622087 0.00350000
v 0.05786050 -0.01115452 0.00350000
v 0.04493616 0.00085005 0.00350000
v 0.03989344 0.00232113 0.00350000
v 0.05786451 -0.00852237 0.00350000
v 0.06110580 -0.00760548 0.00350000
v 0.06190572 -0.00555071 0.00350000
v 0.06022251 -0.00735271 0.00350000
v 0.05971817 -0.00459358 0.00350000
v 0.05930755 -0.00743608 0.00350000
v 0.06468803 -0.00984886 0.00350000
v 0.06464664 -0.00921917 0.00350000
v 0.06232060 -0.00894214 0.00350000
v 0.06021491 -0.01233137 0.00350000
v 0.06162207 -0.01553262 0.00350000
v 0.06244458 -0.01482646 0.00350000
v 0.05603459 -0.01698487 0.00350000
v 0.05652529 -0.01703326 0.00350000
v 0.05930022 -0.01224520 0.00350000
v 0.05752992 -0.01029731 0.00350000
v 0.04553002 -0.01387387 0.00350000
v 0.04607787 -0.01435596 0.00350000
v 0.06445912 -0.00839272 0.00350000
v 0.06412623 -0.00761338 0.00350000
v 0.06183813 -0.00816027 0.00350000
v 0.05760934 -0.01702863 0.00350000
v 0.05868198 -0.01687166 0.00350000
v 0.05998617 -0.01234169 0.00350000
v 0.05972190 -0.01656548 0.00350000
v 0.06070847 -0.01611616 0.00350000
v 0.04679625 -0.01480030 0.00350000
v 0.04747224 -0.01507520 0.00350000
v 0.04936691 -0.01563747 0.00350000
v 0.03946140 -0.00905115 0.00350000
v 0.04131836 -0.01026826 0.00350000
v 0.05753131 -0.00937856 0.00350000
v 0.04308154 -0.01161766 0.00350000
v 0.04474152 -0.01309215 0.00350000
v 0.05848450 -0.00784435 0.00350000
v 0.05485442 -0.00260937 0.00350000
v 0.04992513 -0.00079410 0.00350000
v 0.06365882 -0.00690648 0.00350000
v 0.06307206 -0.00629501 0.00350000
v 0.06238503 -0.00579886 0.00350000
v 0.00875636 0.00001243 0.00350000
v 0.02913100 -0.00515060 0.00350000
v 0.03130020 -0.00562413 0.00350000
v 0.03342905 -0.00625472 0.00350000
v 0.03550620 -0.00703901 0.00350000
v 0.03752057 -0.00797281 0.00350000
v 0.00856772 0.00151133 0.00350000
v 0.02450312 0.00567952 0.00350000
v 0.00828394 0.00265825 0.00350000
v 0.01930598 0.00644293 0.00350000
v 0.00784738 0.00375615 0.00350000
v 0.01408560 0.00702660 0.00350000
v 0.00726608 0.00478477 0.00350000
v 0.00867505 0.00065846 0.00350000
v 0.03480298 0.00361740 0.00350000
v 0.02967084 0.00473731 0.00350000
v 0.01114796 -0.00400207 0.00350000
v 0.01157235 -0.00431214 0.00350000
v 0.01785851 -0.00426725 0.00350000
v 0.01985466 -0.00431711 0.00350000
v 0.02184669 -0.00443657 0.00350000
v 0.00655078 0.00572515 0.00350000
v 0.00884819 0.00742987 0.00350000
v 0.00595383 0.00634365 0.00350000
v 0.00646360 0.00755339 0.00350000
v 0.00583851 0.00648429 0.00350000
v 0.02582690 -0.00474008 0.00350000
v 0.02693302 -0.00483665 0.00350000
v 0.00898991 -0.00091311 0.00350000
v 0.00935479 -0.00179516 0.00350000
v 0.00603833 0.00743228 0.00350000
v 0.00585117 0.00724344 0.00350000
v 0.00574792 0.00699844 0.00350000
v 0.00984332 -0.00261521 0.00350000
v 0.01044527 -0.00335603 0.00350000
v 0.00628241 0.00753770 0.00350000
v 0.00574349 0.00673260 0.00350000
v 0.00574843 0.00758313 0.00205000
v 0.00551135 0.00724238 0.00205000
v 0.00560187 0.00741032 0.00320000
v 0.00576887 0.00760179 0.00320000
v 0.00586924 0.00768009 0.00320000
v 0.00593256 0.00771965 0.00201332
v 0.00621793 0.00783069 0.00320000
v 0.00606550 0.00778412 0.00196067
v 0.00647677 0.00785310 0.00175000
v 0.00638552 0.00785291 0.00179981
v 0.00647677 0.00785310 0.00320000
v 0.00628606 0.00784308 0.00185306
v 0.00614279 0.00781099 0.00192504
v 0.00555188 0.00638092 0.00205000
v 0.00574852 0.00612491 0.00205000
v 0.00574852 0.00612491 0.00320000
v 0.00558378 0.00632581 0.00320000
v 0.00544804 0.00668055 0.00320000
v 0.00543398 0.00680706 0.00205000
v 0.00543398 0.00680706 0.00320000
v 0.00545437 0.00706031 0.00320000
v 0.00551135 0.00724238 0.00320000
v -0.00499999 0.00000763 0.00175000
v -0.00499207 0.00520377 0.00175000
v -0.00499999 0.00000763 -0.00175000
v -0.00499207 0.00520377 -0.00175000
v 0.01149811 -0.00456242 0.00336624
v 0.01150913 -0.00452447 0.00341241
v 0.01101609 -0.00416823 0.00341213
v 0.01148481 -0.00460764 0.00325538
v 0.01148889 -0.00459416 0.00330399
v 0.01097299 -0.00422253 0.00330384
v 0.01148315 -0.00461280 0.00320000
v 0.01096146 -0.00423705 0.00320000
v 0.01026970 -0.00360683 0.00320000
v 0.01024026 -0.00354889 0.00330384
v 0.01022675 -0.00356159 0.00320000
v 0.00961260 -0.00277640 0.00330384
v 0.00872271 -0.00100156 0.00330384
v 0.00908661 -0.00192962 0.00320000
v 0.00910318 -0.00192131 0.00330384
v 0.00931677 -0.00235129 0.00320000
v 0.00959740 -0.00278702 0.00320000
v 0.00846092 -0.00003971 0.00320000
v 0.00867429 -0.00091196 0.00320000
v 0.00870511 -0.00100739 0.00320000
v 0.00847918 -0.00003648 0.00330384
v 0.00839440 0.00063716 0.00330384
v 0.00837591 0.00063575 0.00320000
v 0.00857151 0.00065060 0.00348146
v 0.00865410 -0.00000562 0.00348146
v 0.00889134 -0.00094574 0.00348146
v 0.00926196 -0.00184170 0.00348146
v 0.00975820 -0.00267468 0.00348146
v 0.01036963 -0.00342718 0.00348146
v 0.01108341 -0.00408340 0.00348146
v 0.01152747 -0.00446274 0.00345965
v 0.01029075 -0.00350138 0.00341213
v 0.00966943 -0.00273670 0.00341213
v 0.00916515 -0.00189024 0.00341213
v 0.00878853 -0.00097978 0.00341213
v 0.00854745 -0.00002444 0.00341213
v 0.00846352 0.00064240 0.00341213
v 0.00829055 0.00146243 0.00330384
v 0.00827228 0.00145921 0.00320000
v 0.00811532 0.00216832 0.00320000
v 0.00801595 0.00257225 0.00330384
v 0.00799829 0.00256659 0.00320000
v 0.00759350 0.00363463 0.00330384
v 0.00757678 0.00362663 0.00320000
v 0.00703102 0.00462998 0.00330384
v 0.00701553 0.00461978 0.00320000
v 0.00677874 0.00496072 0.00320000
v 0.00633885 0.00553993 0.00330384
v 0.00632489 0.00552773 0.00320000
v 0.00576121 0.00613843 0.00330384
v 0.00588277 0.00626794 0.00348146
v 0.00647259 0.00565682 0.00348146
v 0.00717936 0.00472766 0.00348146
v 0.00775372 0.00371132 0.00348146
v 0.00818507 0.00262652 0.00348146
v 0.00846547 0.00149329 0.00348146
v 0.00580866 0.00618898 0.00341213
v 0.00639105 0.00558555 0.00341213
v 0.00708891 0.00466810 0.00341213
v 0.00765604 0.00366456 0.00341213
v 0.00808196 0.00259343 0.00341213
v 0.00835882 0.00147447 0.00341213
v 0.00546630 0.00668376 0.00330384
v 0.00559953 0.00633561 0.00330384
v 0.00547252 0.00705649 0.00330384
v 0.00561727 0.00740001 0.00330384
v 0.00587969 0.00766477 0.00330384
v 0.00622191 0.00781258 0.00330384
v 0.00647596 0.00783457 0.00330384
v 0.00646816 0.00765712 0.00348146
v 0.00626009 0.00763911 0.00348146
v 0.00597980 0.00751805 0.00348146
v 0.00576488 0.00730120 0.00348146
v 0.00564632 0.00701985 0.00348146
v 0.00564123 0.00671458 0.00348146
v 0.00575034 0.00642944 0.00348146
v 0.00565839 0.00637223 0.00341213
v 0.00553458 0.00669579 0.00341213
v 0.00554035 0.00704219 0.00341213
v 0.00567488 0.00736145 0.00341213
v 0.00591876 0.00760751 0.00341213
v 0.00623681 0.00774487 0.00341213
v 0.00647291 0.00776531 0.00341213
v 0.01026970 -0.00360683 0.00205000
v 0.01106272 -0.00431589 0.00205000
v 0.01121591 -0.00442957 0.00202716
v 0.01135302 -0.00452589 0.00196213
v 0.01144872 -0.00459022 0.00186481
v 0.01147373 -0.00460665 0.00181078
v 0.01148315 -0.00461280 0.00175000
v 0.00931677 -0.00235129 0.00205000
v 0.00867429 -0.00091196 0.00205000
v 0.00837591 0.00063575 0.00205000
v -0.00484999 0.00000740 0.00200981
v -0.00491213 0.00000749 0.00196213
v -0.00489333 -0.00042936 0.00196213
v 0.00103158 -0.00487347 0.00185384
v 0.00059411 -0.00494590 0.00185384
v 0.00103542 -0.00489162 0.00175000
v 0.00059632 -0.00496431 0.00175000
v -0.00022903 -0.00499475 0.00175000
v -0.00029147 -0.00497292 0.00185384
v -0.00029255 -0.00499143 0.00175000
v -0.00116782 -0.00484264 0.00185384
v -0.00117216 -0.00486066 0.00175000
v -0.00361824 -0.00345085 0.00175000
v -0.00348394 -0.00358638 0.00175000
v -0.00347102 -0.00357308 0.00185384
v -0.00279350 -0.00414685 0.00175000
v -0.00278314 -0.00413147 0.00185384
v -0.00263325 -0.00425041 0.00175000
v -0.00200723 -0.00455916 0.00185384
v -0.00201470 -0.00457613 0.00175000
v -0.00147874 -0.00477633 0.00175000
v -0.00406417 -0.00291248 0.00175000
v -0.00404910 -0.00290167 0.00185384
v -0.00437028 -0.00242913 0.00175000
v -0.00449909 -0.00213848 0.00185384
v -0.00451584 -0.00214644 0.00175000
v -0.00480677 -0.00130763 0.00185384
v -0.00482466 -0.00131250 0.00175000
v -0.00496239 -0.00043542 0.00185384
v -0.00498086 -0.00043704 0.00175000
v -0.00484097 -0.00125102 0.00175000
v -0.00498145 0.00000760 0.00185384
v -0.00495980 0.00000757 0.00190000
v -0.00468201 -0.00041082 0.00205000
v -0.00469999 0.00000717 0.00205000
v -0.00480383 0.00000733 0.00203146
v -0.00478545 -0.00041990 0.00203146
v -0.00463537 -0.00126101 0.00203146
v -0.00453518 -0.00123375 0.00205000
v -0.00433867 -0.00206223 0.00203146
v -0.00424489 -0.00201765 0.00205000
v -0.00390472 -0.00279821 0.00203146
v -0.00382032 -0.00273773 0.00205000
v -0.00334726 -0.00344568 0.00203146
v -0.00327490 -0.00337120 0.00205000
v -0.00268391 -0.00398415 0.00203146
v -0.00262589 -0.00389804 0.00205000
v -0.00193566 -0.00439660 0.00203146
v -0.00189382 -0.00430156 0.00205000
v -0.00112618 -0.00466996 0.00203146
v -0.00110183 -0.00456902 0.00205000
v -0.00028107 -0.00479560 0.00203146
v -0.00027500 -0.00469195 0.00205000
v 0.00057292 -0.00476955 0.00203146
v 0.00056054 -0.00466645 0.00205000
v 0.00099480 -0.00469970 0.00203146
v 0.00097330 -0.00459812 0.00205000
v 0.00101723 -0.00480565 0.00196213
v 0.00058584 -0.00487707 0.00196213
v -0.00028741 -0.00490372 0.00196213
v -0.00115157 -0.00477524 0.00196213
v -0.00197929 -0.00449571 0.00196213
v -0.00274441 -0.00407397 0.00196213
v -0.00342272 -0.00352336 0.00196213
v -0.00399275 -0.00286129 0.00196213
v -0.00443648 -0.00210872 0.00196213
v -0.00473987 -0.00128943 0.00196213
v -0.00497352 0.00520375 0.00185384
v -0.00495188 0.00520371 0.00190000
v -0.00490420 0.00520364 0.00196213
v -0.00484207 0.00520355 0.00200981
v -0.00479590 0.00520347 0.00203146
v -0.00469207 0.00520332 0.00205000
v -0.00487041 0.00588763 0.00175000
v -0.00493610 0.00567058 0.00175000
v -0.00491807 0.00566622 0.00185384
v -0.00435382 0.00664010 0.00185384
v -0.00436656 0.00665357 0.00175000
v -0.00452220 0.00648863 0.00175000
v -0.00398018 0.00691822 0.00185384
v -0.00398943 0.00693430 0.00175000
v -0.00430618 0.00658974 0.00196213
v -0.00394561 0.00685813 0.00196213
v -0.00423175 0.00651107 0.00203146
v -0.00389160 0.00676426 0.00203146
v -0.00455286 0.00610502 0.00203146
v -0.00446301 0.00605297 0.00205000
v -0.00416039 0.00643564 0.00205000
v -0.00474542 0.00562449 0.00203146
v -0.00464449 0.00560010 0.00205000
v -0.00485069 0.00564994 0.00196213
v -0.00464656 0.00615931 0.00196213
v -0.00470655 0.00619407 0.00185384
v -0.00472259 0.00620336 0.00175000
v -0.00383982 0.00667426 0.00205000
v 0.00677874 0.00496072 0.00205000
v 0.00757678 0.00362663 0.00205000
v 0.00811532 0.00216832 0.00205000
v -0.00495980 0.00000757 -0.00190000
v -0.00491213 0.00000749 -0.00196213
v -0.00489333 -0.00042936 -0.00196213
v -0.00484999 0.00000740 -0.00200981
v -0.00480383 0.00000733 -0.00203146
v -0.00478545 -0.00041990 -0.00203146
v 0.00097330 -0.00459812 -0.00205000
v 0.00099480 -0.00469970 -0.00203146
v 0.00057292 -0.00476955 -0.00203146
v 0.00056054 -0.00466645 -0.00205000
v -0.00028107 -0.00479560 -0.00203146
v -0.00027500 -0.00469195 -0.00205000
v -0.00112618 -0.00466996 -0.00203146
v -0.00110183 -0.00456902 -0.00205000
v -0.00193566 -0.00439660 -0.00203146
v -0.00189382 -0.00430156 -0.00205000
v -0.00268391 -0.00398415 -0.00203146
v -0.00262589 -0.00389804 -0.00205000
v -0.00334726 -0.00344568 -0.00203146
v -0.00327490 -0.00337120 -0.00205000
v -0.00390472 -0.00279821 -0.00203146
v -0.00382032 -0.00273773 -0.00205000
v -0.00433867 -0.00206223 -0.00203146
v -0.00424489 -0.00201765 -0.00205000
v -0.00463537 -0.00126101 -0.00203146
v -0.00453518 -0.00123375 -0.00205000
v -0.00468201 -0.00041082 -0.00205000
v -0.00469999 0.00000717 -0.00205000
v -0.00437028 -0.00242913 -0.00175000
v -0.00451584 -0.00214644 -0.00175000
v -0.00449909 -0.00213848 -0.00185384
v -0.00482466 -0.00131250 -0.00175000
v -0.00480677 -0.00130763 -0.00185384
v -0.00484097 -0.00125102 -0.00175000
v -0.00496239 -0.00043542 -0.00185384
v -0.00498086 -0.00043704 -0.00175000
v -0.00498145 0.00000760 -0.00185384
v -0.00406417 -0.00291248 -0.00175000
v -0.00404910 -0.00290167 -0.00185384
v -0.00361824 -0.00345085 -0.00175000
v -0.00347102 -0.00357308 -0.00185384
v -0.00348394 -0.00358638 -0.00175000
v -0.00278314 -0.00413147 -0.00185384
v -0.00279350 -0.00414685 -0.00175000
v -0.00029147 -0.00497292 -0.00185384
v -0.00117216 -0.00486066 -0.00175000
v -0.00116782 -0.00484264 -0.00185384
v -0.00147874 -0.00477633 -0.00175000
v -0.00200723 -0.00455916 -0.00185384
v -0.00201470 -0.00457613 -0.00175000
v -0.00263325 -0.00425041 -0.00175000
v 0.00059632 -0.00496431 -0.00175000
v -0.00022903 -0.00499475 -0.00175000
v -0.00029255 -0.00499143 -0.00175000
v 0.00059411 -0.00494590 -0.00185384
v 0.00103158 -0.00487347 -0.00185384
v 0.00103542 -0.00489162 -0.00175000
v 0.00101723 -0.00480565 -0.00196213
v 0.00058584 -0.00487707 -0.00196213
v -0.00028741 -0.00490372 -0.00196213
v -0.00115157 -0.00477524 -0.00196213
v -0.00197929 -0.00449571 -0.00196213
v -0.00274441 -0.00407397 -0.00196213
v -0.00342272 -0.00352336 -0.00196213
v -0.00399275 -0.00286129 -0.00196213
v -0.00443648 -0.00210872 -0.00196213
v -0.00473987 -0.00128943 -0.00196213
v -0.00497352 0.00520375 -0.00185384
v -0.00495188 0.00520371 -0.00190000
v -0.00490420 0.00520364 -0.00196213
v -0.00484207 0.00520355 -0.00200981
v -0.00479590 0.00520347 -0.00203146
v -0.00469207 0.00520332 -0.00205000
v -0.00485069 0.00564994 -0.00196213
v -0.00491807 0.00566622 -0.00185384
v -0.00474542 0.00562449 -0.00203146
v -0.00464449 0.00560010 -0.00205000
v -0.00455286 0.00610502 -0.00203146
v -0.00446301 0.00605297 -0.00205000
v -0.00423175 0.00651107 -0.00203146
v -0.00416039 0.00643564 -0.00205000
v -0.00389160 0.00676426 -0.00203146
v -0.00383982 0.00667426 -0.00205000
v -0.00398943 0.00693430 -0.00175000
v -0.00398018 0.00691822 -0.00185384
v -0.00436656 0.00665357 -0.00175000
v -0.00435382 0.00664010 -0.00185384
v -0.00452220 0.00648863 -0.00175000
v -0.00472259 0.00620336 -0.00175000
v -0.00470655 0.00619407 -0.00185384
v -0.00487041 0.00588763 -0.00175000
v -0.00493610 0.00567058 -0.00175000
v -0.00464656 0.00615931 -0.00196213
v -0.00430618 0.00658974 -0.00196213
v -0.00394561 0.00685813 -0.00196213
v -0.00255000 0.00000389 0.00205000
v -0.00255000 0.00000389 -0.00205000
v -0.00237640 0.00092479 0.00205000
v -0.00237640 0.00092479 -0.00205000
v -0.00188185 0.00172080 0.00205000
v -0.00188185 0.00172080 -0.00205000
v -0.00113315 0.00228440 0.00205000
v -0.00113315 0.00228440 -0.00205000
v -0.00023141 0.00253948 0.00205000
v -0.00023141 0.00253948 -0.00205000
v 0.00070158 0.00245159 0.00205000
v 0.00070158 0.00245159 -0.00205000
v 0.00153982 0.00203260 0.00205000
v 0.00153982 0.00203260 -0.00205000
v 0.00217010 0.00133909 0.00205000
v 0.00217010 0.00133909 -0.00205000
v 0.00250729 0.00046474 0.00205000
v 0.00250729 0.00046474 -0.00205000
v 0.00250586 -0.00047238 0.00205000
v 0.00250586 -0.00047238 -0.00205000
v 0.00216600 -0.00134571 0.00205000
v 0.00216600 -0.00134571 -0.00205000
v 0.00153361 -0.00203729 0.00205000
v 0.00153361 -0.00203729 -0.00205000
v 0.00069410 -0.00245372 0.00205000
v 0.00069410 -0.00245372 -0.00205000
v -0.00023916 -0.00253876 0.00205000
v -0.00023916 -0.00253876 -0.00205000
v -0.00114011 -0.00228093 0.00205000
v -0.00114011 -0.00228093 -0.00205000
v -0.00188709 -0.00171505 0.00205000
v -0.00188709 -0.00171505 -0.00205000
v -0.00237921 -0.00091754 0.00205000
v -0.00237921 -0.00091754 -0.00205000
v 0.00202652 -0.00471466 0.00185384
v 0.00202852 -0.00473309 0.00175000
v 0.00303252 -0.00467512 0.00175000
v 0.00201905 -0.00464574 0.00196213
v 0.00200738 -0.00453807 0.00203146
v 0.00303108 -0.00447896 0.00203146
v 0.00303031 -0.00437513 0.00205000
v 0.00199619 -0.00443484 0.00205000
v 0.00303239 -0.00465658 0.00185384
v 0.00303188 -0.00458725 0.00196213
v 0.00200738 -0.00453807 -0.00203146
v 0.00199619 -0.00443484 -0.00205000
v 0.00303031 -0.00437513 -0.00205000
v 0.00201905 -0.00464574 -0.00196213
v 0.00202652 -0.00471466 -0.00185384
v 0.00303239 -0.00465658 -0.00185384
v 0.00303252 -0.00467512 -0.00175000
v 0.00202852 -0.00473309 -0.00175000
v 0.00303108 -0.00447896 -0.00203146
v 0.00303188 -0.00458725 -0.00196213
v -0.00306957 0.00717479 -0.00203146
v -0.00302873 0.00707932 -0.00205000
v -0.00200828 0.00754100 -0.00203146
v -0.00198156 0.00744066 -0.00205000
v -0.00090542 0.00775113 -0.00203146
v -0.00089337 0.00764800 -0.00205000
v 0.00001190 0.00780383 -0.00203146
v 0.00001175 0.00769999 -0.00205000
v 0.00001220 0.00799999 -0.00175000
v 0.00001218 0.00798145 -0.00185384
v -0.00092818 0.00794597 -0.00175000
v -0.00092603 0.00792756 -0.00185384
v -0.00137717 0.00788057 -0.00175000
v -0.00205399 0.00771264 -0.00185384
v -0.00205876 0.00773056 -0.00175000
v -0.00272469 0.00752171 -0.00175000
v -0.00313944 0.00733809 -0.00185384
v -0.00314673 0.00735514 -0.00175000
v -0.00311217 0.00727435 -0.00196213
v -0.00203615 0.00764565 -0.00196213
v -0.00091798 0.00785870 -0.00196213
v 0.00001207 0.00791212 -0.00196213
v -0.00313944 0.00733809 0.00185384
v -0.00314673 0.00735514 0.00175000
v -0.00205399 0.00771264 0.00185384
v -0.00205876 0.00773056 0.00175000
v -0.00272469 0.00752171 0.00175000
v -0.00092603 0.00792756 0.00185384
v -0.00092818 0.00794597 0.00175000
v -0.00137717 0.00788057 0.00175000
v 0.00001218 0.00798145 0.00185384
v 0.00001220 0.00799999 0.00175000
v -0.00091798 0.00785870 0.00196213
v 0.00001207 0.00791212 0.00196213
v -0.00090542 0.00775113 0.00203146
v 0.00001190 0.00780383 0.00203146
v -0.00200828 0.00754100 0.00203146
v -0.00198156 0.00744066 0.00205000
v -0.00089337 0.00764800 0.00205000
v -0.00302873 0.00707932 0.00205000
v -0.00311217 0.00727435 0.00196213
v -0.00306957 0.00717479 0.00203146
v -0.00203615 0.00764565 0.00196213
v 0.00001175 0.00769999 0.00205000
v 0.00325781 0.00766043 0.00205000
v 0.00574852 0.00612491 -0.00205000
v 0.00677874 0.00496072 -0.00205000
v 0.00757678 0.00362663 -0.00205000
v 0.00325781 0.00766043 -0.00205000
v 0.00574843 0.00758313 -0.00205000
v 0.00551135 0.00724238 -0.00205000
v 0.00867429 -0.00091196 -0.00205000
v 0.00931677 -0.00235129 -0.00205000
v 0.01026970 -0.00360683 -0.00205000
v 0.01106272 -0.00431589 -0.00205000
v 0.00811532 0.00216832 -0.00205000
v 0.00837591 0.00063575 -0.00205000
v 0.00555188 0.00638092 -0.00205000
v 0.00543398 0.00680706 -0.00205000
v 0.02321870 -0.00484156 0.00320000
v 0.02580627 -0.00503937 0.00320000
v 0.02580755 -0.00502087 0.00330384
v 0.02183882 -0.00454679 0.00347894
v 0.01924207 -0.00459293 0.00320000
v 0.01984104 -0.00461686 0.00320000
v 0.01984200 -0.00459586 0.00331043
v 0.01785805 -0.00456725 0.00320000
v 0.01785809 -0.00454618 0.00331043
v 0.01785819 -0.00447938 0.00341213
v 0.01984503 -0.00452910 0.00341213
v 0.01785834 -0.00437768 0.00347894
v 0.01984965 -0.00442747 0.00347894
v 0.02182681 -0.00471498 0.00331043
v 0.02183157 -0.00464830 0.00341213
v 0.02581976 -0.00484367 0.00348146
v 0.02581231 -0.00495171 0.00341213
v 0.01512762 -0.00458593 0.00320000
v 0.00983287 -0.00462497 0.00175000
v 0.00983287 -0.00462497 -0.00175000
v 0.01148315 -0.00461280 -0.00175000
v 0.01147375 -0.00460667 -0.00181069
v 0.01144872 -0.00459022 -0.00186481
v 0.01135302 -0.00452589 -0.00196213
v 0.01121591 -0.00442957 -0.00202716
v 0.02692210 -0.00493991 0.00348146
v 0.02911257 -0.00525279 0.00348146
v 0.03127436 -0.00572470 0.00348146
v 0.03339594 -0.00635314 0.00348146
v 0.03546600 -0.00713475 0.00348146
v 0.03747348 -0.00806536 0.00348146
v 0.03940770 -0.00914001 0.00348146
v 0.04125831 -0.01035297 0.00348146
v 0.04301546 -0.01169776 0.00348146
v 0.04466977 -0.01316721 0.00348146
v 0.04545558 -0.01394627 0.00348146
v 0.04531495 -0.01408303 0.00320000
v 0.04532824 -0.01407010 0.00330384
v 0.04453423 -0.01330902 0.00320000
v 0.04454704 -0.01329562 0.00330384
v 0.04301152 -0.01194934 0.00320000
v 0.04290243 -0.01183478 0.00330384
v 0.04289063 -0.01184908 0.00320000
v 0.04115558 -0.01049787 0.00330384
v 0.03931582 -0.00929203 0.00330384
v 0.04049836 -0.01006722 0.00320000
v 0.04114486 -0.01051300 0.00320000
v 0.03539723 -0.00729852 0.00330384
v 0.03738454 -0.00824020 0.00320000
v 0.03739295 -0.00822368 0.00330384
v 0.03780281 -0.00845713 0.00320000
v 0.03930622 -0.00930789 0.00320000
v 0.03333931 -0.00652149 0.00330384
v 0.03495421 -0.00713660 0.00320000
v 0.03539005 -0.00731562 0.00320000
v 0.02908105 -0.00542759 0.00330384
v 0.03122555 -0.00591470 0.00320000
v 0.03123017 -0.00589674 0.00330384
v 0.03198353 -0.00611999 0.00320000
v 0.03333340 -0.00653907 0.00320000
v 0.02690148 -0.00513499 0.00320000
v 0.02892312 -0.00541837 0.00320000
v 0.02907776 -0.00544584 0.00320000
v 0.02690343 -0.00511655 0.00330384
v 0.02691071 -0.00504761 0.00341213
v 0.02909335 -0.00535937 0.00341213
v 0.03124742 -0.00582959 0.00341213
v 0.03336141 -0.00645578 0.00341213
v 0.03542407 -0.00723460 0.00341213
v 0.03742438 -0.00816189 0.00341213
v 0.03935167 -0.00923270 0.00341213
v 0.04119568 -0.01044132 0.00341213
v 0.04294655 -0.01178130 0.00341213
v 0.04459494 -0.01324550 0.00341213
v 0.04537794 -0.01402177 0.00341213
v 0.04601553 -0.01443900 0.00348146
v 0.04674978 -0.01489316 0.00348146
v 0.04744071 -0.01517414 0.00348146
v 0.04670132 -0.01499000 0.00341213
v 0.04740783 -0.01527732 0.00341213
v 0.04667030 -0.01505200 0.00330384
v 0.04738677 -0.01534337 0.00330384
v 0.04666200 -0.01506859 0.00320000
v 0.04738115 -0.01536104 0.00320000
v 0.04589777 -0.01459588 0.00320000
v 0.04595052 -0.01452561 0.00341213
v 0.04590890 -0.01458105 0.00330384
v 0.04626925 -0.01484944 0.00320000
v 0.04933938 -0.01573759 0.00348146
v 0.05168825 -0.01632221 0.00348146
v 0.05406294 -0.01679109 0.00348146
v 0.05602109 -0.01708782 0.00348146
v 0.05599559 -0.01728232 0.00320000
v 0.05599801 -0.01726394 0.00330384
v 0.05402967 -0.01698441 0.00320000
v 0.05403281 -0.01696614 0.00330384
v 0.05308774 -0.01681292 0.00320000
v 0.05164959 -0.01649558 0.00330384
v 0.05164555 -0.01651368 0.00320000
v 0.05021288 -0.01617174 0.00320000
v 0.04929227 -0.01590885 0.00330384
v 0.04928735 -0.01592673 0.00320000
v 0.05600702 -0.01719520 0.00341213
v 0.05404457 -0.01689782 0.00341213
v 0.05166468 -0.01642791 0.00341213
v 0.04931065 -0.01584201 0.00341213
v 0.06490379 -0.01064817 0.00330384
v 0.06480491 -0.01114963 0.00330384
v 0.06492208 -0.01065117 0.00320000
v 0.06482299 -0.01115380 0.00320000
v 0.06452933 -0.01213489 0.00320000
v 0.06447580 -0.01222408 0.00330384
v 0.06449310 -0.01223075 0.00320000
v 0.06399893 -0.01324160 0.00330384
v 0.06401512 -0.01325063 0.00320000
v 0.06084288 -0.01636345 0.00330384
v 0.06180097 -0.01577345 0.00320000
v 0.06178991 -0.01575856 0.00330384
v 0.06265555 -0.01503974 0.00320000
v 0.06264251 -0.01502656 0.00330384
v 0.06293947 -0.01474413 0.00320000
v 0.06338376 -0.01418198 0.00330384
v 0.06339853 -0.01419321 0.00320000
v 0.06386024 -0.01351618 0.00320000
v 0.05982022 -0.01682920 0.00330384
v 0.06048672 -0.01656618 0.00320000
v 0.06085173 -0.01637974 0.00320000
v 0.05763037 -0.01730930 0.00330384
v 0.05874623 -0.01716470 0.00320000
v 0.05874225 -0.01714659 0.00330384
v 0.05904519 -0.01709311 0.00320000
v 0.05982670 -0.01684658 0.00320000
v 0.05650543 -0.01733260 0.00320000
v 0.05752952 -0.01733479 0.00320000
v 0.05763176 -0.01732779 0.00320000
v 0.05650666 -0.01731410 0.00330384
v 0.05651842 -0.01713687 0.00348146
v 0.05761710 -0.01713217 0.00348146
v 0.05870422 -0.01697309 0.00348146
v 0.05975818 -0.01666277 0.00348146
v 0.06075805 -0.01620739 0.00348146
v 0.06168399 -0.01561598 0.00348146
v 0.06251761 -0.01490028 0.00348146
v 0.06324234 -0.01407452 0.00348146
v 0.06384380 -0.01315508 0.00348146
v 0.06431005 -0.01216022 0.00348146
v 0.06463183 -0.01110971 0.00348146
v 0.06472851 -0.01061941 0.00348146
v 0.06483538 -0.01063694 0.00341213
v 0.06473736 -0.01113405 0.00341213
v 0.06441111 -0.01219916 0.00341213
v 0.06393839 -0.01320783 0.00341213
v 0.06332856 -0.01414004 0.00341213
v 0.06259377 -0.01497728 0.00341213
v 0.06174857 -0.01570291 0.00341213
v 0.06080977 -0.01630254 0.00341213
v 0.05979601 -0.01676425 0.00341213
v 0.05872741 -0.01707887 0.00341213
v 0.05762519 -0.01724017 0.00341213
v 0.05651125 -0.01724493 0.00341213
v 0.06243798 -0.00570954 0.00348146
v 0.06194809 -0.00545591 0.00348146
v 0.06202813 -0.00527682 0.00320000
v 0.06202056 -0.00529374 0.00330384
v 0.06253802 -0.00554080 0.00320000
v 0.06252857 -0.00555675 0.00330384
v 0.06314330 -0.00596298 0.00320000
v 0.06325674 -0.00608262 0.00330384
v 0.06326891 -0.00606863 0.00320000
v 0.06387864 -0.00673071 0.00330384
v 0.06389312 -0.00671913 0.00320000
v 0.06492561 -0.00918189 0.00330384
v 0.06474450 -0.00830023 0.00320000
v 0.06472687 -0.00830595 0.00330384
v 0.06466286 -0.00806797 0.00320000
v 0.06437405 -0.00747993 0.00330384
v 0.06439038 -0.00747114 0.00320000
v 0.06404209 -0.00691513 0.00320000
v 0.06498235 -0.01008016 0.00320000
v 0.06496306 -0.00934245 0.00320000
v 0.06494399 -0.00917943 0.00320000
v 0.06496383 -0.01007928 0.00330384
v 0.06478641 -0.01007081 0.00348146
v 0.06314018 -0.00621666 0.00348146
v 0.06373992 -0.00684164 0.00348146
v 0.06421766 -0.00756415 0.00348146
v 0.06455789 -0.00836071 0.00348146
v 0.06474955 -0.00920541 0.00348146
v 0.06199228 -0.00535704 0.00341213
v 0.06249321 -0.00561639 0.00341213
v 0.06321125 -0.00613494 0.00341213
v 0.06382449 -0.00677400 0.00341213
v 0.06431301 -0.00751280 0.00341213
v 0.06466091 -0.00832732 0.00341213
v 0.06485690 -0.00919107 0.00341213
v 0.06489459 -0.01007597 0.00341213
v 0.00326018 0.00776424 -0.00203146
v 0.00592721 0.00771679 -0.00201573
v 0.00326265 0.00787251 -0.00196213
v 0.00639688 0.00785341 -0.00179325
v 0.00628525 0.00784311 -0.00185238
v 0.00326424 0.00794182 -0.00185384
v 0.00614446 0.00781157 -0.00192394
v 0.00606552 0.00778414 -0.00196069
v 0.00326466 0.00796035 -0.00175000
v 0.00647677 0.00785310 -0.00175000
v 0.00710793 0.00782405 0.00320000
v 0.00886495 0.00771082 0.00330384
v 0.00886605 0.00772933 0.00320000
v 0.01411204 0.00730682 0.00330384
v 0.01411378 0.00732528 0.00320000
v 0.02454882 0.00595725 0.00330384
v 0.02123648 0.00648374 0.00320000
v 0.01934207 0.00672206 0.00330384
v 0.01934445 0.00674045 0.00320000
v 0.01418780 0.00731827 0.00320000
v 0.03517936 0.00383637 0.00320000
v 0.03487199 0.00390936 0.00320000
v 0.03486772 0.00389131 0.00330384
v 0.02972974 0.00503147 0.00320000
v 0.02972610 0.00501329 0.00330384
v 0.02823872 0.00532227 0.00320000
v 0.02455184 0.00597554 0.00320000
v 0.03997248 0.00261053 0.00320000
v 0.03996759 0.00259265 0.00330384
v 0.04204338 0.00202926 0.00320000
v 0.04501963 0.00111884 0.00330384
v 0.04502513 0.00113655 0.00320000
v 0.04881591 -0.00009516 0.00320000
v 0.05001783 -0.00052835 0.00330384
v 0.05002394 -0.00051084 0.00320000
v 0.05495623 -0.00234696 0.00330384
v 0.05496294 -0.00232968 0.00320000
v 0.05548230 -0.00253227 0.00320000
v 0.05982897 -0.00433484 0.00330384
v 0.05983626 -0.00431780 0.00320000
v 0.05975904 -0.00449812 0.00348146
v 0.05489198 -0.00251256 0.00348146
v 0.04995933 -0.00069606 0.00348146
v 0.04496696 0.00094921 0.00348146
v 0.03992080 0.00242130 0.00348146
v 0.03482687 0.00371845 0.00348146
v 0.02969123 0.00483912 0.00348146
v 0.02451998 0.00578198 0.00348146
v 0.01931930 0.00654590 0.00348146
v 0.01409535 0.00712998 0.00348146
v 0.00885437 0.00753352 0.00348146
v 0.00886082 0.00764162 0.00341213
v 0.01410553 0.00723780 0.00341213
v 0.01933318 0.00665331 0.00341213
v 0.02453757 0.00588884 0.00341213
v 0.02971249 0.00494531 0.00341213
v 0.03485178 0.00382384 0.00341213
v 0.03994933 0.00252577 0.00341213
v 0.04499907 0.00105263 0.00341213
v 0.04999500 -0.00059381 0.00341213
v 0.05493116 -0.00241160 0.00341213
v 0.05980168 -0.00439857 0.00341213
v 0.00326424 0.00794182 0.00185384
v 0.00326466 0.00796035 0.00175000
v 0.00326265 0.00787251 0.00196213
v 0.00326018 0.00776424 0.00203146
v 0.00574852 0.00612491 -0.00320000
v 0.00632489 0.00552773 -0.00320000
v 0.00677874 0.00496072 -0.00320000
v 0.00701553 0.00461978 -0.00320000
v 0.00757678 0.00362663 -0.00320000
v 0.00799829 0.00256659 -0.00320000
v 0.00837591 0.00063575 -0.00320000
v 0.00827228 0.00145921 -0.00320000
v 0.00811532 0.00216832 -0.00320000
v 0.01148315 -0.00461280 -0.00320000
v 0.00846092 -0.00003971 -0.00320000
v 0.00867429 -0.00091196 -0.00320000
v 0.00870511 -0.00100739 -0.00320000
v 0.00908661 -0.00192962 -0.00320000
v 0.00931677 -0.00235129 -0.00320000
v 0.01096146 -0.00423705 -0.00320000
v 0.01026970 -0.00360683 -0.00320000
v 0.01022675 -0.00356159 -0.00320000
v 0.00959740 -0.00278702 -0.00320000
v 0.01512762 -0.00458593 -0.00320000
v 0.02321870 -0.00484156 -0.00320000
v 0.02580627 -0.00503937 -0.00320000
v 0.02182531 -0.00473584 -0.00320000
v 0.01924207 -0.00459293 -0.00320000
v 0.01785805 -0.00456725 -0.00320000
v 0.04531495 -0.01408303 -0.00320000
v 0.04453423 -0.01330902 -0.00320000
v 0.04301152 -0.01194934 -0.00320000
v 0.04289063 -0.01184908 -0.00320000
v 0.04114486 -0.01051300 -0.00320000
v 0.04049836 -0.01006722 -0.00320000
v 0.03930622 -0.00930789 -0.00320000
v 0.03780281 -0.00845713 -0.00320000
v 0.03738454 -0.00824020 -0.00320000
v 0.03539005 -0.00731562 -0.00320000
v 0.03495421 -0.00713660 -0.00320000
v 0.03333340 -0.00653907 -0.00320000
v 0.03198353 -0.00611999 -0.00320000
v 0.03122555 -0.00591470 -0.00320000
v 0.02907776 -0.00544584 -0.00320000
v 0.02892312 -0.00541837 -0.00320000
v 0.02690148 -0.00513499 -0.00320000
v 0.04738115 -0.01536104 -0.00320000
v 0.04666200 -0.01506859 -0.00320000
v 0.04626925 -0.01484944 -0.00320000
v 0.04589777 -0.01459588 -0.00320000
v 0.05599559 -0.01728232 -0.00320000
v 0.05402967 -0.01698441 -0.00320000
v 0.05308774 -0.01681292 -0.00320000
v 0.05164555 -0.01651368 -0.00320000
v 0.05021288 -0.01617174 -0.00320000
v 0.04928735 -0.01592673 -0.00320000
v 0.06492208 -0.01065117 -0.00320000
v 0.06482299 -0.01115380 -0.00320000
v 0.06452933 -0.01213489 -0.00320000
v 0.06449310 -0.01223075 -0.00320000
v 0.06401512 -0.01325063 -0.00320000
v 0.06386024 -0.01351618 -0.00320000
v 0.06339853 -0.01419321 -0.00320000
v 0.06293947 -0.01474413 -0.00320000
v 0.06265555 -0.01503974 -0.00320000
v 0.06180097 -0.01577345 -0.00320000
v 0.06085173 -0.01637974 -0.00320000
v 0.06048672 -0.01656618 -0.00320000
v 0.05982670 -0.01684658 -0.00320000
v 0.05904519 -0.01709311 -0.00320000
v 0.05874623 -0.01716470 -0.00320000
v 0.05763176 -0.01732779 -0.00320000
v 0.05752952 -0.01733479 -0.00320000
v 0.05650543 -0.01733260 -0.00320000
v 0.06202813 -0.00527682 -0.00320000
v 0.06253802 -0.00554080 -0.00320000
v 0.06314330 -0.00596298 -0.00320000
v 0.06326891 -0.00606863 -0.00320000
v 0.06389312 -0.00671913 -0.00320000
v 0.06404209 -0.00691513 -0.00320000
v 0.06439038 -0.00747114 -0.00320000
v 0.06466286 -0.00806797 -0.00320000
v 0.06474450 -0.00830023 -0.00320000
v 0.06494399 -0.00917943 -0.00320000
v 0.06496306 -0.00934245 -0.00320000
v 0.06498235 -0.01008016 -0.00320000
v 0.00710793 0.00782405 -0.00320000
v 0.00647677 0.00785310 -0.00320000
v 0.05983626 -0.00431780 -0.00320000
v 0.05548230 -0.00253227 -0.00320000
v 0.05496294 -0.00232968 -0.00320000
v 0.05002394 -0.00051084 -0.00320000
v 0.04881591 -0.00009516 -0.00320000
v 0.04502513 0.00113655 -0.00320000
v 0.04204338 0.00202926 -0.00320000
v 0.03997248 0.00261053 -0.00320000
v 0.03517936 0.00383637 -0.00320000
v 0.03487199 0.00390936 -0.00320000
v 0.02972974 0.00503147 -0.00320000
v 0.02823872 0.00532227 -0.00320000
v 0.02455184 0.00597554 -0.00320000
v 0.02123648 0.00648374 -0.00320000
v 0.01934445 0.00674045 -0.00320000
v 0.01418780 0.00731827 -0.00320000
v 0.01411378 0.00732528 -0.00320000
v 0.00886605 0.00772933 -0.00320000
v 0.00576887 0.00760179 -0.00320000
v 0.00560187 0.00741032 -0.00320000
v 0.00551135 0.00724238 -0.00320000
v 0.00545437 0.00706031 -0.00320000
v 0.00543398 0.00680706 -0.00320000
v 0.00544804 0.00668055 -0.00320000
v 0.00558378 0.00632581 -0.00320000
v 0.00621793 0.00783069 -0.00320000
v 0.00586924 0.00768009 -0.00320000
v 0.00867505 0.00065846 -0.00350000
v 0.00857151 0.00065060 -0.00348146
v 0.00846547 0.00149329 -0.00348146
v 0.00856772 0.00151133 -0.00350000
v 0.00818507 0.00262652 -0.00348146
v 0.00828394 0.00265825 -0.00350000
v 0.00775372 0.00371132 -0.00348146
v 0.00784738 0.00375615 -0.00350000
v 0.00717936 0.00472766 -0.00348146
v 0.00726608 0.00478477 -0.00350000
v 0.00647259 0.00565682 -0.00348146
v 0.00655078 0.00572515 -0.00350000
v 0.00588277 0.00626794 -0.00348146
v 0.00595383 0.00634365 -0.00350000
v 0.00576121 0.00613843 -0.00330384
v 0.00633885 0.00553993 -0.00330384
v 0.00703102 0.00462998 -0.00330384
v 0.00759350 0.00363463 -0.00330384
v 0.00801595 0.00257225 -0.00330384
v 0.00829055 0.00146243 -0.00330384
v 0.00839440 0.00063716 -0.00330384
v 0.00846352 0.00064240 -0.00341213
v 0.00835882 0.00147447 -0.00341213
v 0.00808196 0.00259343 -0.00341213
v 0.00765604 0.00366456 -0.00341213
v 0.00708891 0.00466810 -0.00341213
v 0.00639105 0.00558555 -0.00341213
v 0.00580866 0.00618898 -0.00341213
v 0.00847918 -0.00003648 -0.00330384
v 0.00872271 -0.00100156 -0.00330384
v 0.00910318 -0.00192131 -0.00330384
v 0.00961260 -0.00277640 -0.00330384
v 0.01024026 -0.00354889 -0.00330384
v 0.01149899 -0.00455872 -0.00337163
v 0.01148854 -0.00459410 -0.00330402
v 0.01097299 -0.00422253 -0.00330384
v 0.01148473 -0.00460724 -0.00325732
v 0.01114796 -0.00400207 -0.00350000
v 0.01157235 -0.00431214 -0.00350000
v 0.01153412 -0.00443915 -0.00347185
v 0.01108341 -0.00408340 -0.00348146
v 0.01036963 -0.00342718 -0.00348146
v 0.01044527 -0.00335603 -0.00350000
v 0.00975820 -0.00267468 -0.00348146
v 0.00984332 -0.00261521 -0.00350000
v 0.00926196 -0.00184170 -0.00348146
v 0.00935479 -0.00179516 -0.00350000
v 0.00889134 -0.00094574 -0.00348146
v 0.00898991 -0.00091311 -0.00350000
v 0.00865410 -0.00000562 -0.00348146
v 0.00875636 0.00001243 -0.00350000
v 0.00854745 -0.00002444 -0.00341213
v 0.00878853 -0.00097978 -0.00341213
v 0.00916515 -0.00189024 -0.00341213
v 0.00966943 -0.00273670 -0.00341213
v 0.01029075 -0.00350138 -0.00341213
v 0.01101609 -0.00416823 -0.00341213
v 0.01150914 -0.00452441 -0.00341246
v 0.01785819 -0.00447938 -0.00341213
v 0.01785834 -0.00437768 -0.00347894
v 0.01785851 -0.00426725 -0.00350000
v 0.01785809 -0.00454618 -0.00331043
v 0.01984965 -0.00442747 -0.00347894
v 0.01985466 -0.00431711 -0.00350000
v 0.02184669 -0.00443657 -0.00350000
v 0.02182681 -0.00471498 -0.00331043
v 0.02580755 -0.00502087 -0.00330384
v 0.02581231 -0.00495171 -0.00341213
v 0.02183157 -0.00464830 -0.00341213
v 0.02581976 -0.00484367 -0.00348146
v 0.02183882 -0.00454679 -0.00347894
v 0.02582690 -0.00474008 -0.00350000
v 0.01984200 -0.00459586 -0.00331043
v 0.01984503 -0.00452910 -0.00341213
v 0.02690343 -0.00511655 -0.00330384
v 0.03123017 -0.00589674 -0.00330384
v 0.02908105 -0.00542759 -0.00330384
v 0.03333931 -0.00652149 -0.00330384
v 0.03739295 -0.00822368 -0.00330384
v 0.03539723 -0.00729852 -0.00330384
v 0.03931582 -0.00929203 -0.00330384
v 0.04290243 -0.01183478 -0.00330384
v 0.04115558 -0.01049787 -0.00330384
v 0.04454704 -0.01329562 -0.00330384
v 0.04532824 -0.01407010 -0.00330384
v 0.04474152 -0.01309215 -0.00350000
v 0.04553002 -0.01387387 -0.00350000
v 0.04545558 -0.01394627 -0.00348146
v 0.04466977 -0.01316721 -0.00348146
v 0.04301546 -0.01169776 -0.00348146
v 0.04308154 -0.01161766 -0.00350000
v 0.04125831 -0.01035297 -0.00348146
v 0.04131836 -0.01026826 -0.00350000
v 0.03940770 -0.00914001 -0.00348146
v 0.03946140 -0.00905115 -0.00350000
v 0.03747348 -0.00806536 -0.00348146
v 0.03752057 -0.00797281 -0.00350000
v 0.03546600 -0.00713475 -0.00348146
v 0.03550620 -0.00703901 -0.00350000
v 0.03339594 -0.00635314 -0.00348146
v 0.03342905 -0.00625472 -0.00350000
v 0.03127436 -0.00572470 -0.00348146
v 0.03130020 -0.00562413 -0.00350000
v 0.02911257 -0.00525279 -0.00348146
v 0.02913100 -0.00515060 -0.00350000
v 0.02692210 -0.00493991 -0.00348146
v 0.02693302 -0.00483665 -0.00350000
v 0.04537794 -0.01402177 -0.00341213
v 0.04459494 -0.01324550 -0.00341213
v 0.04294655 -0.01178130 -0.00341213
v 0.04119568 -0.01044132 -0.00341213
v 0.03935167 -0.00923270 -0.00341213
v 0.03742438 -0.00816189 -0.00341213
v 0.03542407 -0.00723460 -0.00341213
v 0.03336141 -0.00645578 -0.00341213
v 0.03124742 -0.00582959 -0.00341213
v 0.02909335 -0.00535937 -0.00341213
v 0.02691071 -0.00504761 -0.00341213
v 0.04590890 -0.01458105 -0.00330384
v 0.04667030 -0.01505200 -0.00330384
v 0.04738677 -0.01534337 -0.00330384
v 0.04670132 -0.01499000 -0.00341213
v 0.04740783 -0.01527732 -0.00341213
v 0.04674978 -0.01489316 -0.00348146
v 0.04744071 -0.01517414 -0.00348146
v 0.04607787 -0.01435596 -0.00350000
v 0.04595052 -0.01452561 -0.00341213
v 0.04601553 -0.01443900 -0.00348146
v 0.04679625 -0.01480030 -0.00350000
v 0.04747224 -0.01507520 -0.00350000
v 0.05603459 -0.01698487 -0.00350000
v 0.05602109 -0.01708782 -0.00348146
v 0.05406294 -0.01679109 -0.00348146
v 0.05408056 -0.01668876 -0.00350000
v 0.05168825 -0.01632221 -0.00348146
v 0.05171086 -0.01622087 -0.00350000
v 0.04933938 -0.01573759 -0.00348146
v 0.04936691 -0.01563747 -0.00350000
v 0.04929227 -0.01590885 -0.00330384
v 0.05164959 -0.01649558 -0.00330384
v 0.05403281 -0.01696614 -0.00330384
v 0.05599801 -0.01726394 -0.00330384
v 0.04931065 -0.01584201 -0.00341213
v 0.05166468 -0.01642791 -0.00341213
v 0.05404457 -0.01689782 -0.00341213
v 0.05600702 -0.01719520 -0.00341213
v 0.06462604 -0.01060260 -0.00350000
v 0.06472851 -0.01061941 -0.00348146
v 0.06463183 -0.01110971 -0.00348146
v 0.06453066 -0.01108637 -0.00350000
v 0.06431005 -0.01216022 -0.00348146
v 0.06421316 -0.01212289 -0.00350000
v 0.06384380 -0.01315508 -0.00348146
v 0.06375312 -0.01310450 -0.00350000
v 0.06324234 -0.01407452 -0.00348146
v 0.06315966 -0.01401169 -0.00350000
v 0.06251761 -0.01490028 -0.00348146
v 0.06244458 -0.01482646 -0.00350000
v 0.06168399 -0.01561598 -0.00348146
v 0.06162207 -0.01553262 -0.00350000
v 0.06075805 -0.01620739 -0.00348146
v 0.06070847 -0.01611616 -0.00350000
v 0.05975818 -0.01666277 -0.00348146
v 0.05972190 -0.01656548 -0.00350000
v 0.05870422 -0.01697309 -0.00348146
v 0.05868198 -0.01687166 -0.00350000
v 0.05761710 -0.01713217 -0.00348146
v 0.05760934 -0.01702863 -0.00350000
v 0.05651842 -0.01713687 -0.00348146
v 0.05652529 -0.01703326 -0.00350000
v 0.05650666 -0.01731410 -0.00330384
v 0.05763037 -0.01730930 -0.00330384
v 0.05874225 -0.01714659 -0.00330384
v 0.06264251 -0.01502656 -0.00330384
v 0.06178991 -0.01575856 -0.00330384
v 0.06084288 -0.01636345 -0.00330384
v 0.05982022 -0.01682920 -0.00330384
v 0.06338376 -0.01418198 -0.00330384
v 0.06447580 -0.01222408 -0.00330384
v 0.06399893 -0.01324160 -0.00330384
v 0.06480491 -0.01114963 -0.00330384
v 0.06490379 -0.01064817 -0.00330384
v 0.05651125 -0.01724493 -0.00341213
v 0.05762519 -0.01724017 -0.00341213
v 0.05872741 -0.01707887 -0.00341213
v 0.05979601 -0.01676425 -0.00341213
v 0.06080977 -0.01630254 -0.00341213
v 0.06174857 -0.01570291 -0.00341213
v 0.06259377 -0.01497728 -0.00341213
v 0.06332856 -0.01414004 -0.00341213
v 0.06393839 -0.01320783 -0.00341213
v 0.06441111 -0.01219916 -0.00341213
v 0.06473736 -0.01113405 -0.00341213
v 0.06483538 -0.01063694 -0.00341213
v 0.06190572 -0.00555071 -0.00350000
v 0.06194809 -0.00545591 -0.00348146
v 0.06243798 -0.00570954 -0.00348146
v 0.06238503 -0.00579886 -0.00350000
v 0.06314018 -0.00621666 -0.00348146
v 0.06307206 -0.00629501 -0.00350000
v 0.06373992 -0.00684164 -0.00348146
v 0.06365882 -0.00690648 -0.00350000
v 0.06421766 -0.00756415 -0.00348146
v 0.06412623 -0.00761338 -0.00350000
v 0.06455789 -0.00836071 -0.00348146
v 0.06445912 -0.00839272 -0.00350000
v 0.06474955 -0.00920541 -0.00348146
v 0.06464664 -0.00921917 -0.00350000
v 0.06478641 -0.01007081 -0.00348146
v 0.06468270 -0.01006586 -0.00350000
v 0.06496383 -0.01007928 -0.00330384
v 0.06492561 -0.00918189 -0.00330384
v 0.06472687 -0.00830595 -0.00330384
v 0.06325674 -0.00608262 -0.00330384
v 0.06387864 -0.00673071 -0.00330384
v 0.06437405 -0.00747993 -0.00330384
v 0.06252857 -0.00555675 -0.00330384
v 0.06202056 -0.00529374 -0.00330384
v 0.06489459 -0.01007597 -0.00341213
v 0.06485690 -0.00919107 -0.00341213
v 0.06466091 -0.00832732 -0.00341213
v 0.06431301 -0.00751280 -0.00341213
v 0.06382449 -0.00677400 -0.00341213
v 0.06321125 -0.00613494 -0.00341213
v 0.06249321 -0.00561639 -0.00341213
v 0.06199228 -0.00535704 -0.00341213
v 0.00646360 0.00755339 -0.00350000
v 0.00646816 0.00765712 -0.00348146
v 0.00885437 0.00753352 -0.00348146
v 0.00884819 0.00742987 -0.00350000
v 0.01409535 0.00712998 -0.00348146
v 0.01408560 0.00702660 -0.00350000
v 0.01931930 0.00654590 -0.00348146
v 0.01930598 0.00644293 -0.00350000
v 0.02451998 0.00578198 -0.00348146
v 0.02450312 0.00567952 -0.00350000
v 0.02969123 0.00483912 -0.00348146
v 0.02967084 0.00473731 -0.00350000
v 0.03482687 0.00371845 -0.00348146
v 0.03480298 0.00361740 -0.00350000
v 0.03992080 0.00242130 -0.00348146
v 0.03989344 0.00232113 -0.00350000
v 0.04496696 0.00094921 -0.00348146
v 0.04493616 0.00085005 -0.00350000
v 0.04995933 -0.00069606 -0.00348146
v 0.04992513 -0.00079410 -0.00350000
v 0.05489198 -0.00251256 -0.00348146
v 0.05485442 -0.00260937 -0.00350000
v 0.05975904 -0.00449812 -0.00348146
v 0.05971817 -0.00459358 -0.00350000
v 0.05982897 -0.00433484 -0.00330384
v 0.05495623 -0.00234696 -0.00330384
v 0.05001783 -0.00052835 -0.00330384
v 0.04501963 0.00111884 -0.00330384
v 0.03996759 0.00259265 -0.00330384
v 0.03486772 0.00389131 -0.00330384
v 0.02972610 0.00501329 -0.00330384
v 0.02454882 0.00595725 -0.00330384
v 0.01934207 0.00672206 -0.00330384
v 0.01411204 0.00730682 -0.00330384
v 0.00886495 0.00771082 -0.00330384
v 0.00647596 0.00783457 -0.00330384
v 0.05980168 -0.00439857 -0.00341213
v 0.05493116 -0.00241160 -0.00341213
v 0.04999500 -0.00059381 -0.00341213
v 0.04499907 0.00105263 -0.00341213
v 0.03994933 0.00252577 -0.00341213
v 0.03485178 0.00382384 -0.00341213
v 0.02971249 0.00494531 -0.00341213
v 0.02453757 0.00588884 -0.00341213
v 0.01933318 0.00665331 -0.00341213
v 0.01410553 0.00723780 -0.00341213
v 0.00886082 0.00764162 -0.00341213
v 0.00647291 0.00776531 -0.00341213
v 0.00564123 0.00671458 -0.00348146
v 0.00583851 0.00648429 -0.00350000
v 0.00575034 0.00642944 -0.00348146
v 0.00574792 0.00699844 -0.00350000
v 0.00573287 0.00685513 -0.00350000
v 0.00574349 0.00673260 -0.00350000
v 0.00564632 0.00701985 -0.00348146
v 0.00576488 0.00730120 -0.00348146
v 0.00585117 0.00724344 -0.00350000
v 0.00597980 0.00751805 -0.00348146
v 0.00603833 0.00743228 -0.00350000
v 0.00626009 0.00763911 -0.00348146
v 0.00628241 0.00753770 -0.00350000
v 0.00587969 0.00766477 -0.00330384
v 0.00622191 0.00781258 -0.00330384
v 0.00561727 0.00740001 -0.00330384
v 0.00547252 0.00705649 -0.00330384
v 0.00546630 0.00668376 -0.00330384
v 0.00559953 0.00633561 -0.00330384
v 0.00623681 0.00774487 -0.00341213
v 0.00591876 0.00760751 -0.00341213
v 0.00567488 0.00736145 -0.00341213
v 0.00554035 0.00704219 -0.00341213
v 0.00553458 0.00669579 -0.00341213
v 0.00565839 0.00637223 -0.00341213
v 0.06248804 -0.00984550 -0.00350000
v 0.06232060 -0.00894214 -0.00350000
v 0.06022251 -0.00735271 -0.00350000
v 0.06110580 -0.00760548 -0.00350000
v 0.06231784 -0.01074835 -0.00350000
v 0.06183813 -0.00816027 -0.00350000
v 0.05998992 -0.00734169 -0.00350000
v 0.05930755 -0.00743608 -0.00350000
v 0.05848450 -0.00784435 -0.00350000
v 0.05786451 -0.00852237 -0.00350000
v 0.05786050 -0.01115452 -0.00350000
v 0.05847842 -0.01183443 -0.00350000
v 0.06109897 -0.01208129 -0.00350000
v 0.06021491 -0.01233137 -0.00350000
v 0.05930022 -0.01224520 -0.00350000
v 0.06183299 -0.01152874 -0.00350000
v 0.05753131 -0.00937856 -0.00350000
v 0.05752992 -0.01029731 -0.00350000
usemtl material_4
f 1 2 3
f 3 2 4
f 5 6 4
f 4 6 7
f 4 7 3
f 8 9 5
f 5 9 10
f 5 10 6
f 11 12 13
f 13 12 14
f 15 16 17
f 18 19 20
f 20 19 21
f 20 21 22
f 1 23 2
f 2 23 24
f 2 24 25
f 26 27 8
f 8 27 28
f 8 28 9
f 11 29 12
f 12 29 30
f 12 30 31
f 32 33 34
f 24 35 25
f 25 35 36
f 25 36 37
f 30 38 31
f 31 38 39
f 31 39 40
f 40 39 41
f 40 41 26
f 26 41 42
f 26 42 27
f 34 43 32
f 32 43 44
f 32 44 14
f 14 44 45
f 14 45 13
f 46 47 48
f 48 47 49
f 48 49 32
f 32 49 50
f 32 50 33
f 22 21 51
f 51 21 52
f 51 52 17
f 17 52 53
f 17 53 15
f 36 54 37
f 37 54 55
f 37 55 18
f 18 55 56
f 18 56 19
f 57 58 48
f 48 58 59
f 48 59 60
f 60 61 48
f 48 61 62
f 48 62 46
f 63 64 65
f 65 64 66
f 65 66 67
f 67 66 68
f 67 68 69
f 48 17 57
f 57 17 16
f 57 16 70
f 70 16 71
f 70 71 63
f 63 71 72
f 63 72 64
f 73 74 75
f 57 76 77
f 69 68 78
f 78 68 79
f 78 79 80
f 80 79 81
f 80 81 82
f 77 83 57
f 57 83 84
f 57 84 58
f 76 57 75
f 75 57 85
f 75 85 86
f 87 88 89
f 86 90 75
f 75 90 91
f 75 91 73
f 81 92 82
f 82 92 87
f 82 87 93
f 93 87 89
f 94 95 96
f 96 97 94
f 94 97 98
f 94 98 99
f 99 98 100
f 99 100 101
f 102 103 104
f 104 103 105
f 104 105 100
f 100 105 106
f 100 106 101
f 107 108 109
f 109 110 107
f 107 110 111
f 107 111 112
f 111 113 112
f 112 113 114
f 112 114 95
f 95 114 115
f 95 115 96
f 116 117 118
f 118 117 119
f 120 121 122
f 123 124 125
f 126 123 127
f 127 123 125
f 127 125 128
f 128 125 129
f 128 129 130
f 130 129 131
f 132 133 134
f 134 133 135
f 134 135 131
f 131 135 136
f 131 136 130
f 137 138 132
f 132 138 139
f 132 139 133
f 132 140 137
f 137 140 141
f 137 141 142
f 57 70 143
f 143 144 57
f 57 144 145
f 57 145 85
f 85 145 146
f 85 146 86
f 86 146 147
f 86 147 90
f 90 147 148
f 90 148 91
f 91 148 149
f 91 149 73
f 73 149 150
f 73 150 74
f 124 120 125
f 125 120 122
f 125 122 129
f 129 122 151
f 129 151 131
f 131 151 152
f 131 152 134
f 134 152 153
f 134 153 132
f 132 153 154
f 132 154 140
f 140 154 155
f 140 155 141
f 141 155 156
f 121 150 122
f 122 150 149
f 122 149 151
f 151 149 148
f 151 148 152
f 152 148 147
f 152 147 153
f 153 147 146
f 153 146 154
f 154 146 145
f 154 145 155
f 155 145 144
f 155 144 156
f 156 144 143
f 141 157 142
f 142 157 158
f 158 157 159
f 159 157 160
f 159 160 161
f 161 160 162
f 161 162 163
f 163 162 164
f 163 164 165
f 165 164 166
f 166 164 167
f 166 167 168
f 168 167 169
f 168 169 109
f 78 80 170
f 170 171 78
f 78 171 172
f 78 172 69
f 69 172 173
f 69 173 67
f 67 173 174
f 67 174 65
f 65 174 175
f 65 175 63
f 63 175 143
f 63 143 70
f 170 176 171
f 171 176 177
f 171 177 172
f 172 177 178
f 172 178 173
f 173 178 179
f 173 179 174
f 174 179 180
f 174 180 175
f 175 180 181
f 175 181 143
f 143 181 156
f 176 169 177
f 177 169 167
f 177 167 178
f 178 167 164
f 178 164 179
f 179 164 162
f 179 162 180
f 180 162 160
f 180 160 181
f 181 160 157
f 181 157 156
f 156 157 141
f 113 111 182
f 182 111 110
f 182 110 183
f 183 110 109
f 183 109 169
f 113 182 114
f 114 182 184
f 114 184 115
f 115 184 185
f 115 185 96
f 96 185 97
f 97 185 186
f 97 186 98
f 98 186 187
f 98 187 100
f 100 187 188
f 100 188 104
f 92 81 189
f 189 190 92
f 92 190 191
f 92 191 87
f 87 191 192
f 87 192 88
f 88 192 193
f 88 193 89
f 89 193 194
f 89 194 93
f 93 194 195
f 93 195 82
f 82 195 170
f 82 170 80
f 169 176 183
f 183 176 196
f 183 196 182
f 182 196 197
f 182 197 184
f 184 197 198
f 184 198 185
f 185 198 199
f 185 199 186
f 186 199 200
f 186 200 187
f 187 200 201
f 187 201 188
f 188 201 202
f 176 170 196
f 196 170 195
f 196 195 197
f 197 195 194
f 197 194 198
f 198 194 193
f 198 193 199
f 199 193 192
f 199 192 200
f 200 192 191
f 200 191 201
f 201 191 190
f 201 190 202
f 202 190 189
f 128 203 127
f 127 203 204
f 127 204 126
f 126 204 205
f 126 205 206
f 206 207 126
f 126 207 208
f 126 208 209
f 128 130 203
f 203 130 136
f 203 136 210
f 136 135 210
f 210 135 133
f 210 133 211
f 133 139 211
f 211 139 138
f 211 138 212
f 212 138 137
f 212 137 142
f 213 214 215
f 216 217 218
f 218 217 219
f 219 217 220
f 220 217 221
f 220 221 222
f 222 221 223
f 222 223 224
f 225 226 227
f 227 226 228
f 227 228 229
f 229 228 230
f 229 230 231
f 231 230 232
f 231 232 223
f 223 232 233
f 223 233 224
f 225 227 234
f 234 227 235
f 234 235 236
f 236 235 237
f 236 237 238
f 238 237 239
f 238 239 240
f 241 242 239
f 239 242 243
f 239 243 240
f 116 242 244
f 244 242 241
f 244 241 245
f 246 247 248
f 248 249 246
f 246 249 250
f 246 250 251
f 251 250 252
f 251 252 253
f 253 252 254
f 253 254 255
f 255 254 256
f 255 256 257
f 257 256 258
f 257 258 259
f 259 258 260
f 259 260 261
f 261 260 262
f 261 262 263
f 263 262 264
f 263 264 265
f 265 264 266
f 265 266 267
f 267 266 268
f 267 268 269
f 216 270 217
f 217 270 271
f 217 271 221
f 221 271 272
f 221 272 223
f 223 272 273
f 223 273 231
f 231 273 274
f 231 274 229
f 229 274 275
f 229 275 227
f 227 275 276
f 227 276 235
f 235 276 277
f 235 277 237
f 237 277 278
f 237 278 239
f 239 278 279
f 239 279 241
f 241 279 215
f 241 215 245
f 245 215 214
f 270 268 271
f 271 268 266
f 271 266 272
f 272 266 264
f 272 264 273
f 273 264 262
f 273 262 274
f 274 262 260
f 274 260 275
f 275 260 258
f 275 258 276
f 276 258 256
f 276 256 277
f 277 256 254
f 277 254 278
f 278 254 252
f 278 252 279
f 279 252 250
f 279 250 215
f 215 250 249
f 215 249 213
f 213 249 248
f 117 116 280
f 280 116 244
f 280 244 281
f 281 244 245
f 281 245 282
f 282 245 214
f 282 214 283
f 283 214 213
f 283 213 284
f 284 213 248
f 284 248 285
f 285 248 247
f 286 287 288
f 288 287 117
f 289 290 291
f 292 293 290
f 290 289 292
f 292 289 294
f 292 294 295
f 295 294 296
f 295 296 297
f 298 299 300
f 301 302 299
f 285 302 284
f 284 302 301
f 284 301 283
f 283 301 303
f 117 280 288
f 288 280 281
f 288 281 303
f 303 281 282
f 303 282 283
f 299 298 301
f 301 298 304
f 301 304 303
f 303 304 305
f 303 305 288
f 288 305 306
f 288 306 286
f 307 297 300
f 300 297 296
f 300 296 298
f 298 296 294
f 298 294 304
f 304 294 289
f 304 289 305
f 305 289 291
f 305 291 306
f 109 108 168
f 168 108 308
f 168 308 166
f 166 308 165
f 165 308 309
f 165 309 163
f 163 309 161
f 161 309 310
f 161 310 159
f 212 142 310
f 310 142 158
f 310 158 159
f 311 312 313
f 314 315 316
f 317 318 319
f 317 319 320
f 320 319 321
f 320 321 322
f 322 321 323
f 322 323 324
f 324 323 325
f 324 325 326
f 326 325 327
f 326 327 328
f 328 327 329
f 328 329 330
f 330 329 331
f 330 331 332
f 332 331 333
f 332 333 334
f 334 333 335
f 334 335 336
f 336 335 316
f 336 316 337
f 337 316 315
f 337 315 338
f 339 340 341
f 341 340 342
f 341 342 343
f 343 342 344
f 343 344 345
f 345 344 346
f 345 346 347
f 347 346 118
f 339 341 348
f 348 341 349
f 348 349 350
f 350 349 351
f 350 351 352
f 352 351 353
f 352 353 354
f 355 356 357
f 357 356 358
f 357 358 359
f 359 358 360
f 359 360 353
f 353 360 361
f 353 361 354
f 362 363 355
f 355 363 364
f 355 364 356
f 355 365 362
f 362 365 366
f 362 366 367
f 318 368 319
f 319 368 369
f 319 369 321
f 321 369 370
f 321 370 323
f 323 370 371
f 323 371 325
f 325 371 372
f 325 372 327
f 327 372 373
f 327 373 329
f 329 373 374
f 329 374 331
f 331 374 375
f 331 375 333
f 333 375 376
f 333 376 335
f 335 376 377
f 335 377 316
f 316 377 313
f 316 313 314
f 314 313 312
f 368 366 369
f 369 366 365
f 369 365 370
f 370 365 355
f 370 355 371
f 371 355 357
f 371 357 372
f 372 357 359
f 372 359 373
f 373 359 353
f 373 353 374
f 374 353 351
f 374 351 375
f 375 351 349
f 375 349 376
f 376 349 341
f 376 341 377
f 377 341 343
f 377 343 313
f 313 343 345
f 313 345 311
f 311 345 347
f 118 119 347
f 347 119 378
f 347 378 311
f 311 378 379
f 311 379 312
f 312 379 380
f 312 380 314
f 314 380 381
f 314 381 315
f 315 381 382
f 315 382 338
f 338 382 383
f 381 380 384
f 379 378 385
f 383 382 386
f 383 386 387
f 387 386 388
f 387 388 389
f 389 388 390
f 389 390 391
f 391 390 392
f 391 392 393
f 394 395 396
f 396 395 397
f 396 397 398
f 398 397 399
f 399 397 400
f 399 400 401
f 401 400 385
f 401 385 402
f 402 385 378
f 402 378 119
f 382 381 386
f 386 381 384
f 386 384 388
f 388 384 403
f 388 403 390
f 390 403 404
f 390 404 392
f 392 404 405
f 380 379 384
f 384 379 385
f 384 385 403
f 403 385 400
f 403 400 404
f 404 400 397
f 404 397 405
f 405 397 395
f 406 407 408
f 408 407 409
f 408 409 410
f 410 409 411
f 410 411 412
f 412 411 413
f 412 413 414
f 414 413 415
f 414 415 416
f 416 415 417
f 416 417 418
f 418 417 419
f 418 419 420
f 420 419 421
f 420 421 422
f 422 421 423
f 422 423 424
f 424 423 425
f 424 425 426
f 426 425 427
f 426 427 428
f 428 427 429
f 428 429 430
f 430 429 431
f 430 431 432
f 432 431 433
f 432 433 434
f 434 433 435
f 434 435 436
f 436 435 437
f 436 437 438
f 438 437 439
f 438 439 406
f 406 439 407
f 440 441 442
f 216 218 441
f 441 440 216
f 216 440 443
f 216 443 270
f 270 443 444
f 270 444 268
f 445 446 447
f 442 448 440
f 440 448 449
f 440 449 443
f 443 449 445
f 443 445 444
f 444 445 447
f 444 447 268
f 268 447 269
f 367 218 362
f 362 218 219
f 362 219 363
f 363 219 220
f 363 220 364
f 364 220 222
f 364 222 356
f 356 222 224
f 356 224 358
f 358 224 233
f 358 233 360
f 360 233 232
f 360 232 361
f 361 232 230
f 361 230 354
f 354 230 228
f 354 228 352
f 352 228 226
f 352 226 350
f 350 226 225
f 350 225 348
f 348 225 234
f 348 234 339
f 339 234 236
f 339 236 340
f 340 236 238
f 340 238 342
f 342 238 240
f 342 240 344
f 344 240 243
f 344 243 346
f 346 243 242
f 346 242 118
f 118 242 116
f 450 451 452
f 318 317 451
f 451 450 318
f 318 450 453
f 318 453 368
f 368 453 454
f 368 454 366
f 455 456 457
f 452 458 450
f 450 458 459
f 450 459 453
f 453 459 455
f 453 455 454
f 454 455 457
f 454 457 366
f 366 457 367
f 293 394 290
f 290 394 396
f 290 396 291
f 291 396 398
f 291 398 306
f 306 398 399
f 306 399 286
f 286 399 401
f 286 401 287
f 287 401 402
f 287 402 117
f 117 402 119
f 393 392 460
f 393 460 461
f 461 460 462
f 461 462 463
f 463 462 464
f 463 464 465
f 465 464 466
f 465 466 467
f 468 469 470
f 470 469 471
f 470 471 472
f 472 471 473
f 472 473 474
f 474 473 475
f 475 473 476
f 475 476 477
f 477 476 395
f 477 395 394
f 392 405 460
f 460 405 478
f 460 478 462
f 462 478 479
f 462 479 464
f 464 479 480
f 464 480 466
f 466 480 481
f 405 395 478
f 478 395 476
f 478 476 479
f 479 476 473
f 479 473 480
f 480 473 471
f 480 471 481
f 481 471 469
f 482 483 293
f 484 485 486
f 487 488 489
f 490 491 488
f 488 487 490
f 490 487 492
f 490 492 493
f 493 492 494
f 493 494 495
f 496 497 498
f 297 307 499
f 293 292 482
f 482 292 295
f 482 295 500
f 500 295 297
f 500 297 501
f 501 297 499
f 501 499 497
f 497 496 501
f 501 496 502
f 501 502 500
f 500 502 484
f 500 484 482
f 482 484 486
f 482 486 483
f 503 495 498
f 498 495 494
f 498 494 496
f 496 494 492
f 496 492 502
f 502 492 487
f 502 487 484
f 484 487 489
f 484 489 485
f 416 418 107
f 263 432 434
f 503 112 504
f 504 112 95
f 504 95 94
f 497 499 498
f 498 499 503
f 436 259 434
f 434 259 261
f 434 261 263
f 438 255 436
f 436 255 257
f 436 257 259
f 499 307 503
f 503 307 300
f 503 300 112
f 112 300 412
f 112 412 107
f 107 412 414
f 107 414 416
f 422 309 420
f 420 309 308
f 420 308 418
f 418 308 108
f 418 108 107
f 210 424 203
f 203 424 426
f 428 446 426
f 426 446 204
f 426 204 203
f 285 247 406
f 406 408 285
f 285 408 410
f 285 410 302
f 302 410 412
f 302 412 299
f 299 412 300
f 210 211 424
f 424 211 212
f 424 212 422
f 422 212 310
f 422 310 309
f 263 265 432
f 432 265 267
f 432 267 430
f 430 267 269
f 430 269 428
f 428 269 447
f 428 447 446
f 247 246 406
f 406 246 251
f 406 251 438
f 438 251 253
f 438 253 255
f 505 506 507
f 508 509 510
f 421 419 510
f 407 338 409
f 409 338 383
f 409 383 411
f 511 512 427
f 510 419 508
f 508 419 417
f 508 417 467
f 467 417 415
f 467 415 465
f 465 415 463
f 463 415 413
f 463 413 461
f 439 336 407
f 407 336 337
f 407 337 338
f 437 332 439
f 439 332 334
f 439 334 336
f 435 328 437
f 437 328 330
f 437 330 332
f 433 324 435
f 435 324 326
f 435 326 328
f 512 513 427
f 427 513 514
f 427 514 429
f 431 320 433
f 433 320 322
f 433 322 324
f 514 452 429
f 429 452 451
f 429 451 431
f 431 451 317
f 431 317 320
f 389 391 413
f 413 391 393
f 413 393 461
f 507 515 427
f 427 515 516
f 427 516 511
f 411 383 413
f 413 383 387
f 413 387 389
f 505 507 517
f 517 507 427
f 517 427 518
f 518 427 425
f 518 425 510
f 510 425 423
f 510 423 421
f 519 520 521
f 522 77 76
f 523 524 525
f 526 523 527
f 527 523 525
f 527 525 528
f 528 525 529
f 528 529 530
f 530 529 531
f 530 531 75
f 524 532 525
f 525 532 533
f 525 533 529
f 529 533 522
f 529 522 531
f 531 522 76
f 531 76 75
f 83 77 534
f 534 77 522
f 534 522 535
f 535 522 533
f 535 533 521
f 521 533 532
f 521 532 519
f 519 532 524
f 536 526 527
f 123 126 536
f 123 536 124
f 124 536 527
f 124 527 120
f 120 527 528
f 120 528 121
f 121 528 530
f 121 530 150
f 150 530 75
f 150 75 74
f 448 442 537
f 209 208 537
f 537 208 207
f 537 207 448
f 448 207 206
f 448 206 449
f 449 206 205
f 449 205 445
f 445 205 204
f 445 204 446
f 456 442 457
f 457 442 441
f 457 441 367
f 367 441 218
f 538 456 455
f 539 538 540
f 540 538 541
f 538 455 541
f 541 455 459
f 541 459 542
f 542 459 458
f 542 458 543
f 543 458 452
f 543 452 514
f 83 534 544
f 83 544 84
f 84 544 545
f 84 545 58
f 58 545 546
f 58 546 59
f 59 546 547
f 59 547 60
f 60 547 548
f 60 548 61
f 61 548 549
f 61 549 62
f 62 549 550
f 62 550 46
f 46 550 551
f 46 551 47
f 47 551 552
f 47 552 49
f 49 552 553
f 49 553 50
f 50 553 554
f 50 554 33
f 555 556 557
f 557 556 558
f 557 558 559
f 559 558 560
f 559 560 561
f 561 560 562
f 563 564 562
f 562 564 565
f 562 565 561
f 566 567 568
f 568 567 569
f 568 569 563
f 563 569 570
f 563 570 564
f 571 572 566
f 566 572 573
f 566 573 567
f 574 575 576
f 576 575 577
f 576 577 571
f 571 577 578
f 571 578 572
f 579 580 574
f 574 580 581
f 574 581 575
f 574 582 579
f 579 582 521
f 579 521 520
f 534 535 544
f 544 535 583
f 544 583 545
f 545 583 584
f 545 584 546
f 546 584 585
f 546 585 547
f 547 585 586
f 547 586 548
f 548 586 587
f 548 587 549
f 549 587 588
f 549 588 550
f 550 588 589
f 550 589 551
f 551 589 590
f 551 590 552
f 552 590 591
f 552 591 553
f 553 591 592
f 553 592 554
f 554 592 593
f 535 521 583
f 583 521 582
f 583 582 584
f 584 582 574
f 584 574 585
f 585 574 576
f 585 576 586
f 586 576 571
f 586 571 587
f 587 571 566
f 587 566 588
f 588 566 568
f 588 568 589
f 589 568 563
f 589 563 590
f 590 563 562
f 590 562 591
f 591 562 560
f 591 560 592
f 592 560 558
f 592 558 593
f 593 558 556
f 594 34 33
f 595 43 34
f 596 44 43
f 43 595 596
f 596 595 597
f 596 597 598
f 598 597 599
f 598 599 600
f 600 599 601
f 600 601 602
f 556 555 603
f 33 554 594
f 594 554 593
f 594 593 604
f 604 593 556
f 604 556 605
f 605 556 603
f 605 603 606
f 34 594 595
f 595 594 604
f 595 604 597
f 597 604 605
f 597 605 599
f 599 605 606
f 599 606 601
f 44 596 607
f 44 607 45
f 45 607 608
f 45 608 13
f 13 608 609
f 13 609 11
f 11 609 610
f 11 610 29
f 611 612 613
f 613 612 614
f 613 614 615
f 615 614 616
f 615 616 617
f 617 616 618
f 618 616 619
f 618 619 620
f 620 619 600
f 620 600 602
f 612 621 614
f 614 621 622
f 614 622 616
f 616 622 623
f 616 623 619
f 619 623 624
f 619 624 600
f 600 624 598
f 621 610 622
f 622 610 609
f 622 609 623
f 623 609 608
f 623 608 624
f 624 608 607
f 624 607 598
f 598 607 596
f 625 626 627
f 627 626 628
f 628 626 629
f 629 626 630
f 629 630 631
f 631 630 632
f 631 632 633
f 634 635 636
f 636 635 637
f 636 637 638
f 638 637 639
f 638 639 640
f 640 639 641
f 640 641 632
f 632 641 642
f 632 642 633
f 643 644 634
f 634 644 645
f 634 645 635
f 646 647 648
f 648 647 649
f 648 649 643
f 643 649 650
f 643 650 644
f 651 652 646
f 646 652 653
f 646 653 647
f 646 654 651
f 651 654 612
f 651 612 611
f 30 29 610
f 610 655 30
f 30 655 656
f 30 656 38
f 38 656 657
f 38 657 39
f 39 657 658
f 39 658 41
f 41 658 659
f 41 659 42
f 42 659 660
f 42 660 27
f 27 660 661
f 27 661 28
f 28 661 662
f 28 662 9
f 9 662 663
f 9 663 10
f 10 663 664
f 10 664 6
f 6 664 665
f 6 665 7
f 7 665 666
f 7 666 3
f 625 667 626
f 626 667 668
f 626 668 630
f 630 668 669
f 630 669 632
f 632 669 670
f 632 670 640
f 640 670 671
f 640 671 638
f 638 671 672
f 638 672 636
f 636 672 673
f 636 673 634
f 634 673 674
f 634 674 643
f 643 674 675
f 643 675 648
f 648 675 676
f 648 676 646
f 646 676 677
f 646 677 654
f 654 677 678
f 654 678 612
f 612 678 621
f 667 666 668
f 668 666 665
f 668 665 669
f 669 665 664
f 669 664 670
f 670 664 663
f 670 663 671
f 671 663 662
f 671 662 672
f 672 662 661
f 672 661 673
f 673 661 660
f 673 660 674
f 674 660 659
f 674 659 675
f 675 659 658
f 675 658 676
f 676 658 657
f 676 657 677
f 677 657 656
f 677 656 678
f 678 656 655
f 678 655 621
f 621 655 610
f 679 680 19
f 681 682 683
f 683 682 684
f 683 684 685
f 685 684 686
f 685 686 687
f 687 686 688
f 687 688 689
f 690 691 692
f 692 691 693
f 692 693 694
f 694 693 695
f 694 695 688
f 688 695 696
f 688 696 689
f 697 698 690
f 690 698 699
f 690 699 691
f 690 700 697
f 697 700 625
f 697 625 627
f 3 666 1
f 1 666 701
f 1 701 23
f 23 701 24
f 19 56 679
f 679 56 55
f 679 55 702
f 702 55 54
f 702 54 703
f 703 54 36
f 703 36 704
f 704 36 35
f 704 35 705
f 705 35 24
f 705 24 706
f 706 24 701
f 682 707 684
f 684 707 708
f 684 708 686
f 686 708 709
f 686 709 688
f 688 709 710
f 688 710 694
f 694 710 711
f 694 711 692
f 692 711 712
f 692 712 690
f 690 712 713
f 690 713 700
f 700 713 714
f 700 714 625
f 625 714 667
f 707 680 708
f 708 680 679
f 708 679 709
f 709 679 702
f 709 702 710
f 710 702 703
f 710 703 711
f 711 703 704
f 711 704 712
f 712 704 705
f 712 705 713
f 713 705 706
f 713 706 714
f 714 706 701
f 714 701 667
f 667 701 666
f 394 293 477
f 477 293 483
f 477 483 475
f 475 483 486
f 475 486 474
f 474 486 485
f 474 485 472
f 472 485 489
f 472 489 470
f 470 489 488
f 470 488 468
f 468 488 491
f 715 508 467
f 509 508 716
f 716 508 715
f 716 715 717
f 718 719 720
f 720 719 721
f 720 721 717
f 717 721 722
f 717 722 716
f 469 468 723
f 467 466 715
f 715 466 481
f 715 481 717
f 717 481 469
f 717 469 720
f 720 469 723
f 720 723 718
f 718 723 724
f 104 188 725
f 725 188 726
f 725 726 727
f 727 726 728
f 727 728 729
f 730 731 732
f 732 731 733
f 732 733 728
f 728 733 734
f 728 734 729
f 735 736 737
f 737 736 738
f 737 738 739
f 739 738 740
f 739 740 730
f 730 740 741
f 730 741 731
f 735 737 742
f 742 737 743
f 742 743 744
f 744 743 745
f 744 745 746
f 746 745 747
f 747 745 748
f 747 748 749
f 749 748 750
f 749 750 751
f 751 750 752
f 752 750 753
f 752 753 754
f 754 753 682
f 754 682 681
f 21 19 680
f 680 755 21
f 21 755 756
f 21 756 52
f 52 756 757
f 52 757 53
f 53 757 758
f 53 758 15
f 15 758 759
f 15 759 16
f 16 759 760
f 16 760 71
f 71 760 761
f 71 761 72
f 72 761 762
f 72 762 64
f 64 762 763
f 64 763 66
f 66 763 764
f 66 764 68
f 68 764 765
f 68 765 79
f 79 765 189
f 79 189 81
f 188 202 726
f 726 202 766
f 726 766 728
f 728 766 767
f 728 767 732
f 732 767 768
f 732 768 730
f 730 768 769
f 730 769 739
f 739 769 770
f 739 770 737
f 737 770 771
f 737 771 743
f 743 771 772
f 743 772 745
f 745 772 773
f 745 773 748
f 748 773 774
f 748 774 750
f 750 774 775
f 750 775 753
f 753 775 776
f 753 776 682
f 682 776 707
f 202 189 766
f 766 189 765
f 766 765 767
f 767 765 764
f 767 764 768
f 768 764 763
f 768 763 769
f 769 763 762
f 769 762 770
f 770 762 761
f 770 761 771
f 771 761 760
f 771 760 772
f 772 760 759
f 772 759 773
f 773 759 758
f 773 758 774
f 774 758 757
f 774 757 775
f 775 757 756
f 775 756 776
f 776 756 755
f 776 755 707
f 707 755 680
f 777 778 491
f 101 106 777
f 777 106 105
f 777 105 778
f 778 105 103
f 778 103 102
f 777 779 101
f 101 779 780
f 101 780 99
f 495 503 504
f 491 490 777
f 777 490 493
f 777 493 779
f 779 493 495
f 779 495 780
f 780 495 504
f 780 504 99
f 99 504 94
f 505 781 506
f 506 781 782
f 782 783 506
f 506 783 784
f 506 784 507
f 784 785 507
f 507 785 786
f 507 786 515
f 787 516 788
f 788 516 515
f 788 515 789
f 789 515 786
f 541 790 540
f 540 790 539
f 516 787 791
f 516 791 511
f 791 792 511
f 511 792 793
f 511 793 512
f 512 793 794
f 512 794 795
f 541 542 790
f 790 542 543
f 790 543 796
f 796 543 514
f 796 514 797
f 797 514 513
f 797 513 798
f 798 513 512
f 798 512 799
f 799 512 795
f 442 456 538
f 126 209 800
f 790 800 539
f 539 800 209
f 539 209 538
f 538 209 537
f 538 537 442
f 801 802 519
f 519 802 520
f 801 519 803
f 803 519 524
f 803 524 804
f 804 524 523
f 804 523 805
f 805 523 526
f 805 526 800
f 800 526 536
f 800 536 126
f 806 555 807
f 807 555 557
f 807 557 808
f 808 557 559
f 808 559 809
f 809 559 561
f 809 561 810
f 810 561 565
f 810 565 811
f 811 565 564
f 811 564 812
f 812 564 570
f 812 570 813
f 813 570 569
f 813 569 814
f 814 569 567
f 814 567 815
f 815 567 573
f 815 573 816
f 816 573 572
f 816 572 817
f 817 572 578
f 817 578 818
f 818 578 577
f 818 577 819
f 819 577 575
f 819 575 820
f 820 575 581
f 820 581 821
f 821 581 580
f 821 580 822
f 822 580 579
f 822 579 802
f 802 579 520
f 823 602 824
f 824 602 601
f 824 601 825
f 825 601 606
f 825 606 826
f 826 606 603
f 826 603 806
f 806 603 555
f 827 611 828
f 828 611 613
f 828 613 829
f 829 613 615
f 829 615 830
f 830 615 617
f 830 617 831
f 831 617 618
f 831 618 832
f 832 618 620
f 832 620 823
f 823 620 602
f 833 627 834
f 834 627 628
f 834 628 835
f 835 628 629
f 835 629 836
f 836 629 631
f 836 631 837
f 837 631 633
f 837 633 838
f 838 633 642
f 838 642 839
f 839 642 641
f 839 641 840
f 840 641 639
f 840 639 841
f 841 639 637
f 841 637 842
f 842 637 635
f 842 635 843
f 843 635 645
f 843 645 844
f 844 645 644
f 844 644 845
f 845 644 650
f 845 650 846
f 846 650 649
f 846 649 847
f 847 649 647
f 847 647 848
f 848 647 653
f 848 653 849
f 849 653 652
f 849 652 850
f 850 652 651
f 850 651 827
f 827 651 611
f 851 681 852
f 852 681 683
f 852 683 853
f 853 683 685
f 853 685 854
f 854 685 687
f 854 687 855
f 855 687 689
f 855 689 856
f 856 689 696
f 856 696 857
f 857 696 695
f 857 695 858
f 858 695 693
f 858 693 859
f 859 693 691
f 859 691 860
f 860 691 699
f 860 699 861
f 861 699 698
f 861 698 862
f 862 698 697
f 862 697 833
f 833 697 627
f 102 104 725
f 863 864 724
f 681 851 754
f 754 851 865
f 754 865 752
f 752 865 866
f 752 866 751
f 751 866 867
f 751 867 749
f 749 867 868
f 749 868 747
f 747 868 869
f 747 869 746
f 746 869 870
f 746 870 744
f 744 870 871
f 744 871 742
f 742 871 872
f 742 872 735
f 735 872 873
f 735 873 736
f 736 873 874
f 736 874 738
f 738 874 875
f 738 875 740
f 740 875 876
f 740 876 741
f 741 876 877
f 741 877 731
f 731 877 878
f 731 878 733
f 733 878 879
f 733 879 734
f 734 879 880
f 734 880 729
f 729 880 881
f 729 881 727
f 727 881 882
f 727 882 725
f 725 882 863
f 725 863 102
f 102 863 724
f 102 724 778
f 778 724 723
f 778 723 491
f 491 723 468
f 883 884 509
f 509 884 510
f 884 885 510
f 510 885 886
f 510 886 518
f 886 887 518
f 518 887 888
f 518 888 517
f 888 889 517
f 517 889 781
f 517 781 505
f 864 890 721
f 721 719 864
f 864 719 718
f 864 718 724
f 883 509 891
f 891 509 716
f 891 716 890
f 890 716 722
f 890 722 721
f 892 893 894
f 892 894 895
f 895 894 896
f 895 896 897
f 897 896 898
f 897 898 899
f 899 898 900
f 899 900 901
f 901 900 902
f 901 902 903
f 903 902 904
f 903 904 905
f 781 906 782
f 782 906 907
f 782 907 783
f 783 907 908
f 783 908 784
f 784 908 909
f 784 909 785
f 785 909 910
f 785 910 786
f 786 910 789
f 789 910 911
f 789 911 788
f 788 911 912
f 788 912 787
f 893 913 894
f 894 913 914
f 894 914 896
f 896 914 915
f 896 915 898
f 898 915 916
f 898 916 900
f 900 916 917
f 900 917 902
f 902 917 918
f 902 918 904
f 904 918 919
f 913 912 914
f 914 912 911
f 914 911 915
f 915 911 910
f 915 910 916
f 916 910 909
f 916 909 917
f 917 909 908
f 917 908 918
f 918 908 907
f 918 907 919
f 919 907 906
f 912 920 787
f 787 920 791
f 791 920 792
f 792 920 921
f 792 921 793
f 793 921 922
f 793 922 794
f 794 922 795
f 795 922 923
f 795 923 799
f 799 923 924
f 799 924 798
f 925 926 927
f 927 926 928
f 798 924 797
f 797 924 927
f 797 927 796
f 796 927 928
f 796 928 790
f 929 930 931
f 931 932 929
f 929 932 933
f 929 933 934
f 934 933 935
f 934 935 936
f 936 935 937
f 936 937 938
f 938 937 939
f 938 939 940
f 940 939 941
f 940 941 942
f 942 941 893
f 942 893 892
f 912 913 920
f 920 913 943
f 920 943 921
f 921 943 944
f 921 944 922
f 922 944 945
f 922 945 923
f 923 945 946
f 923 946 924
f 924 946 947
f 924 947 927
f 927 947 948
f 927 948 925
f 925 948 949
f 913 893 943
f 943 893 941
f 943 941 944
f 944 941 939
f 944 939 945
f 945 939 937
f 945 937 946
f 946 937 935
f 946 935 947
f 947 935 933
f 947 933 948
f 948 933 932
f 948 932 949
f 949 932 931
f 950 931 951
f 951 931 930
f 951 930 952
f 953 805 800
f 790 928 800
f 800 928 926
f 800 926 953
f 953 926 925
f 953 925 950
f 950 925 949
f 950 949 931
f 804 805 953
f 954 955 956
f 801 803 957
f 802 801 958
f 958 801 957
f 958 957 959
f 959 957 960
f 959 960 961
f 961 960 962
f 961 962 963
f 803 964 957
f 957 964 965
f 957 965 960
f 960 965 954
f 960 954 962
f 962 954 956
f 962 956 963
f 952 955 951
f 951 955 954
f 951 954 950
f 950 954 965
f 950 965 953
f 953 965 964
f 953 964 804
f 804 964 803
f 802 958 966
f 967 820 968
f 968 820 821
f 968 821 966
f 966 821 822
f 966 822 802
f 969 818 967
f 967 818 819
f 967 819 820
f 970 815 971
f 971 815 816
f 971 816 969
f 969 816 817
f 969 817 818
f 972 813 970
f 970 813 814
f 970 814 815
f 973 810 974
f 974 810 811
f 974 811 972
f 972 811 812
f 972 812 813
f 807 808 973
f 973 808 809
f 973 809 810
f 973 975 807
f 807 975 976
f 807 976 806
f 977 978 979
f 979 980 977
f 977 980 981
f 977 981 982
f 982 981 983
f 982 983 984
f 984 983 985
f 984 985 986
f 986 985 987
f 986 987 988
f 988 987 989
f 988 989 990
f 990 989 991
f 990 991 992
f 992 991 993
f 992 993 994
f 994 993 995
f 994 995 996
f 996 995 997
f 996 997 998
f 998 997 961
f 998 961 963
f 979 999 980
f 980 999 1000
f 980 1000 981
f 981 1000 1001
f 981 1001 983
f 983 1001 1002
f 983 1002 985
f 985 1002 1003
f 985 1003 987
f 987 1003 1004
f 987 1004 989
f 989 1004 1005
f 989 1005 991
f 991 1005 1006
f 991 1006 993
f 993 1006 1007
f 993 1007 995
f 995 1007 1008
f 995 1008 997
f 997 1008 1009
f 997 1009 961
f 961 1009 959
f 999 976 1000
f 1000 976 975
f 1000 975 1001
f 1001 975 973
f 1001 973 1002
f 1002 973 974
f 1002 974 1003
f 1003 974 972
f 1003 972 1004
f 1004 972 970
f 1004 970 1005
f 1005 970 971
f 1005 971 1006
f 1006 971 969
f 1006 969 1007
f 1007 969 967
f 1007 967 1008
f 1008 967 968
f 1008 968 1009
f 1009 968 966
f 1009 966 959
f 959 966 958
f 1010 826 806
f 1011 824 825
f 1012 823 824
f 824 1011 1012
f 1012 1011 1013
f 1012 1013 1014
f 1014 1013 1015
f 1014 1015 1016
f 979 978 1017
f 806 976 1010
f 1010 976 999
f 1010 999 1018
f 1018 999 979
f 1018 979 1019
f 1019 979 1017
f 1019 1017 1020
f 1021 1016 1020
f 1020 1016 1015
f 1020 1015 1019
f 1019 1015 1013
f 1019 1013 1018
f 1018 1013 1011
f 1018 1011 1010
f 1010 1011 825
f 1010 825 826
f 1022 1023 1024
f 1022 1024 1025
f 1025 1024 1026
f 1025 1026 1027
f 1027 1026 1028
f 1027 1028 1029
f 1029 1028 1016
f 1029 1016 1021
f 823 1012 832
f 832 1012 1030
f 832 1030 831
f 831 1030 1031
f 831 1031 830
f 830 1031 829
f 829 1031 1032
f 829 1032 828
f 828 1032 1033
f 828 1033 827
f 1012 1014 1030
f 1030 1014 1034
f 1030 1034 1031
f 1031 1034 1035
f 1031 1035 1032
f 1032 1035 1036
f 1032 1036 1033
f 1033 1036 1037
f 1014 1016 1034
f 1034 1016 1028
f 1034 1028 1035
f 1035 1028 1026
f 1035 1026 1036
f 1036 1026 1024
f 1036 1024 1037
f 1037 1024 1023
f 1038 1039 1040
f 1038 1040 1041
f 1041 1040 1042
f 1041 1042 1043
f 1043 1042 1044
f 1043 1044 1045
f 1045 1044 1046
f 1045 1046 1047
f 1047 1046 1048
f 1047 1048 1049
f 1049 1048 1050
f 1049 1050 1051
f 1051 1050 1052
f 1051 1052 1053
f 1053 1052 1054
f 1053 1054 1055
f 1055 1054 1056
f 1055 1056 1057
f 1057 1056 1058
f 1057 1058 1059
f 1059 1058 1060
f 1059 1060 1061
f 1061 1060 1023
f 1061 1023 1022
f 827 1033 850
f 850 1033 1062
f 850 1062 849
f 849 1062 1063
f 849 1063 848
f 848 1063 1064
f 848 1064 847
f 1065 842 1066
f 1066 842 843
f 1066 843 1067
f 1067 843 844
f 1067 844 1068
f 1068 844 845
f 1068 845 1064
f 1064 845 846
f 1064 846 847
f 1069 840 1065
f 1065 840 841
f 1065 841 842
f 1070 837 1071
f 1071 837 838
f 1071 838 1069
f 1069 838 839
f 1069 839 840
f 834 835 1070
f 1070 835 836
f 1070 836 837
f 1070 1072 834
f 834 1072 1073
f 834 1073 833
f 1033 1037 1062
f 1062 1037 1074
f 1062 1074 1063
f 1063 1074 1075
f 1063 1075 1064
f 1064 1075 1076
f 1064 1076 1068
f 1068 1076 1077
f 1068 1077 1067
f 1067 1077 1078
f 1067 1078 1066
f 1066 1078 1079
f 1066 1079 1065
f 1065 1079 1080
f 1065 1080 1069
f 1069 1080 1081
f 1069 1081 1071
f 1071 1081 1082
f 1071 1082 1070
f 1070 1082 1083
f 1070 1083 1072
f 1072 1083 1084
f 1072 1084 1073
f 1073 1084 1085
f 1037 1023 1074
f 1074 1023 1060
f 1074 1060 1075
f 1075 1060 1058
f 1075 1058 1076
f 1076 1058 1056
f 1076 1056 1077
f 1077 1056 1054
f 1077 1054 1078
f 1078 1054 1052
f 1078 1052 1079
f 1079 1052 1050
f 1079 1050 1080
f 1080 1050 1048
f 1080 1048 1081
f 1081 1048 1046
f 1081 1046 1082
f 1082 1046 1044
f 1082 1044 1083
f 1083 1044 1042
f 1083 1042 1084
f 1084 1042 1040
f 1084 1040 1085
f 1085 1040 1039
f 1086 1087 1088
f 1086 1088 1089
f 1089 1088 1090
f 1089 1090 1091
f 1091 1090 1092
f 1091 1092 1093
f 1093 1092 1094
f 1093 1094 1095
f 1095 1094 1096
f 1095 1096 1097
f 1097 1096 1098
f 1097 1098 1099
f 1099 1098 1100
f 1099 1100 1101
f 1101 1100 1039
f 1101 1039 1038
f 833 1073 862
f 862 1073 1102
f 862 1102 861
f 861 1102 1103
f 861 1103 860
f 860 1103 1104
f 860 1104 859
f 1105 855 1106
f 1106 855 856
f 1106 856 1107
f 1107 856 857
f 1107 857 1104
f 1104 857 858
f 1104 858 859
f 852 853 1105
f 1105 853 854
f 1105 854 855
f 1105 1108 852
f 852 1108 1109
f 852 1109 851
f 1073 1085 1102
f 1102 1085 1110
f 1102 1110 1103
f 1103 1110 1111
f 1103 1111 1104
f 1104 1111 1112
f 1104 1112 1107
f 1107 1112 1113
f 1107 1113 1106
f 1106 1113 1114
f 1106 1114 1105
f 1105 1114 1115
f 1105 1115 1108
f 1108 1115 1116
f 1108 1116 1109
f 1109 1116 1117
f 1085 1039 1110
f 1110 1039 1100
f 1110 1100 1111
f 1111 1100 1098
f 1111 1098 1112
f 1112 1098 1096
f 1112 1096 1113
f 1113 1096 1094
f 1113 1094 1114
f 1114 1094 1092
f 1114 1092 1115
f 1115 1092 1090
f 1115 1090 1116
f 1116 1090 1088
f 1116 1088 1117
f 1117 1088 1087
f 1118 1119 1120
f 1118 1120 1121
f 1121 1120 1122
f 1121 1122 1123
f 1123 1122 1124
f 1123 1124 1125
f 1125 1124 1126
f 1125 1126 1127
f 1127 1126 1128
f 1127 1128 1129
f 1129 1128 1130
f 1129 1130 1131
f 1131 1130 1132
f 1131 1132 1133
f 1133 1132 1134
f 1133 1134 1135
f 1135 1134 1136
f 1135 1136 1137
f 1137 1136 1138
f 1137 1138 1139
f 1139 1138 1140
f 1139 1140 1141
f 1141 1140 1087
f 1141 1087 1086
f 851 1109 865
f 865 1109 1142
f 865 1142 866
f 866 1142 1143
f 866 1143 867
f 867 1143 1144
f 867 1144 868
f 868 1144 869
f 869 1144 1145
f 869 1145 870
f 870 1145 871
f 871 1145 1146
f 871 1146 872
f 872 1146 873
f 873 1146 1147
f 873 1147 874
f 874 1147 1148
f 874 1148 875
f 875 1148 876
f 876 1148 1149
f 876 1149 877
f 877 1149 878
f 878 1149 1150
f 878 1150 879
f 879 1150 880
f 880 1150 1151
f 880 1151 881
f 881 1151 1152
f 881 1152 882
f 882 1152 863
f 863 1152 1153
f 863 1153 864
f 1109 1117 1142
f 1142 1117 1154
f 1142 1154 1143
f 1143 1154 1155
f 1143 1155 1144
f 1144 1155 1156
f 1144 1156 1145
f 1145 1156 1157
f 1145 1157 1146
f 1146 1157 1158
f 1146 1158 1147
f 1147 1158 1159
f 1147 1159 1148
f 1148 1159 1160
f 1148 1160 1149
f 1149 1160 1161
f 1149 1161 1150
f 1150 1161 1162
f 1150 1162 1151
f 1151 1162 1163
f 1151 1163 1152
f 1152 1163 1164
f 1152 1164 1153
f 1153 1164 1165
f 1117 1087 1154
f 1154 1087 1140
f 1154 1140 1155
f 1155 1140 1138
f 1155 1138 1156
f 1156 1138 1136
f 1156 1136 1157
f 1157 1136 1134
f 1157 1134 1158
f 1158 1134 1132
f 1158 1132 1159
f 1159 1132 1130
f 1159 1130 1160
f 1160 1130 1128
f 1160 1128 1161
f 1161 1128 1126
f 1161 1126 1162
f 1162 1126 1124
f 1162 1124 1163
f 1163 1124 1122
f 1163 1122 1164
f 1164 1122 1120
f 1164 1120 1165
f 1165 1120 1119
f 1166 1167 1168
f 1168 1167 905
f 1168 905 904
f 1169 1170 1166
f 1166 1170 1171
f 1166 1171 1167
f 1166 1172 1169
f 1169 1172 1173
f 1169 1173 1174
f 1174 1173 1175
f 1174 1175 1176
f 1176 1175 1177
f 1176 1177 1178
f 1178 1177 1119
f 1178 1119 1118
f 890 864 1153
f 883 891 1179
f 1179 891 890
f 1179 890 1180
f 1180 890 1153
f 883 1179 884
f 884 1179 1181
f 884 1181 885
f 885 1181 1182
f 885 1182 886
f 886 1182 887
f 887 1182 1183
f 887 1183 888
f 888 1183 1184
f 888 1184 889
f 889 1184 906
f 889 906 781
f 1153 1165 1180
f 1180 1165 1185
f 1180 1185 1179
f 1179 1185 1186
f 1179 1186 1181
f 1181 1186 1187
f 1181 1187 1182
f 1182 1187 1188
f 1182 1188 1183
f 1183 1188 1189
f 1183 1189 1184
f 1184 1189 1190
f 1184 1190 906
f 906 1190 919
f 1165 1119 1185
f 1185 1119 1177
f 1185 1177 1186
f 1186 1177 1175
f 1186 1175 1187
f 1187 1175 1173
f 1187 1173 1188
f 1188 1173 1172
f 1188 1172 1189
f 1189 1172 1166
f 1189 1166 1190
f 1190 1166 1168
f 1190 1168 919
f 919 1168 904
f 1099 1191 1192
f 1193 1141 1194
f 1194 1141 1086
f 1099 1101 1191
f 1191 1101 1038
f 1191 1038 1195
f 1196 1095 1192
f 1192 1095 1097
f 1192 1097 1099
f 1193 1197 1141
f 1141 1197 1198
f 1141 1198 1139
f 1139 1198 1199
f 1139 1199 1137
f 1137 1199 1200
f 1137 1200 1135
f 1135 1200 1133
f 1123 899 901
f 1201 1202 1025
f 1203 1051 1204
f 1204 1051 1053
f 1204 1053 1205
f 1205 1053 1055
f 1205 1055 1057
f 1086 1089 1194
f 1194 1089 1091
f 1194 1091 1196
f 1196 1091 1093
f 1196 1093 1095
f 1123 901 1121
f 1057 1059 1205
f 1205 1059 1061
f 1205 1061 1202
f 1202 1061 1022
f 1202 1022 1025
f 1206 1047 1203
f 1203 1047 1049
f 1203 1049 1051
f 1038 1041 1195
f 1195 1041 1043
f 1195 1043 1206
f 1206 1043 1045
f 1206 1045 1047
f 899 1123 897
f 897 1123 1125
f 897 1125 895
f 984 986 1207
f 1020 1017 1208
f 1017 978 1208
f 1208 978 977
f 1208 977 1207
f 1207 977 982
f 1207 982 984
f 1025 1027 1201
f 1201 1027 1029
f 1201 1029 1208
f 1208 1029 1021
f 1208 1021 1020
f 1200 1207 1133
f 1133 1207 942
f 1133 942 1131
f 1131 942 892
f 1131 892 1129
f 1129 892 895
f 1129 895 1127
f 1127 895 1125
f 986 988 1207
f 1207 988 990
f 1207 990 992
f 963 956 942
f 942 956 955
f 942 955 952
f 992 994 1207
f 1207 994 996
f 1207 996 942
f 942 996 998
f 942 998 963
f 901 903 1121
f 1121 903 905
f 1121 905 1118
f 1118 905 1167
f 1118 1167 1171
f 1169 1174 1176
f 1171 1170 1118
f 1118 1170 1169
f 1118 1169 1178
f 1178 1169 1176
f 930 929 952
f 952 929 934
f 952 934 936
f 936 938 952
f 952 938 940
f 952 940 942
f 22 51 1199
f 1199 51 1200
f 1200 51 17
f 1200 17 1207
f 1207 17 48
f 1207 48 1208
f 1208 48 32
f 1208 32 1201
f 1201 32 14
f 1201 14 1202
f 1202 14 12
f 1202 12 1205
f 12 31 1205
f 1205 31 40
f 1205 40 1204
f 1204 40 26
f 1204 26 1203
f 1203 26 8
f 1203 8 1206
f 1206 8 5
f 1206 5 1195
f 1195 5 4
f 1195 4 1191
f 1191 4 2
f 1191 2 1192
f 1192 2 25
f 1192 25 1196
f 1196 25 37
f 1196 37 1194
f 1194 37 18
f 1194 18 1193
f 1193 18 20
f 1193 20 1197
f 1197 20 22
f 1197 22 1198
f 1198 22 1199
