# Exported from USD: /mycobot_pro450/mygripper_f100/Geometry/f100_base_link/joint2_left_link/J2_L_Link/J2_L_Link
mtllib J2_L_Link.mtl

g J2_L_Link
v 0.00870261 -0.00209209 0.00350000
v 0.01511165 -0.01368150 0.00350000
v 0.00894917 -0.00015697 0.00350000
v 0.00877063 0.00178561 0.00350000
v 0.00562614 -0.00696124 0.00350000
v 0.01451349 -0.01431447 0.00350000
v 0.00700067 -0.00557699 0.00350000
v 0.00804266 -0.00392783 0.00350000
v 0.06252387 -0.01374037 0.00350000
v 0.06166861 -0.01163624 0.00350000
v 0.06076814 -0.01215569 0.00350000
v 0.05891295 -0.01435118 0.00350000
v 0.05984360 -0.01447529 0.00350000
v 0.05973424 -0.01226398 0.00350000
v 0.06078035 -0.01441194 0.00350000
v 0.06168582 -0.01416366 0.00350000
v 0.01881710 -0.01368284 0.00350000
v 0.05379894 -0.01369553 0.00350000
v 0.05797338 -0.01124650 0.00350000
v 0.05540723 -0.01375992 0.00350000
v 0.05874567 -0.01194238 0.00350000
v 0.05725611 -0.01399335 0.00350000
v 0.05882994 -0.01433071 0.00350000
v 0.06228069 -0.00876176 0.00350000
v 0.06432974 -0.00795769 0.00350000
v 0.06388151 -0.00713270 0.00350000
v 0.05755090 -0.01029667 0.00350000
v 0.05755128 -0.00925711 0.00350000
v 0.00426297 0.00787015 0.00350000
v 0.00245665 0.00860681 0.00350000
v 0.06166996 -0.00792052 0.00350000
v 0.06460504 -0.00885530 0.00350000
v 0.06249646 -0.00977868 0.00350000
v 0.06469646 -0.00977948 0.00350000
v 0.06326107 -0.01315894 0.00350000
v 0.06386799 -0.01244259 0.00350000
v 0.06227995 -0.01079544 0.00350000
v 0.00586680 0.00675965 0.00350000
v 0.00719195 0.00532805 0.00350000
v 0.00817546 0.00364336 0.00350000
v 0.06327824 -0.00641327 0.00350000
v 0.06254401 -0.00582809 0.00350000
v 0.06076986 -0.00740041 0.00350000
v 0.06432042 -0.01161989 0.00350000
v 0.06460029 -0.01072369 0.00350000
v 0.06469645 -0.00978974 0.00350000
v 0.05797445 -0.00830758 0.00350000
v 0.05895232 -0.00519522 0.00350000
v 0.05884796 -0.00513613 0.00350000
v -0.00502052 0.00740990 0.00350000
v -0.01292116 0.01576670 0.00350000
v -0.00650664 0.00614621 0.00350000
v -0.01500906 0.01379396 0.00350000
v -0.00768369 0.00459056 0.00350000
v -0.00141475 0.00883803 0.00350000
v -0.00530847 0.01968160 0.00350000
v -0.00329591 0.00832161 0.00350000
v -0.00802223 0.01874004 0.00350000
v -0.01057670 0.01742638 0.00350000
v 0.05874724 -0.00761226 0.00350000
v 0.05973604 -0.00729137 0.00350000
v 0.05986752 -0.00507954 0.00350000
v 0.05999737 -0.00727777 0.00350000
v 0.06080393 -0.00514766 0.00350000
v 0.06170813 -0.00540054 0.00350000
v 0.01587886 -0.01368178 0.00350000
v 0.01619034 -0.01370889 0.00349878
v -0.01934911 0.00641539 0.00350000
v -0.00849574 0.00281685 0.00350000
v -0.01825526 0.00907142 0.00350000
v -0.01679894 0.01154734 0.00350000
v 0.01745212 -0.01374703 0.00349294
v 0.02055581 0.01090274 0.00350000
v 0.01774576 0.01216942 0.00350000
v 0.01534375 0.01342068 0.00350000
v 0.00053362 0.00893462 0.00350000
v 0.01349881 0.01527506 0.00350000
v 0.01121773 0.01702081 0.00350000
v 0.04008107 0.00700945 0.00350000
v 0.03853990 0.00703330 0.00350000
v 0.03546325 0.00722062 0.00350000
v 0.03240355 0.00759346 0.00350000
v 0.00871390 0.01842860 0.00350000
v 0.00603705 0.01947047 0.00350000
v 0.00324033 0.02012574 0.00350000
v 0.00037928 0.02038140 0.00350000
v -0.00248931 0.02023236 0.00350000
v 0.02937195 0.00815046 0.00350000
v 0.02637953 0.00888958 0.00350000
v 0.02343724 0.00980813 0.00350000
v 0.05792002 -0.00447668 0.00350000
v 0.05726194 -0.00381691 0.00350000
v 0.05068664 0.00386187 0.00350000
v 0.05011743 0.00446759 0.00350000
v 0.04468404 0.00696940 0.00350000
v 0.04385373 0.00700808 0.00350000
v 0.04918737 0.00525498 0.00350000
v 0.04815947 0.00590951 0.00350000
v 0.04588697 0.00677465 0.00350000
v 0.04705257 0.00641918 0.00350000
v 0.01502384 -0.01377787 0.00348409
v 0.01451349 -0.01431447 -0.00350000
v 0.01483462 -0.01398140 -0.00350000
v 0.01483462 -0.01398140 0.00320000
v 0.01484485 -0.01397053 0.00328003
v 0.01487253 -0.01394106 0.00335028
v 0.01491739 -0.01389305 0.00341264
v 0.01492974 -0.01387978 0.00342508
v 0.01159141 0.01676855 0.00300189
v 0.01121773 0.01702081 0.00300189
v 0.00386450 0.02001527 0.00300189
v 0.00324033 0.02012574 0.00300189
v -0.01655836 0.01188975 0.00300189
v -0.01679894 0.01154734 0.00300189
v -0.01312173 0.01560017 -0.00300189
v -0.01292116 0.01576670 -0.00300189
v -0.01292116 0.01576670 -0.00350000
v 0.01468752 0.01413584 -0.00345448
v 0.01534377 0.01342066 -0.00350000
v 0.01349881 0.01527506 -0.00350000
v 0.01397268 0.01484283 -0.00334013
v 0.01159141 0.01676855 -0.00300189
v 0.01180850 0.01661639 -0.00300605
v 0.01121773 0.01702081 -0.00350000
v 0.01250312 0.01610023 -0.00307113
v 0.01322039 0.01551666 -0.00319447
v 0.00801698 0.01874229 -0.00300189
v 0.00871390 0.01842860 -0.00300189
v 0.00871390 0.01842860 -0.00350000
v 0.00985374 0.01784514 -0.00300189
v 0.01121773 0.01702081 -0.00300189
v 0.00609960 0.01945097 -0.00300189
v 0.00603705 0.01947047 -0.00350000
v 0.00412089 0.01996405 -0.00300189
v 0.00324033 0.02012574 -0.00350000
v 0.00324033 0.02012574 -0.00300189
v 0.00037928 0.02038140 -0.00350000
v 0.00037928 0.02038140 -0.00300189
v 0.00210074 0.02027639 -0.00300189
v -0.00248931 0.02023236 -0.00350000
v -0.00198240 0.02028831 -0.00300189
v 0.00005947 0.02038484 -0.00300189
v -0.00598601 0.01948623 -0.00300189
v -0.00530847 0.01968160 -0.00300189
v -0.00530847 0.01968160 -0.00350000
v -0.00400434 0.01998776 -0.00300189
v -0.00248931 0.02023236 -0.00300189
v -0.00790749 0.01878874 -0.00300189
v -0.00802223 0.01874004 -0.00350000
v -0.00974945 0.01790233 -0.00300189
v -0.01057670 0.01742638 -0.00350000
v -0.01057670 0.01742638 -0.00300189
v -0.01149338 0.01683590 -0.00300189
v -0.01461814 0.01420758 -0.00300189
v -0.01500906 0.01379396 -0.00350000
v -0.01500906 0.01379396 -0.00300189
v -0.01596755 0.01267212 -0.00300189
v -0.01679894 0.01154734 -0.00350000
v -0.01679894 0.01154734 -0.00300189
v -0.01825526 0.00907142 -0.00350000
v -0.01817274 0.00923564 -0.00300189
v -0.01715640 0.01100923 -0.00300189
v -0.01825526 0.00907142 0.00300189
v -0.01864894 0.00823179 0.00300189
v -0.01932900 0.00647573 0.00300189
v -0.01934911 0.00641539 -0.00350000
v -0.01913339 0.00703270 0.00000000
v -0.01901213 0.00735419 -0.00174720
v -0.01892830 0.00756736 -0.00291200
v -0.01892173 0.00758377 -0.00300189
v -0.01825526 0.00907142 -0.00300189
v -0.01769841 0.01011493 0.00300189
v -0.01524100 0.01353725 0.00300189
v -0.01500906 0.01379396 0.00300189
v -0.01376044 0.01503980 0.00300189
v -0.01292116 0.01576670 0.00300189
v -0.00850579 0.01852557 0.00300189
v -0.01037471 0.01754739 0.00300189
v -0.01057670 0.01742638 0.00300189
v -0.01213253 0.01638130 0.00300189
v -0.00451570 0.01987847 0.00300189
v -0.00530847 0.01968160 0.00300189
v -0.00654579 0.01930539 0.00300189
v -0.00802223 0.01874004 0.00300189
v -0.00243725 0.02023870 0.00300189
v -0.00033271 0.02038221 0.00300189
v 0.00037928 0.02038140 0.00300189
v 0.00177540 0.02030747 0.00300189
v 0.00591221 0.01950874 0.00300189
v 0.00603705 0.01947047 0.00300189
v 0.00789662 0.01879331 0.00300189
v 0.00871390 0.01842860 0.00300189
v 0.00979647 0.01787665 0.00300189
v 0.01318068 0.01555040 0.00318687
v 0.01234318 0.01622317 0.00304998
v 0.01463740 0.01418774 0.00344809
v 0.01525714 0.01351906 0.00349904
v 0.01394905 0.01486504 0.00333573
v 0.01349870 0.01527515 0.00324872
v 0.01518759 0.01390491 0.00343819
v 0.01289051 0.01598739 0.00284612
v 0.01163307 0.01682882 0.00284612
v 0.01166822 0.01687966 0.00250000
v 0.01292411 0.01603928 0.00250000
v 0.01532144 0.01458083 0.00250000
v 0.01547878 0.01442043 0.00284612
v 0.01550918 0.01447425 0.00250000
v 0.01815698 0.01301269 0.00284612
v 0.02091533 0.01176931 0.00284612
v 0.01915931 0.01260564 0.00250000
v 0.01818407 0.01306824 0.00250000
v 0.02727344 0.00968253 0.00250000
v 0.02664855 0.00985272 0.00250000
v 0.02663193 0.00979319 0.00284612
v 0.02376395 0.01075325 0.00250000
v 0.02374376 0.01069483 0.00284612
v 0.02315323 0.01096880 0.00250000
v 0.02093902 0.01182640 0.00250000
v 0.02958229 0.00912809 0.00250000
v 0.02956929 0.00906766 0.00284612
v 0.03148923 0.00875640 0.00250000
v 0.03254512 0.00852091 0.00284612
v 0.03255445 0.00858201 0.00250000
v 0.03554855 0.00815493 0.00284612
v 0.03555416 0.00821648 0.00250000
v 0.03856859 0.00797105 0.00284612
v 0.03857049 0.00803283 0.00250000
v 0.03576919 0.00819732 0.00250000
v 0.04008143 0.00800945 0.00250000
v 0.04008140 0.00794764 0.00284612
v 0.04008138 0.00787547 0.00300000
v 0.04008132 0.00771656 0.00320711
v 0.04008119 0.00735557 0.00343819
v 0.01789747 0.01248052 0.00343819
v 0.02068844 0.01122243 0.00343819
v 0.02355032 0.01013525 0.00343819
v 0.02647265 0.00922294 0.00343819
v 0.02944475 0.00848883 0.00343819
v 0.03245578 0.00793562 0.00343819
v 0.03549472 0.00756531 0.00343819
v 0.03855049 0.00737925 0.00343819
v 0.01536513 0.01421923 0.00320711
v 0.04008125 0.00750945 0.00336603
v 0.03856153 0.00774008 0.00320711
v 0.03552754 0.00792480 0.00320711
v 0.03251025 0.00829247 0.00320711
v 0.02952068 0.00884175 0.00320711
v 0.02656976 0.00957062 0.00320711
v 0.02366826 0.01047643 0.00320711
v 0.02082678 0.01155587 0.00320711
v 0.01805569 0.01280499 0.00320711
v 0.04008143 0.00800945 -0.00250000
v 0.03857049 0.00803283 -0.00250000
v 0.03576919 0.00819732 -0.00250000
v 0.03555416 0.00821648 -0.00250000
v 0.03255445 0.00858201 -0.00250000
v 0.03148923 0.00875640 -0.00250000
v 0.02958229 0.00912809 -0.00250000
v 0.02727344 0.00968253 -0.00250000
v 0.02664855 0.00985272 -0.00250000
v 0.02376395 0.01075325 -0.00250000
v 0.02315323 0.01096880 -0.00250000
v 0.02093902 0.01182640 -0.00250000
v 0.01915931 0.01260564 -0.00250000
v 0.01818407 0.01306824 -0.00250000
v 0.01550918 0.01447425 -0.00250000
v 0.01532144 0.01458083 -0.00250000
v 0.01292411 0.01603928 -0.00250000
v 0.01166822 0.01687966 -0.00250000
v -0.01937591 0.00657945 0.00283413
v -0.01939938 0.00668146 0.00256709
v -0.01939670 0.00669614 0.00250007
v -0.01900662 0.00773425 0.00250006
v -0.01874108 0.00827246 0.00275988
v -0.01842194 0.00903895 0.00250006
v -0.01835052 0.00918307 0.00250006
v -0.01778585 0.01016490 0.00275988
v -0.01774782 0.01029977 0.00250006
v -0.01698754 0.01151059 0.00250005
v -0.01664017 0.01194849 0.00275988
v -0.01685875 0.01169841 0.00250005
v -0.01531630 0.01360413 0.00275988
v -0.01614480 0.01266554 0.00250005
v -0.01666807 0.01196853 0.00250005
v -0.01422866 0.01478565 0.00250004
v -0.01502457 0.01397614 0.00250004
v -0.01522368 0.01375899 0.00250005
v -0.01203656 0.01661901 0.00250003
v -0.01288523 0.01597001 0.00250004
v -0.01219247 0.01646223 0.00275988
v -0.01316456 0.01574054 0.00250004
v -0.01382842 0.01511410 0.00275988
v -0.01385162 0.01513945 0.00250004
v -0.01085012 0.01741681 0.00250003
v -0.01042596 0.01763408 0.00275988
v -0.01048418 0.01763951 0.00250003
v -0.00854781 0.01861710 0.00275988
v -0.00961101 0.01813005 0.00250003
v -0.01044345 0.01766365 0.00250003
v -0.00699906 0.01928946 0.00250002
v -0.00787018 0.01895074 0.00250002
v -0.00832525 0.01875528 0.00250002
v -0.00425137 0.02007476 0.00250001
v -0.00509634 0.01987706 0.00250001
v -0.00453801 0.01997668 0.00275988
v -0.00563890 0.01973000 0.00250002
v -0.00657813 0.01940076 0.00275988
v -0.00658916 0.01943330 0.00250002
v -0.00284320 0.02032207 0.00250001
v -0.00244929 0.02033869 0.00275988
v -0.00245340 0.02037280 0.00250001
v -0.00033435 0.02048291 0.00275988
v -0.00142122 0.02047072 0.00250000
v -0.00221898 0.02039967 0.00250001
v 0.00178417 0.02040780 0.00275988
v 0.00070344 0.02050794 0.00250000
v 0.00000744 0.02052000 0.00250000
v 0.00388359 0.02011415 0.00275988
v 0.00361158 0.02019967 0.00250000
v 0.00178717 0.02044202 0.00250000
v 0.00794894 0.01891784 0.00250000
v 0.00644636 0.01948114 0.00250000
v 0.00594142 0.01960513 0.00275988
v 0.00595139 0.01963801 0.00250000
v 0.00389010 0.02014789 0.00250000
v 0.00793563 0.01888616 0.00275988
v 0.00984487 0.01796497 0.00275988
v 0.00915022 0.01836692 0.00250000
v 0.00986138 0.01799510 0.00250000
v 0.00070344 0.02050794 -0.00250002
v -0.01642844 0.01229540 -0.00250006
v -0.01685875 0.01169841 -0.00250006
v -0.01905127 0.00762362 -0.00250007
v -0.01910613 0.00748505 -0.00174720
v -0.01922958 0.00716196 0.00000000
v -0.01862258 0.00861800 -0.00250007
v -0.01835052 0.00918307 -0.00250006
v -0.01797729 0.00989382 -0.00250006
v -0.01724472 0.01112160 -0.00250006
v -0.01607335 0.01275608 -0.00250006
v -0.01553241 0.01340950 -0.00250006
v -0.01502457 0.01397614 -0.00250005
v -0.01456097 0.01445851 -0.00250005
v -0.01351885 0.01543733 -0.00250005
v -0.01320868 0.01570354 -0.00250005
v -0.01288523 0.01597001 -0.00250005
v -0.01241109 0.01634121 -0.00250005
v -0.01124309 0.01716576 -0.00250004
v -0.01048418 0.01763951 -0.00250004
v -0.01002051 0.01790697 -0.00250004
v -0.00981405 0.01802095 -0.00250004
v -0.00874928 0.01856126 -0.00250004
v -0.00787018 0.01895074 -0.00250004
v -0.00743558 0.01912544 -0.00250004
v -0.00608579 0.01959677 -0.00250003
v -0.00509634 0.01987706 -0.00250003
v -0.00470645 0.01997297 -0.00250003
v -0.00403087 0.02012020 -0.00250003
v -0.00330426 0.02025221 -0.00250003
v -0.00221898 0.02039967 -0.00250003
v -0.00188603 0.02043314 -0.00250003
v -0.00045864 0.02051487 -0.00250002
v 0.00005986 0.02051991 -0.00250002
v 0.00644636 0.01948114 -0.00250001
v 0.00520391 0.01984917 -0.00250001
v 0.00414820 0.02009634 -0.00250002
v 0.00380913 0.02016335 -0.00250002
v 0.00361158 0.02019967 -0.00250002
v 0.00239587 0.02037965 -0.00250002
v 0.00097097 0.02049701 -0.00250002
v 0.00915022 0.01836692 -0.00250001
v 0.00807010 0.01886647 -0.00250001
v 0.00791102 0.01893373 -0.00250001
v 0.00657342 0.01943863 -0.00250001
v 0.01046471 0.01765107 -0.00250000
v 0.00921022 0.01833691 -0.00250001
v 0.01999504 -0.01368327 -0.00350000
v 0.01999499 -0.01383327 -0.00345981
v 0.01999493 -0.01398327 -0.00350000
v 0.01999495 -0.01394308 -0.00335000
v 0.01999493 -0.01398327 -0.00320000
v 0.01536513 0.01421923 -0.00320711
v 0.01164892 0.01685174 -0.00275835
v 0.01518759 0.01390491 -0.00343819
v 0.01789747 0.01248052 -0.00343819
v 0.01774576 0.01216942 -0.00350000
v 0.02068844 0.01122243 -0.00343819
v 0.02055581 0.01090274 -0.00350000
v 0.02355032 0.01013525 -0.00343819
v 0.02343724 0.00980813 -0.00350000
v 0.02647265 0.00922294 -0.00343819
v 0.02637953 0.00888958 -0.00350000
v 0.02944475 0.00848883 -0.00343819
v 0.02937195 0.00815046 -0.00350000
v 0.03245578 0.00793562 -0.00343819
v 0.03240355 0.00759346 -0.00350000
v 0.03549472 0.00756531 -0.00343819
v 0.03546325 0.00722062 -0.00350000
v 0.03855049 0.00737925 -0.00343819
v 0.03853990 0.00703330 -0.00350000
v 0.04008119 0.00735557 -0.00343819
v 0.04008107 0.00700945 -0.00350000
v 0.04008140 0.00794764 -0.00284612
v 0.03856859 0.00797105 -0.00284612
v 0.03554855 0.00815493 -0.00284612
v 0.03254512 0.00852091 -0.00284612
v 0.02956929 0.00906766 -0.00284612
v 0.02663193 0.00979319 -0.00284612
v 0.02374376 0.01069483 -0.00284612
v 0.01547878 0.01442043 -0.00284612
v 0.01815698 0.01301269 -0.00284612
v 0.02091533 0.01176931 -0.00284612
v 0.01289051 0.01598739 -0.00284612
v 0.01805569 0.01280499 -0.00320711
v 0.02082678 0.01155587 -0.00320711
v 0.02366826 0.01047643 -0.00320711
v 0.02656976 0.00957062 -0.00320711
v 0.02952068 0.00884175 -0.00320711
v 0.03251025 0.00829247 -0.00320711
v 0.03552754 0.00792480 -0.00320711
v 0.03856153 0.00774008 -0.00320711
v 0.04008132 0.00771656 -0.00320711
v 0.00805675 0.01883526 -0.00275835
v 0.00990262 0.01793366 -0.00275835
v 0.00612986 0.01954746 -0.00275835
v 0.00414133 0.02006309 -0.00275835
v 0.00211116 0.02037698 -0.00275835
v 0.00005976 0.02048596 -0.00275835
v -0.00199224 0.02038895 -0.00275835
v -0.00402420 0.02008691 -0.00275835
v -0.00601570 0.01958289 -0.00275835
v -0.00794671 0.01888195 -0.00275835
v -0.00979781 0.01799114 -0.00275835
v -0.01155039 0.01691942 -0.00275835
v -0.01318682 0.01567756 -0.00275835
v -0.01469066 0.01427806 -0.00275835
v -0.01604676 0.01273498 -0.00275835
v -0.01724151 0.01106384 -0.00275835
v -0.01826288 0.00928145 -0.00275835
v -0.01900370 0.00763594 -0.00277851
v -0.01918172 0.00709716 0.00000000
v -0.01922958 0.00716196 0.00000000
v -0.01905937 0.00741945 -0.00174720
v -0.01913339 0.00703270 0.00000000
v 0.05379884 -0.01399553 -0.00320000
v 0.05379884 -0.01399553 0.00320000
v 0.00562614 -0.00696124 -0.00350000
v 0.00700067 -0.00557699 -0.00350000
v 0.00804266 -0.00392783 -0.00350000
v 0.00870261 -0.00209209 -0.00350000
v -0.00650664 0.00614621 -0.00350000
v -0.00768369 0.00459056 -0.00350000
v 0.05895232 -0.00519522 -0.00350000
v 0.05986752 -0.00507954 -0.00350000
v 0.05973604 -0.00729137 -0.00350000
v 0.06080393 -0.00514765 -0.00350000
v 0.06076986 -0.00740041 -0.00350000
v -0.00849574 0.00281685 -0.00350000
v 0.00894917 -0.00015697 -0.00350000
v 0.06388151 -0.00713270 -0.00350000
v 0.06228069 -0.00876176 -0.00350000
v 0.06166996 -0.00792052 -0.00350000
v 0.06170813 -0.00540054 -0.00350000
v 0.06254401 -0.00582809 -0.00350000
v 0.06327824 -0.00641327 -0.00350000
v 0.05726194 -0.00381691 -0.00350000
v 0.05792002 -0.00447668 -0.00350000
v 0.05755128 -0.00925711 -0.00350000
v 0.05884796 -0.00513613 -0.00350000
v 0.05797445 -0.00830758 -0.00350000
v 0.05874724 -0.00761226 -0.00350000
v 0.05755090 -0.01029667 -0.00350000
v 0.05797338 -0.01124650 -0.00350000
v 0.05379894 -0.01369553 -0.00350000
v 0.00426297 0.00787015 -0.00350000
v 0.00586680 0.00675965 -0.00350000
v 0.00719195 0.00532805 -0.00350000
v 0.00817546 0.00364336 -0.00350000
v 0.00877063 0.00178561 -0.00350000
v 0.06166861 -0.01163624 -0.00350000
v 0.06227995 -0.01079544 -0.00350000
v 0.06386799 -0.01244259 -0.00350000
v 0.06432974 -0.00795769 -0.00350000
v 0.06460504 -0.00885530 -0.00350000
v 0.06249646 -0.00977868 -0.00350000
v 0.06469645 -0.00978974 -0.00350000
v 0.06460029 -0.01072369 -0.00350000
v 0.06432042 -0.01161989 -0.00350000
v 0.00053362 0.00893462 -0.00350000
v 0.00245665 0.00860681 -0.00350000
v 0.04385373 0.00700808 -0.00350000
v 0.05068664 0.00386187 -0.00350000
v 0.06326107 -0.01315894 -0.00350000
v 0.06252387 -0.01374037 -0.00350000
v 0.06076814 -0.01215569 -0.00350000
v -0.00329591 0.00832161 -0.00350000
v -0.00141475 0.00883803 -0.00350000
v -0.00502052 0.00740990 -0.00350000
v 0.05973424 -0.01226398 -0.00350000
v 0.05882994 -0.01433071 -0.00350000
v 0.05874567 -0.01194238 -0.00350000
v 0.05725611 -0.01399335 -0.00350000
v 0.05540723 -0.01375992 -0.00350000
v 0.06168582 -0.01416366 -0.00350000
v 0.06078035 -0.01441194 -0.00350000
v 0.05999555 -0.01227777 -0.00350000
v 0.05984360 -0.01447529 -0.00350000
v 0.05891295 -0.01435118 -0.00350000
v 0.05011743 0.00446759 -0.00350000
v 0.04468404 0.00696940 -0.00350000
v 0.04918737 0.00525498 -0.00350000
v 0.04815947 0.00590951 -0.00350000
v 0.04588697 0.00677465 -0.00350000
v 0.04705257 0.00641918 -0.00350000
v 0.06039252 -0.00479355 0.00284544
v 0.06019394 -0.00472819 0.00284612
v 0.06032898 -0.00478886 0.00288281
v 0.05972997 -0.00478488 0.00320000
v 0.05943130 -0.00484968 0.00334898
v 0.05920237 -0.00452425 0.00320711
v 0.05929795 -0.00491586 0.00341243
v 0.05902144 -0.00483663 0.00343819
v 0.05909309 -0.00506525 0.00348343
v 0.05814582 -0.00421436 0.00343819
v 0.05752485 -0.00359179 0.00343819
v 0.05764173 -0.00349170 0.00336603
v 0.05779905 -0.00335700 0.00320711
v 0.05838132 -0.00394076 0.00320711
v 0.05791976 -0.00325363 0.00300000
v 0.05853207 -0.00376563 0.00284612
v 0.05797457 -0.00320669 0.00284612
v 0.05802152 -0.00316649 0.00250000
v 0.05857239 -0.00371878 0.00250000
v 0.05886049 -0.00394929 0.00250000
v 0.05934917 -0.00427081 0.00250000
v 0.06094736 -0.00486903 0.00250000
v 0.06021451 -0.00466990 0.00250000
v 0.05985225 -0.00452639 0.00250000
v 0.05931819 -0.00432429 0.00284612
v 0.05144621 0.00451229 0.00250000
v 0.05139926 0.00447209 0.00284612
v 0.05134445 0.00442515 0.00300000
v 0.05122374 0.00432178 0.00320711
v 0.05106642 0.00418708 0.00336603
v 0.05094954 0.00408699 0.00343819
v 0.04385405 0.00787411 0.00300000
v 0.04385399 0.00771519 0.00320711
v 0.04474953 0.00767346 0.00320711
v 0.04385391 0.00750808 0.00336603
v 0.04385386 0.00735420 0.00343819
v 0.04471609 0.00731403 0.00343819
v 0.05060981 0.00497510 0.00320711
v 0.05077072 0.00514095 0.00284612
v 0.05035844 0.00471600 0.00343819
v 0.04939261 0.00553367 0.00343819
v 0.04832518 0.00621337 0.00343819
v 0.04717572 0.00674265 0.00343819
v 0.04596529 0.00711179 0.00343819
v 0.04385410 0.00800808 0.00250000
v 0.04385407 0.00794627 0.00284612
v 0.04477666 0.00796510 0.00250000
v 0.04477093 0.00790356 0.00284612
v 0.04557010 0.00785912 0.00250000
v 0.04609927 0.00768850 0.00284612
v 0.04611325 0.00774871 0.00250000
v 0.04723508 0.00741789 0.00250000
v 0.04738637 0.00729598 0.00284612
v 0.04740836 0.00735374 0.00250000
v 0.04860866 0.00673318 0.00284612
v 0.04863825 0.00678744 0.00250000
v 0.04879965 0.00669748 0.00250000
v 0.04974371 0.00601042 0.00284612
v 0.04978036 0.00606019 0.00250000
v 0.05081376 0.00518531 0.00250000
v 0.05021738 0.00571927 0.00250000
v 0.04604698 0.00746341 0.00320711
v 0.04730416 0.00708002 0.00320711
v 0.04849802 0.00653030 0.00320711
v 0.04960668 0.00582435 0.00320711
v 0.05379884 -0.01397698 0.00330384
v 0.05379887 -0.01390766 0.00341213
v 0.05379891 -0.01379936 0.00348146
v 0.05538483 -0.01404049 0.00330384
v 0.05539035 -0.01397138 0.00341213
v 0.05539897 -0.01386343 0.00348146
v 0.05723839 -0.01409566 0.00348146
v 0.05880417 -0.01443130 0.00348146
v 0.05721991 -0.01420237 0.00341213
v 0.05877729 -0.01453620 0.00341213
v 0.05720808 -0.01427068 0.00330384
v 0.05876008 -0.01460336 0.00330384
v 0.05720491 -0.01428895 0.00320000
v 0.05875548 -0.01462132 0.00320000
v 0.05538336 -0.01405897 0.00320000
v 0.05629678 -0.01415304 0.00320000
v 0.06479821 -0.00978999 0.00348221
v 0.06470484 -0.00883533 0.00348221
v 0.06442357 -0.00791827 0.00348221
v 0.06396563 -0.00707542 0.00348221
v 0.06334931 -0.00634041 0.00348221
v 0.06259918 -0.00574257 0.00348221
v 0.06174519 -0.00530575 0.00348221
v 0.06082142 -0.00504739 0.00348221
v 0.05986473 -0.00497780 0.00348221
v 0.05985929 -0.00477965 0.00320000
v 0.05985980 -0.00479841 0.00330443
v 0.06085225 -0.00487060 0.00330443
v 0.06085547 -0.00485212 0.00320000
v 0.06166062 -0.00506284 0.00320000
v 0.06181055 -0.00513861 0.00330443
v 0.06181738 -0.00512114 0.00320000
v 0.06269646 -0.00559175 0.00330443
v 0.06270663 -0.00557599 0.00320000
v 0.06469064 -0.00805597 0.00320000
v 0.06460633 -0.00784151 0.00320000
v 0.06458903 -0.00784878 0.00330443
v 0.06412949 -0.00696386 0.00320000
v 0.06411398 -0.00697442 0.00330443
v 0.06399235 -0.00677230 0.00320000
v 0.06347462 -0.00621194 0.00330443
v 0.06348771 -0.00619851 0.00320000
v 0.06295274 -0.00574536 0.00320000
v 0.06489921 -0.00879642 0.00320000
v 0.06488081 -0.00880011 0.00330443
v 0.06498798 -0.00948671 0.00320000
v 0.06497768 -0.00979045 0.00330443
v 0.06499644 -0.00979050 0.00320000
v 0.06487577 -0.01078029 0.00330443
v 0.06489415 -0.01078407 0.00320000
v 0.06340139 -0.01343925 0.00320000
v 0.06346945 -0.01337476 0.00320000
v 0.06345642 -0.01336126 0.00330443
v 0.06411511 -0.01261268 0.00320000
v 0.06409965 -0.01260205 0.00330443
v 0.06431460 -0.01229843 0.00320000
v 0.06457915 -0.01173012 0.00330443
v 0.06459641 -0.01173748 0.00320000
v 0.06485895 -0.01094230 0.00320000
v 0.06268520 -0.01399330 0.00320000
v 0.06267510 -0.01397748 0.00330443
v 0.06219735 -0.01426732 0.00320000
v 0.06178691 -0.01442611 0.00330443
v 0.06179365 -0.01444362 0.00320000
v 0.06082726 -0.01468924 0.00330443
v 0.06083039 -0.01470774 0.00320000
v 0.06080532 -0.01471191 0.00320000
v 0.05983446 -0.01475637 0.00330443
v 0.05983385 -0.01477513 0.00320000
v 0.05884812 -0.01462484 0.00330443
v 0.05884379 -0.01464309 0.00320000
v 0.06469999 -0.01074417 0.00348221
v 0.06441405 -0.01165978 0.00348221
v 0.06395183 -0.01250029 0.00348221
v 0.06333177 -0.01323216 0.00348221
v 0.06257860 -0.01382618 0.00348221
v 0.06172240 -0.01425864 0.00348221
v 0.06079733 -0.01451229 0.00348221
v 0.05984029 -0.01457701 0.00348221
v 0.05888949 -0.01445021 0.00348221
v 0.05986172 -0.00486849 0.00341313
v 0.06084020 -0.00493966 0.00341313
v 0.06178502 -0.00520391 0.00341313
v 0.06265846 -0.00565067 0.00341313
v 0.06342567 -0.00626213 0.00341313
v 0.06405603 -0.00701388 0.00341313
v 0.06452440 -0.00787593 0.00341313
v 0.06481206 -0.00881387 0.00341313
v 0.06490757 -0.00979027 0.00341313
v 0.06480709 -0.01076618 0.00341313
v 0.06451465 -0.01170264 0.00341313
v 0.06404190 -0.01256230 0.00341313
v 0.06340772 -0.01331083 0.00341313
v 0.06263740 -0.01391837 0.00341313
v 0.06176171 -0.01436068 0.00341313
v 0.06081557 -0.01462011 0.00341313
v 0.05983673 -0.01468630 0.00341313
v 0.05886428 -0.01455662 0.00341313
v 0.06094736 -0.00486903 -0.00250000
v 0.06021451 -0.00466990 -0.00250000
v 0.05985225 -0.00452639 -0.00250000
v 0.05934917 -0.00427081 -0.00250000
v 0.05886049 -0.00394929 -0.00250000
v 0.05857239 -0.00371878 -0.00250000
v 0.05802152 -0.00316649 -0.00250000
v 0.05144621 0.00451229 -0.00250000
v 0.04385410 0.00800808 -0.00250000
v 0.04477666 0.00796510 -0.00250000
v 0.04557010 0.00785912 -0.00250000
v 0.04611325 0.00774871 -0.00250000
v 0.04723508 0.00741789 -0.00250000
v 0.04740836 0.00735374 -0.00250000
v 0.04863825 0.00678744 -0.00250000
v 0.04879965 0.00669748 -0.00250000
v 0.04978036 0.00606019 -0.00250000
v 0.05021738 0.00571927 -0.00250000
v 0.05081376 0.00518531 -0.00250000
v 0.05538336 -0.01405897 -0.00320000
v 0.05629678 -0.01415304 -0.00320000
v 0.05720491 -0.01428895 -0.00320000
v 0.05875548 -0.01462132 -0.00320000
v 0.05884379 -0.01464309 -0.00320000
v 0.06166062 -0.00506284 -0.00320000
v 0.06085547 -0.00485212 -0.00320000
v 0.06036403 -0.00479135 -0.00286226
v 0.05985929 -0.00477965 -0.00320000
v 0.05972997 -0.00478488 -0.00320000
v 0.06181738 -0.00512114 -0.00320000
v 0.06270662 -0.00557599 -0.00320000
v 0.06295274 -0.00574536 -0.00320000
v 0.06348772 -0.00619851 -0.00320000
v 0.06399235 -0.00677230 -0.00320000
v 0.06412949 -0.00696386 -0.00320000
v 0.06460633 -0.00784151 -0.00320000
v 0.06469064 -0.00805597 -0.00320000
v 0.06489921 -0.00879642 -0.00320000
v 0.06498798 -0.00948671 -0.00320000
v 0.06499644 -0.00979050 -0.00320000
v 0.06489415 -0.01078407 -0.00320000
v 0.06485895 -0.01094230 -0.00320000
v 0.06459641 -0.01173748 -0.00320000
v 0.06431460 -0.01229843 -0.00320000
v 0.06411511 -0.01261268 -0.00320000
v 0.06346945 -0.01337476 -0.00320000
v 0.06340139 -0.01343925 -0.00320000
v 0.06268520 -0.01399330 -0.00320000
v 0.06219735 -0.01426732 -0.00320000
v 0.06179365 -0.01444362 -0.00320000
v 0.06083039 -0.01470774 -0.00320000
v 0.06080532 -0.01471191 -0.00320000
v 0.05983385 -0.01477513 -0.00320000
v 0.05934419 -0.01473504 -0.00320000
v 0.06019394 -0.00472819 -0.00284612
v 0.05931819 -0.00432429 -0.00284612
v 0.05853207 -0.00376563 -0.00284612
v 0.05797457 -0.00320669 -0.00284612
v 0.05791976 -0.00325363 -0.00300000
v 0.05779905 -0.00335700 -0.00320711
v 0.05752485 -0.00359179 -0.00343819
v 0.05955221 -0.00481066 -0.00328756
v 0.05931558 -0.00490558 -0.00340446
v 0.05902144 -0.00483663 -0.00343819
v 0.05915950 -0.00501104 -0.00346552
v 0.05814582 -0.00421436 -0.00343819
v 0.05764173 -0.00349170 -0.00336603
v 0.05838132 -0.00394076 -0.00320711
v 0.05920237 -0.00452425 -0.00320711
v 0.05139926 0.00447209 -0.00284612
v 0.05134445 0.00442515 -0.00300000
v 0.05122374 0.00432178 -0.00320711
v 0.05106642 0.00418708 -0.00336603
v 0.05094954 0.00408699 -0.00343819
v 0.05060981 0.00497510 -0.00320711
v 0.05035844 0.00471600 -0.00343819
v 0.05077072 0.00514095 -0.00284612
v 0.04974371 0.00601042 -0.00284612
v 0.04738637 0.00729598 -0.00284612
v 0.04860866 0.00673318 -0.00284612
v 0.04609927 0.00768850 -0.00284612
v 0.04477093 0.00790356 -0.00284612
v 0.04385407 0.00794627 -0.00284612
v 0.04385386 0.00735420 -0.00343819
v 0.04939261 0.00553367 -0.00343819
v 0.04832518 0.00621337 -0.00343819
v 0.04717572 0.00674265 -0.00343819
v 0.04596529 0.00711179 -0.00343819
v 0.04471609 0.00731403 -0.00343819
v 0.04960668 0.00582435 -0.00320711
v 0.04849802 0.00653030 -0.00320711
v 0.04730416 0.00708002 -0.00320711
v 0.04604698 0.00746341 -0.00320711
v 0.04474953 0.00767346 -0.00320711
v 0.04385399 0.00771519 -0.00320711
v 0.05876008 -0.01460336 -0.00330384
v 0.05884806 -0.01462505 -0.00330384
v 0.05983445 -0.01475659 -0.00330384
v 0.06178699 -0.01442631 -0.00330384
v 0.06082730 -0.01468945 -0.00330384
v 0.06267523 -0.01397767 -0.00330384
v 0.06409983 -0.01260217 -0.00330384
v 0.06345657 -0.01336142 -0.00330384
v 0.06457935 -0.01173021 -0.00330384
v 0.06497791 -0.00979045 -0.00330384
v 0.06487599 -0.01078033 -0.00330384
v 0.06488103 -0.00880006 -0.00330384
v 0.06458923 -0.00784869 -0.00330384
v 0.06411416 -0.00697430 -0.00330384
v 0.06181063 -0.00513841 -0.00330384
v 0.06269657 -0.00559157 -0.00330384
v 0.06347477 -0.00621178 -0.00330384
v 0.06085229 -0.00487038 -0.00330384
v 0.05985979 -0.00479819 -0.00330384
v 0.05986467 -0.00497575 -0.00348146
v 0.06082177 -0.00504536 -0.00348146
v 0.06174594 -0.00530383 -0.00348146
v 0.06260029 -0.00574083 -0.00348146
v 0.06335074 -0.00633893 -0.00348146
v 0.06396733 -0.00707426 -0.00348146
v 0.06442547 -0.00791747 -0.00348146
v 0.06470686 -0.00883492 -0.00348146
v 0.06480028 -0.00979000 -0.00348146
v 0.06470200 -0.01074459 -0.00348146
v 0.06441594 -0.01166059 -0.00348146
v 0.06395352 -0.01250146 -0.00348146
v 0.06333319 -0.01323364 -0.00348146
v 0.06257971 -0.01382791 -0.00348146
v 0.06172314 -0.01426056 -0.00348146
v 0.06079767 -0.01451432 -0.00348146
v 0.05984022 -0.01457907 -0.00348146
v 0.05888901 -0.01445221 -0.00348146
v 0.05880417 -0.01443130 -0.00348146
v 0.05877729 -0.01453620 -0.00341213
v 0.05886405 -0.01455759 -0.00341213
v 0.05983670 -0.01468731 -0.00341213
v 0.06081573 -0.01462110 -0.00341213
v 0.06176207 -0.01436162 -0.00341213
v 0.06263795 -0.01391922 -0.00341213
v 0.06340842 -0.01331155 -0.00341213
v 0.06404273 -0.01256286 -0.00341213
v 0.06451558 -0.01170304 -0.00341213
v 0.06480808 -0.01076638 -0.00341213
v 0.06490857 -0.00979027 -0.00341213
v 0.06481305 -0.00881367 -0.00341213
v 0.06452532 -0.00787554 -0.00341213
v 0.06405685 -0.00701331 -0.00341213
v 0.06342636 -0.00626141 -0.00341213
v 0.06265900 -0.00564983 -0.00341213
v 0.06178538 -0.00520297 -0.00341213
v 0.06084038 -0.00493868 -0.00341213
v 0.05986169 -0.00486749 -0.00341213
v 0.05379884 -0.01397698 -0.00330384
v 0.05379885 -0.01395533 -0.00335000
v 0.05539035 -0.01397138 -0.00341213
v 0.05379887 -0.01390766 -0.00341213
v 0.05539897 -0.01386343 -0.00348146
v 0.05379889 -0.01384553 -0.00345981
v 0.05379891 -0.01379936 -0.00348146
v 0.05538483 -0.01404049 -0.00330384
v 0.05720808 -0.01427068 -0.00330384
v 0.05721991 -0.01420237 -0.00341213
v 0.05723839 -0.01409566 -0.00348146
usemtl material_2
f 1 2 3
f 3 2 4
f 5 6 7
f 7 6 2
f 7 2 8
f 8 2 1
f 9 10 11
f 12 13 14
f 14 13 15
f 14 15 11
f 11 15 16
f 11 16 9
f 17 18 19
f 19 18 20
f 19 20 21
f 21 20 22
f 21 22 14
f 14 22 23
f 14 23 12
f 24 25 26
f 27 28 29
f 29 28 30
f 24 26 31
f 25 24 32
f 32 24 33
f 32 33 34
f 9 35 10
f 10 35 36
f 10 36 37
f 29 38 27
f 27 38 39
f 27 39 40
f 26 41 31
f 31 41 42
f 31 42 43
f 36 44 37
f 37 44 45
f 37 45 33
f 33 45 46
f 33 46 34
f 47 48 28
f 28 48 49
f 50 51 52
f 52 51 53
f 52 53 54
f 55 56 57
f 57 56 58
f 57 58 50
f 50 58 59
f 50 59 51
f 47 60 48
f 48 60 61
f 48 61 62
f 62 61 63
f 62 63 64
f 64 63 43
f 64 43 65
f 65 43 42
f 4 2 40
f 40 2 66
f 40 66 67
f 68 69 70
f 70 69 54
f 70 54 71
f 71 54 53
f 19 27 17
f 17 27 40
f 17 40 72
f 72 40 67
f 73 74 30
f 30 74 75
f 30 75 76
f 76 75 55
f 55 75 77
f 55 77 78
f 79 80 28
f 28 80 81
f 28 81 82
f 78 83 55
f 55 83 84
f 55 84 85
f 85 86 55
f 55 86 87
f 55 87 56
f 82 88 28
f 28 88 89
f 28 89 30
f 30 89 90
f 30 90 73
f 49 91 28
f 28 91 92
f 28 92 79
f 79 92 93
f 94 95 93
f 93 95 96
f 93 96 79
f 94 97 95
f 95 97 98
f 95 98 99
f 99 98 100
f 101 2 6
f 6 102 103
f 103 104 6
f 6 104 105
f 6 105 106
f 106 107 6
f 6 107 108
f 6 108 101
f 109 110 78
f 111 112 85
f 113 114 71
f 115 116 117
f 118 119 120
f 118 120 121
f 122 123 124
f 124 123 125
f 124 125 120
f 120 125 126
f 120 126 121
f 127 128 129
f 129 128 130
f 129 130 124
f 124 130 131
f 124 131 122
f 127 129 132
f 132 129 133
f 132 133 134
f 134 133 135
f 134 135 136
f 137 138 135
f 135 138 139
f 135 139 136
f 140 141 137
f 137 141 142
f 137 142 138
f 143 144 145
f 145 144 146
f 145 146 140
f 140 146 147
f 140 147 141
f 143 145 148
f 148 145 149
f 148 149 150
f 150 149 151
f 150 151 152
f 117 116 151
f 151 116 153
f 151 153 152
f 115 117 154
f 154 117 155
f 154 155 156
f 156 155 157
f 157 155 158
f 157 158 159
f 160 161 158
f 158 161 162
f 158 162 159
f 70 163 164
f 70 164 68
f 68 164 165
f 68 165 166
f 166 165 167
f 166 167 168
f 168 169 166
f 166 169 170
f 166 170 160
f 160 170 171
f 160 171 161
f 71 114 70
f 70 114 172
f 70 172 163
f 113 71 173
f 173 71 53
f 173 53 174
f 174 53 175
f 175 53 51
f 175 51 176
f 59 58 177
f 177 178 59
f 59 178 179
f 59 179 51
f 51 179 180
f 51 180 176
f 181 182 56
f 56 182 183
f 56 183 58
f 58 183 184
f 58 184 177
f 181 56 185
f 185 56 87
f 185 87 186
f 186 87 86
f 186 86 187
f 85 112 86
f 86 112 188
f 86 188 187
f 111 85 189
f 189 85 84
f 189 84 190
f 190 84 191
f 191 84 83
f 191 83 192
f 78 110 83
f 83 110 193
f 83 193 192
f 77 194 78
f 78 194 195
f 78 195 109
f 196 77 197
f 197 77 75
f 196 198 77
f 77 198 199
f 77 199 194
f 198 196 200
f 201 202 109
f 203 202 204
f 204 202 201
f 204 201 205
f 205 201 206
f 205 206 207
f 207 206 208
f 209 210 208
f 208 210 211
f 208 211 207
f 212 213 214
f 214 213 215
f 214 215 216
f 216 215 217
f 216 217 209
f 209 217 218
f 209 218 210
f 212 214 219
f 219 214 220
f 219 220 221
f 221 220 222
f 221 222 223
f 223 222 224
f 223 224 225
f 226 227 224
f 224 227 228
f 224 228 225
f 229 227 230
f 230 227 226
f 230 226 231
f 231 226 232
f 80 79 233
f 234 73 235
f 235 73 90
f 235 90 236
f 236 90 89
f 236 89 237
f 237 89 88
f 237 88 238
f 238 88 82
f 238 82 239
f 239 82 81
f 239 81 240
f 240 81 80
f 240 80 241
f 241 80 233
f 196 197 200
f 200 197 75
f 200 75 234
f 234 75 74
f 234 74 73
f 242 194 199
f 233 243 241
f 241 243 244
f 241 244 240
f 240 244 245
f 240 245 239
f 239 245 246
f 239 246 238
f 238 246 247
f 238 247 237
f 237 247 248
f 237 248 236
f 236 248 249
f 236 249 235
f 235 249 250
f 235 250 234
f 234 250 251
f 234 251 200
f 200 251 242
f 200 242 198
f 198 242 199
f 243 232 244
f 244 232 226
f 244 226 245
f 245 226 224
f 245 224 246
f 246 224 222
f 246 222 247
f 247 222 220
f 247 220 248
f 248 220 214
f 248 214 249
f 249 214 216
f 249 216 250
f 250 216 209
f 250 209 251
f 251 209 208
f 251 208 242
f 242 208 206
f 242 206 194
f 194 206 201
f 194 201 195
f 195 201 109
f 229 252 227
f 227 252 253
f 227 253 228
f 228 253 254
f 228 254 225
f 225 254 255
f 225 255 223
f 223 255 256
f 223 256 221
f 221 256 257
f 221 257 219
f 219 257 258
f 219 258 212
f 212 258 259
f 212 259 213
f 213 259 260
f 213 260 215
f 215 260 261
f 215 261 217
f 217 261 262
f 217 262 218
f 218 262 263
f 218 263 210
f 210 263 264
f 210 264 211
f 211 264 265
f 211 265 207
f 207 265 266
f 207 266 205
f 205 266 267
f 205 267 204
f 204 267 268
f 204 268 203
f 203 268 269
f 270 165 164
f 270 164 271
f 272 271 273
f 273 271 274
f 273 274 275
f 275 274 276
f 276 274 277
f 276 277 278
f 278 277 279
f 279 277 280
f 279 280 281
f 282 283 280
f 280 283 284
f 280 284 281
f 285 286 282
f 282 286 287
f 282 287 283
f 288 289 290
f 290 289 291
f 290 291 292
f 292 291 293
f 288 290 294
f 294 290 295
f 294 295 296
f 297 298 295
f 295 298 299
f 295 299 296
f 300 301 297
f 297 301 302
f 297 302 298
f 303 304 305
f 305 304 306
f 305 306 307
f 307 306 308
f 303 305 309
f 309 305 310
f 309 310 311
f 312 313 310
f 310 313 314
f 310 314 311
f 315 316 312
f 312 316 317
f 312 317 313
f 318 319 315
f 315 319 320
f 315 320 316
f 321 322 323
f 323 322 324
f 323 324 318
f 318 324 325
f 318 325 319
f 326 327 328
f 202 203 327
f 327 203 329
f 327 329 328
f 271 164 274
f 274 164 163
f 274 163 277
f 277 163 172
f 277 172 280
f 173 282 113
f 113 282 280
f 113 280 114
f 114 280 172
f 173 174 282
f 282 174 292
f 282 292 285
f 285 292 293
f 174 175 292
f 292 175 176
f 292 176 290
f 290 176 180
f 290 180 295
f 177 297 178
f 178 297 295
f 178 295 179
f 179 295 180
f 177 184 297
f 297 184 307
f 297 307 300
f 300 307 308
f 184 183 307
f 307 183 182
f 307 182 305
f 305 182 181
f 305 181 310
f 310 181 185
f 310 185 312
f 185 186 312
f 312 186 187
f 312 187 315
f 315 187 188
f 315 188 318
f 189 323 111
f 111 323 318
f 111 318 112
f 112 318 188
f 189 190 323
f 323 190 326
f 323 326 321
f 321 326 328
f 190 191 326
f 326 191 192
f 326 192 327
f 327 192 193
f 327 193 202
f 202 193 110
f 202 110 109
f 317 316 330
f 331 332 284
f 333 334 273
f 273 334 335
f 273 335 272
f 333 273 336
f 336 273 275
f 336 275 337
f 337 275 276
f 337 276 338
f 338 276 278
f 338 278 339
f 339 278 279
f 339 279 332
f 332 279 281
f 332 281 284
f 331 284 340
f 340 284 283
f 340 283 341
f 341 283 287
f 341 287 342
f 342 287 286
f 342 286 343
f 343 286 285
f 343 285 344
f 344 285 293
f 344 293 345
f 345 293 291
f 345 291 346
f 346 291 289
f 346 289 347
f 347 289 288
f 347 288 348
f 348 288 294
f 348 294 349
f 294 296 349
f 349 296 299
f 349 299 350
f 350 299 298
f 350 298 351
f 351 298 352
f 352 298 302
f 352 302 353
f 353 302 301
f 353 301 354
f 354 301 300
f 354 300 355
f 300 308 355
f 355 308 306
f 355 306 356
f 356 306 304
f 356 304 357
f 357 304 303
f 357 303 358
f 358 303 359
f 303 309 359
f 359 309 311
f 359 311 360
f 360 311 314
f 360 314 361
f 361 314 313
f 361 313 362
f 362 313 317
f 362 317 363
f 363 317 330
f 322 364 324
f 324 364 365
f 324 365 325
f 365 366 325
f 325 366 367
f 325 367 319
f 319 367 368
f 319 368 320
f 320 368 369
f 320 369 316
f 316 369 370
f 316 370 330
f 321 328 371
f 371 372 321
f 321 372 373
f 321 373 322
f 322 373 374
f 322 374 364
f 203 269 329
f 329 269 375
f 329 375 328
f 328 375 376
f 328 376 371
f 377 378 379
f 379 378 380
f 379 380 381
f 121 126 382
f 123 122 383
f 119 384 385
f 119 385 386
f 386 385 387
f 386 387 388
f 388 387 389
f 388 389 390
f 390 389 391
f 390 391 392
f 392 391 393
f 392 393 394
f 394 393 395
f 394 395 396
f 396 395 397
f 396 397 398
f 398 397 399
f 398 399 400
f 400 399 401
f 400 401 402
f 252 403 253
f 253 403 404
f 253 404 254
f 254 404 405
f 254 405 255
f 255 405 406
f 255 406 256
f 256 406 257
f 257 406 407
f 257 407 258
f 258 407 259
f 259 407 408
f 259 408 260
f 260 408 409
f 260 409 261
f 267 266 410
f 410 266 265
f 410 265 411
f 411 265 264
f 411 264 412
f 412 264 263
f 412 263 409
f 409 263 262
f 409 262 261
f 383 269 268
f 267 410 268
f 268 410 413
f 268 413 383
f 383 413 125
f 383 125 123
f 121 382 118
f 119 118 384
f 384 118 382
f 384 382 385
f 385 382 414
f 385 414 387
f 387 414 415
f 387 415 389
f 389 415 416
f 389 416 391
f 391 416 417
f 391 417 393
f 393 417 418
f 393 418 395
f 395 418 419
f 395 419 397
f 397 419 420
f 397 420 399
f 399 420 421
f 399 421 401
f 401 421 422
f 403 422 404
f 404 422 421
f 404 421 405
f 405 421 420
f 405 420 406
f 406 420 419
f 406 419 407
f 407 419 418
f 407 418 408
f 408 418 417
f 408 417 409
f 409 417 416
f 409 416 412
f 412 416 415
f 412 415 411
f 411 415 414
f 411 414 410
f 410 414 382
f 410 382 413
f 413 382 126
f 413 126 125
f 423 372 371
f 423 371 424
f 424 371 376
f 424 376 375
f 425 374 423
f 423 374 373
f 423 373 372
f 426 365 425
f 425 365 364
f 425 364 374
f 368 367 426
f 426 367 366
f 426 366 365
f 368 426 369
f 369 426 427
f 369 427 370
f 370 427 428
f 370 428 330
f 361 362 428
f 428 362 363
f 428 363 330
f 360 429 359
f 359 429 430
f 359 430 358
f 358 430 357
f 357 430 356
f 356 430 431
f 356 431 355
f 355 431 432
f 355 432 354
f 433 352 432
f 432 352 353
f 432 353 354
f 349 350 433
f 433 350 351
f 433 351 352
f 349 433 348
f 348 433 434
f 348 434 347
f 347 434 435
f 347 435 346
f 343 344 435
f 435 344 345
f 435 345 346
f 342 436 341
f 341 436 437
f 341 437 340
f 340 437 331
f 331 437 332
f 332 437 438
f 332 438 339
f 339 438 439
f 339 439 338
f 333 336 439
f 439 336 337
f 439 337 338
f 333 439 440
f 440 439 171
f 440 171 170
f 122 131 383
f 383 131 424
f 383 424 269
f 269 424 375
f 131 130 424
f 424 130 128
f 424 128 423
f 423 128 127
f 423 127 425
f 425 127 132
f 425 132 426
f 132 134 426
f 426 134 136
f 426 136 427
f 427 136 139
f 427 139 428
f 428 139 138
f 138 142 428
f 428 142 429
f 428 429 361
f 361 429 360
f 142 141 429
f 429 141 147
f 429 147 430
f 430 147 146
f 430 146 431
f 146 144 431
f 431 144 143
f 431 143 432
f 432 143 148
f 432 148 433
f 148 150 433
f 433 150 152
f 433 152 434
f 434 152 153
f 434 153 435
f 435 153 116
f 116 115 435
f 435 115 436
f 435 436 343
f 343 436 342
f 115 154 436
f 436 154 156
f 436 156 437
f 437 156 157
f 437 157 438
f 157 159 438
f 438 159 162
f 438 162 439
f 439 162 161
f 439 161 171
f 440 169 168
f 169 440 170
f 270 271 272
f 270 272 441
f 441 272 442
f 441 442 443
f 443 442 334
f 443 334 333
f 165 270 444
f 444 270 441
f 444 441 168
f 168 441 443
f 168 443 440
f 440 443 333
f 445 446 381
f 381 446 104
f 381 104 379
f 379 104 103
f 103 102 447
f 447 448 103
f 103 448 449
f 103 449 450
f 451 452 158
f 453 454 455
f 455 454 456
f 455 456 457
f 158 452 160
f 160 452 458
f 160 458 166
f 459 377 450
f 450 377 379
f 450 379 103
f 460 461 462
f 456 463 457
f 457 463 464
f 457 464 462
f 462 464 465
f 462 465 460
f 466 467 468
f 468 467 469
f 468 469 470
f 470 469 453
f 470 453 471
f 471 453 455
f 472 473 474
f 475 124 476
f 476 124 120
f 476 120 477
f 477 120 119
f 477 119 478
f 479 388 390
f 466 398 400
f 480 481 482
f 460 483 461
f 461 483 484
f 461 484 485
f 478 119 479
f 479 119 386
f 479 386 388
f 390 392 479
f 479 392 394
f 479 394 396
f 474 377 472
f 472 377 459
f 472 459 468
f 468 459 479
f 468 479 466
f 466 479 396
f 466 396 398
f 484 486 485
f 485 486 487
f 485 487 481
f 481 487 488
f 481 488 482
f 489 135 490
f 490 135 133
f 490 133 475
f 475 133 129
f 475 129 124
f 400 402 466
f 466 402 491
f 466 491 492
f 482 493 480
f 480 493 494
f 480 494 495
f 496 145 497
f 497 145 140
f 497 140 489
f 489 140 137
f 489 137 135
f 158 155 451
f 451 155 117
f 451 117 498
f 498 117 151
f 498 151 496
f 496 151 149
f 496 149 145
f 499 500 501
f 501 500 502
f 501 502 473
f 473 502 503
f 473 503 474
f 494 504 495
f 495 504 505
f 495 505 506
f 506 505 507
f 506 507 499
f 499 507 508
f 499 508 500
f 492 491 509
f 509 491 510
f 509 510 511
f 511 510 512
f 512 510 513
f 512 513 514
f 457 63 455
f 455 63 61
f 455 61 471
f 471 61 60
f 471 60 470
f 470 60 47
f 470 47 468
f 468 47 28
f 468 28 472
f 472 28 27
f 472 27 473
f 473 27 19
f 473 19 501
f 501 19 21
f 501 21 499
f 499 21 14
f 499 14 506
f 506 14 11
f 506 11 495
f 495 11 480
f 480 11 10
f 480 10 481
f 481 10 37
f 481 37 485
f 485 37 33
f 485 33 461
f 461 33 24
f 461 24 462
f 462 24 31
f 462 31 457
f 457 31 43
f 457 43 63
f 515 516 517
f 517 516 518
f 519 520 521
f 521 520 522
f 521 522 523
f 523 522 48
f 524 91 49
f 92 91 525
f 525 91 524
f 525 524 526
f 526 524 527
f 527 524 528
f 527 528 529
f 529 528 530
f 529 530 531
f 532 531 533
f 533 531 530
f 533 530 534
f 534 530 535
f 515 536 516
f 516 536 537
f 516 537 538
f 519 518 520
f 520 518 516
f 520 516 539
f 539 516 538
f 539 538 535
f 535 530 539
f 539 530 528
f 539 528 520
f 520 528 524
f 520 524 522
f 522 524 49
f 522 49 48
f 532 540 531
f 531 540 541
f 531 541 529
f 529 541 542
f 529 542 527
f 527 542 543
f 527 543 526
f 526 543 544
f 526 544 525
f 525 544 545
f 525 545 92
f 92 545 93
f 546 547 548
f 549 550 551
f 544 543 552
f 542 541 553
f 94 93 545
f 545 554 94
f 94 554 555
f 94 555 97
f 97 555 556
f 97 556 98
f 98 556 557
f 98 557 100
f 100 557 558
f 100 558 99
f 99 558 551
f 99 551 95
f 95 551 550
f 95 550 96
f 559 560 561
f 561 560 562
f 561 562 563
f 563 562 564
f 563 564 565
f 565 564 566
f 566 564 567
f 566 567 568
f 568 567 569
f 568 569 570
f 570 569 571
f 571 569 572
f 571 572 573
f 541 540 553
f 553 540 574
f 553 574 572
f 572 574 575
f 572 575 573
f 560 546 562
f 562 546 548
f 562 548 564
f 564 548 576
f 564 576 567
f 567 576 577
f 567 577 569
f 569 577 578
f 569 578 572
f 572 578 579
f 572 579 553
f 553 579 552
f 553 552 542
f 542 552 543
f 547 549 548
f 548 549 551
f 548 551 576
f 576 551 558
f 576 558 577
f 577 558 557
f 577 557 578
f 578 557 556
f 578 556 579
f 579 556 555
f 579 555 552
f 552 555 554
f 552 554 544
f 544 554 545
f 79 96 233
f 233 96 550
f 233 550 243
f 243 550 549
f 243 549 232
f 232 549 547
f 232 547 231
f 231 547 546
f 231 546 230
f 230 546 560
f 230 560 229
f 229 560 559
f 66 2 101
f 446 580 104
f 104 580 105
f 105 580 106
f 106 580 581
f 106 581 107
f 582 101 581
f 581 101 108
f 581 108 107
f 18 17 582
f 582 17 72
f 582 72 101
f 101 72 67
f 101 67 66
f 580 583 584
f 580 584 581
f 581 584 585
f 581 585 582
f 586 22 20
f 587 23 22
f 22 586 587
f 587 586 588
f 587 588 589
f 589 588 590
f 589 590 591
f 591 590 592
f 591 592 593
f 580 446 583
f 583 446 594
f 583 594 595
f 18 582 20
f 20 582 585
f 20 585 586
f 586 585 584
f 586 584 588
f 588 584 583
f 588 583 590
f 590 583 595
f 590 595 592
f 32 34 596
f 596 597 32
f 32 597 598
f 32 598 25
f 25 598 599
f 25 599 26
f 26 599 600
f 26 600 41
f 41 600 601
f 41 601 42
f 42 601 602
f 42 602 65
f 65 602 603
f 65 603 64
f 64 603 604
f 64 604 62
f 62 604 523
f 62 523 48
f 605 518 519
f 519 606 605
f 605 606 607
f 605 607 608
f 608 607 609
f 609 607 610
f 609 610 611
f 611 610 612
f 611 612 613
f 614 615 616
f 616 615 617
f 616 617 618
f 618 617 619
f 618 619 620
f 620 619 621
f 620 621 612
f 612 621 622
f 612 622 613
f 614 616 623
f 623 616 624
f 623 624 625
f 625 624 626
f 625 626 627
f 627 626 628
f 627 628 629
f 630 631 632
f 632 631 633
f 632 633 634
f 634 633 635
f 634 635 636
f 636 635 637
f 636 637 628
f 628 637 638
f 628 638 629
f 630 632 639
f 639 632 640
f 639 640 641
f 641 640 642
f 641 642 643
f 643 642 644
f 643 644 645
f 645 644 646
f 646 644 647
f 646 647 648
f 648 647 649
f 648 649 650
f 650 649 591
f 650 591 593
f 12 23 587
f 34 46 596
f 596 46 45
f 596 45 651
f 651 45 44
f 651 44 652
f 652 44 36
f 652 36 653
f 653 36 35
f 653 35 654
f 654 35 9
f 654 9 655
f 655 9 16
f 655 16 656
f 656 16 15
f 656 15 657
f 657 15 13
f 657 13 658
f 658 13 12
f 658 12 659
f 659 12 587
f 519 521 606
f 606 521 660
f 606 660 607
f 607 660 661
f 607 661 610
f 610 661 662
f 610 662 612
f 612 662 663
f 612 663 620
f 620 663 664
f 620 664 618
f 618 664 665
f 618 665 616
f 616 665 666
f 616 666 624
f 624 666 667
f 624 667 626
f 626 667 668
f 626 668 628
f 628 668 669
f 628 669 636
f 636 669 670
f 636 670 634
f 634 670 671
f 634 671 632
f 632 671 672
f 632 672 640
f 640 672 673
f 640 673 642
f 642 673 674
f 642 674 644
f 644 674 675
f 644 675 647
f 647 675 676
f 647 676 649
f 649 676 677
f 649 677 591
f 591 677 589
f 521 523 660
f 660 523 604
f 660 604 661
f 661 604 603
f 661 603 662
f 662 603 602
f 662 602 663
f 663 602 601
f 663 601 664
f 664 601 600
f 664 600 665
f 665 600 599
f 665 599 666
f 666 599 598
f 666 598 667
f 667 598 597
f 667 597 668
f 668 597 596
f 668 596 669
f 669 596 651
f 669 651 670
f 670 651 652
f 670 652 671
f 671 652 653
f 671 653 672
f 672 653 654
f 672 654 673
f 673 654 655
f 673 655 674
f 674 655 656
f 674 656 675
f 675 656 657
f 675 657 676
f 676 657 658
f 676 658 677
f 677 658 659
f 677 659 589
f 589 659 587
f 536 678 537
f 537 678 679
f 537 679 538
f 538 679 680
f 538 680 535
f 535 680 681
f 535 681 534
f 534 681 682
f 534 682 533
f 533 682 683
f 533 683 532
f 532 683 684
f 532 684 540
f 540 684 685
f 686 559 687
f 687 559 561
f 687 561 688
f 688 561 563
f 688 563 689
f 689 563 565
f 689 565 690
f 690 565 566
f 690 566 691
f 691 566 568
f 691 568 692
f 692 568 570
f 692 570 693
f 693 570 571
f 693 571 694
f 694 571 573
f 694 573 695
f 695 573 575
f 695 575 696
f 696 575 574
f 696 574 685
f 685 574 540
f 229 559 252
f 252 559 686
f 446 445 594
f 594 445 697
f 594 697 595
f 595 697 698
f 595 698 592
f 592 698 699
f 592 699 593
f 593 699 700
f 593 700 650
f 650 700 701
f 650 701 648
f 608 517 605
f 605 517 518
f 678 536 609
f 609 536 608
f 608 536 515
f 608 515 517
f 702 703 704
f 704 703 705
f 704 705 706
f 704 678 702
f 702 678 609
f 702 609 707
f 707 609 611
f 707 611 708
f 708 611 613
f 708 613 709
f 709 613 622
f 709 622 710
f 710 622 621
f 710 621 711
f 711 621 619
f 711 619 712
f 712 619 617
f 712 617 713
f 713 617 615
f 713 615 714
f 714 615 614
f 714 614 715
f 715 614 623
f 715 623 716
f 716 623 625
f 716 625 717
f 717 625 627
f 717 627 718
f 718 627 629
f 718 629 719
f 719 629 638
f 719 638 720
f 720 638 637
f 720 637 721
f 721 637 635
f 721 635 722
f 722 635 633
f 722 633 723
f 723 633 631
f 723 631 724
f 724 631 630
f 724 630 725
f 725 630 639
f 725 639 726
f 726 639 641
f 726 641 727
f 727 641 643
f 727 643 728
f 728 643 645
f 728 645 729
f 729 645 646
f 729 646 730
f 730 646 648
f 730 648 731
f 731 648 701
f 680 679 732
f 680 732 681
f 681 732 733
f 681 733 682
f 682 733 734
f 682 734 683
f 684 683 735
f 735 683 734
f 735 734 736
f 736 734 737
f 467 466 738
f 739 740 741
f 741 740 742
f 738 743 467
f 467 743 741
f 467 741 469
f 469 741 742
f 469 742 453
f 738 744 743
f 743 744 745
f 743 745 741
f 741 745 746
f 741 746 739
f 739 746 706
f 744 737 745
f 745 737 734
f 745 734 746
f 746 734 733
f 746 733 706
f 706 733 732
f 706 732 704
f 704 732 679
f 704 679 678
f 685 684 747
f 747 684 735
f 747 735 748
f 748 735 736
f 748 736 749
f 749 736 737
f 749 737 750
f 750 737 744
f 750 744 751
f 751 744 738
f 751 738 492
f 492 738 466
f 748 749 752
f 750 751 753
f 753 751 492
f 685 747 696
f 696 747 754
f 696 754 695
f 695 754 755
f 756 692 757
f 757 692 693
f 757 693 755
f 755 693 694
f 755 694 695
f 758 690 756
f 756 690 691
f 756 691 692
f 687 688 758
f 758 688 689
f 758 689 690
f 758 759 687
f 687 759 760
f 687 760 686
f 510 491 761
f 492 509 753
f 753 509 511
f 753 511 762
f 762 511 512
f 762 512 763
f 763 512 514
f 763 514 764
f 764 514 513
f 764 513 765
f 765 513 510
f 765 510 766
f 766 510 761
f 747 748 754
f 754 748 752
f 754 752 755
f 755 752 767
f 755 767 757
f 757 767 768
f 757 768 756
f 756 768 769
f 756 769 758
f 758 769 770
f 758 770 759
f 759 770 771
f 759 771 760
f 760 771 772
f 749 750 752
f 752 750 753
f 752 753 767
f 767 753 762
f 767 762 768
f 768 762 763
f 768 763 769
f 769 763 764
f 769 764 770
f 770 764 765
f 770 765 771
f 771 765 766
f 771 766 772
f 772 766 761
f 252 686 760
f 252 760 403
f 403 760 772
f 403 772 422
f 422 772 761
f 422 761 401
f 401 761 491
f 401 491 402
f 700 773 774
f 775 731 774
f 774 731 701
f 774 701 700
f 776 728 777
f 777 728 729
f 777 729 775
f 775 729 730
f 775 730 731
f 778 726 776
f 776 726 727
f 776 727 728
f 779 723 780
f 780 723 724
f 780 724 778
f 778 724 725
f 778 725 726
f 781 721 779
f 779 721 722
f 779 722 723
f 716 717 782
f 782 717 718
f 782 718 783
f 783 718 719
f 783 719 781
f 781 719 720
f 781 720 721
f 716 782 715
f 715 782 784
f 715 784 714
f 714 784 785
f 714 785 713
f 713 785 786
f 713 786 712
f 787 708 788
f 788 708 709
f 788 709 789
f 789 709 710
f 789 710 786
f 786 710 711
f 786 711 712
f 703 702 787
f 787 702 707
f 787 707 708
f 787 790 703
f 703 790 791
f 703 791 705
f 705 791 739
f 705 739 706
f 454 453 742
f 742 792 454
f 454 792 793
f 454 793 456
f 456 793 794
f 456 794 463
f 463 794 795
f 463 795 464
f 464 795 796
f 464 796 465
f 465 796 797
f 465 797 460
f 460 797 798
f 460 798 483
f 483 798 799
f 483 799 484
f 484 799 800
f 484 800 486
f 486 800 801
f 486 801 487
f 487 801 802
f 487 802 488
f 488 802 803
f 488 803 482
f 482 803 804
f 482 804 493
f 493 804 805
f 493 805 494
f 494 805 806
f 494 806 504
f 504 806 807
f 504 807 505
f 505 807 808
f 505 808 507
f 507 808 809
f 507 809 508
f 508 809 810
f 508 810 500
f 773 811 774
f 774 811 812
f 774 812 775
f 775 812 813
f 775 813 777
f 777 813 814
f 777 814 776
f 776 814 815
f 776 815 778
f 778 815 816
f 778 816 780
f 780 816 817
f 780 817 779
f 779 817 818
f 779 818 781
f 781 818 819
f 781 819 783
f 783 819 820
f 783 820 782
f 782 820 821
f 782 821 784
f 784 821 822
f 784 822 785
f 785 822 823
f 785 823 786
f 786 823 824
f 786 824 789
f 789 824 825
f 789 825 788
f 788 825 826
f 788 826 787
f 787 826 827
f 787 827 790
f 790 827 828
f 790 828 791
f 791 828 829
f 791 829 739
f 739 829 740
f 811 810 812
f 812 810 809
f 812 809 813
f 813 809 808
f 813 808 814
f 814 808 807
f 814 807 815
f 815 807 806
f 815 806 816
f 816 806 805
f 816 805 817
f 817 805 804
f 817 804 818
f 818 804 803
f 818 803 819
f 819 803 802
f 819 802 820
f 820 802 801
f 820 801 821
f 821 801 800
f 821 800 822
f 822 800 799
f 822 799 823
f 823 799 798
f 823 798 824
f 824 798 797
f 824 797 825
f 825 797 796
f 825 796 826
f 826 796 795
f 826 795 827
f 827 795 794
f 827 794 828
f 828 794 793
f 828 793 829
f 829 793 792
f 829 792 740
f 740 792 742
f 830 831 832
f 832 831 833
f 832 833 834
f 834 833 835
f 834 835 836
f 832 837 830
f 830 837 697
f 830 697 445
f 838 699 698
f 773 700 699
f 699 838 773
f 773 838 839
f 773 839 811
f 811 839 840
f 811 840 810
f 836 474 834
f 834 474 503
f 834 503 502
f 500 810 502
f 502 810 840
f 502 840 834
f 834 840 839
f 834 839 832
f 832 839 838
f 832 838 837
f 837 838 698
f 837 698 697
f 830 445 381
f 830 381 831
f 831 381 380
f 831 380 833
f 833 380 378
f 833 378 835
f 835 378 836
f 836 378 377
f 836 377 474
f 5 447 6
f 6 447 102
f 447 5 448
f 448 5 7
f 448 7 449
f 449 7 8
f 449 8 450
f 450 8 1
f 450 1 459
f 459 1 3
f 459 3 479
f 479 3 4
f 479 4 478
f 478 4 40
f 478 40 477
f 477 40 39
f 477 39 476
f 476 39 38
f 476 38 475
f 475 38 29
f 475 29 490
f 490 29 30
f 490 30 489
f 489 30 76
f 489 76 497
f 497 76 55
f 497 55 496
f 496 55 57
f 496 57 498
f 498 57 50
f 498 50 451
f 451 50 52
f 451 52 452
f 452 52 54
f 452 54 458
f 458 54 69
f 458 69 166
f 166 69 68
