# Exported from USD: /mycobot_pro450/mygripper_f100/Geometry/f100_base_link/joint2_right_link/J2_R_Link/J2_R_Link
mtllib J2_R_Link.mtl

g J2_R_Link
v 0.01511661 0.01367602 0.00350000
v 0.01451868 0.01430921 0.00350000
v 0.00562866 0.00695920 0.00350000
v 0.06470000 0.00975602 0.00350000
v 0.06250000 0.00975602 0.00350000
v 0.06460825 0.00883188 0.00350000
v 0.06228387 0.00873918 0.00350000
v 0.00700269 0.00557445 0.00350000
v 0.00804409 0.00392491 0.00350000
v 0.00870337 0.00208893 0.00350000
v 0.06167283 0.00789816 0.00350000
v 0.06388409 0.00710954 0.00350000
v 0.06433262 0.00793436 0.00350000
v 0.06167283 0.01161388 0.00350000
v 0.06228386 0.01077286 0.00350000
v 0.06387250 0.01241943 0.00350000
v 0.00894923 0.00015372 0.00350000
v 0.00876998 -0.00178879 0.00350000
v 0.01588382 0.01367602 0.00350000
v 0.01628389 0.01370936 0.00350000
v 0.05984885 0.01445359 0.00350000
v 0.05973868 0.01224232 0.00350000
v 0.06078557 0.01438990 0.00350000
v 0.06077254 0.01213366 0.00350000
v 0.06326584 0.01313600 0.00350000
v 0.06252885 0.01371770 0.00350000
v 0.06169095 0.01414130 0.00350000
v 0.06469999 0.00976628 0.00350000
v 0.06460417 0.01070026 0.00350000
v 0.06432462 0.01159657 0.00350000
v 0.06077254 0.00737838 0.00350000
v 0.06254612 0.00580542 0.00350000
v 0.06328057 0.00639032 0.00350000
v 0.06000000 0.00725602 0.00350000
v 0.05973868 0.00726971 0.00350000
v 0.05895420 0.00517385 0.00350000
v 0.05755463 0.00923624 0.00350000
v 0.05755463 0.01027580 0.00350000
v 0.05891815 0.01432981 0.00350000
v 0.05883513 0.01430938 0.00350000
v 0.05875000 0.01192108 0.00350000
v 0.05726118 0.01397259 0.00350000
v 0.05797746 0.01122548 0.00350000
v 0.05986935 0.00505783 0.00350000
v 0.06080580 0.00512561 0.00350000
v 0.06171008 0.00537816 0.00350000
v 0.02936899 -0.00816111 0.00350000
v 0.03240079 -0.00760521 0.00350000
v 0.05726333 0.00379615 0.00350000
v 0.05792164 0.00445568 0.00350000
v 0.05884982 0.00511480 0.00350000
v 0.05797746 0.00828656 0.00350000
v 0.05875000 0.00759095 0.00350000
v 0.05541222 0.01373983 0.00350000
v 0.05380391 0.01367602 0.00350000
v 0.01882206 0.01367602 0.00350000
v 0.01743250 0.01374145 0.00350000
v 0.00426012 -0.00787170 0.00350000
v 0.01121155 -0.01702487 0.00350000
v 0.00586435 -0.00676178 0.00350000
v 0.01349328 -0.01527995 0.00350000
v 0.00719002 -0.00533066 0.00350000
v 0.01533888 -0.01342624 0.00350000
v 0.00817414 -0.00364633 0.00350000
v 0.00053038 -0.00893482 0.00350000
v -0.00141795 -0.00883752 0.00350000
v -0.00249665 -0.02023146 0.00350000
v -0.00531561 -0.01967967 0.00350000
v -0.00329893 -0.00832042 0.00350000
v -0.00802903 -0.01873713 0.00350000
v -0.01058302 -0.01742254 0.00350000
v -0.00502321 -0.00740808 0.00350000
v -0.01292688 -0.01576202 0.00350000
v -0.00650887 -0.00614385 0.00350000
v -0.01501406 -0.01378852 0.00350000
v -0.01680312 -0.01154124 0.00350000
v -0.00768535 -0.00458777 0.00350000
v -0.01825855 -0.00906480 0.00350000
v -0.00849676 -0.00281377 0.00350000
v -0.01935144 -0.00640838 0.00350000
v 0.03546064 -0.00723348 0.00350000
v 0.02055185 -0.01091019 0.00350000
v 0.02343368 -0.00981662 0.00350000
v 0.02637631 -0.00889915 0.00350000
v 0.00037189 -0.02038154 0.00350000
v 0.00323304 -0.02012692 0.00350000
v 0.00245353 -0.00860770 0.00350000
v 0.00602999 -0.01947266 0.00350000
v 0.00870722 -0.01843176 0.00350000
v 0.01774135 -0.01217585 0.00350000
v 0.05011581 -0.00448576 0.00350000
v 0.05068523 -0.00388024 0.00350000
v 0.04468151 -0.00698560 0.00350000
v 0.03853735 -0.00704727 0.00350000
v 0.04007852 -0.00702398 0.00350000
v 0.04385119 -0.00702398 0.00350000
v 0.04588451 -0.00679128 0.00350000
v 0.04705025 -0.00643624 0.00350000
v 0.04918546 -0.00527281 0.00350000
v 0.04815733 -0.00592697 0.00350000
v 0.01502883 0.01377242 0.00348409
v 0.01493477 0.01387436 0.00342508
v 0.01492243 0.01388764 0.00341264
v 0.01487759 0.01393567 0.00335028
v 0.01483969 0.01397602 -0.00350000
v 0.01451868 0.01430921 -0.00350000
v 0.01483969 0.01397602 0.00320000
v 0.01484992 0.01396515 0.00328003
v -0.00851251 -0.01852249 0.00300189
v -0.00802903 -0.01873713 0.00300189
v 0.01349316 -0.01528005 0.00324872
v 0.01394366 -0.01487009 0.00333573
v 0.01463225 -0.01419304 0.00344809
v 0.01525224 -0.01352459 0.00349904
v 0.01121155 -0.01702487 0.00300189
v 0.01158533 -0.01677276 0.00300189
v 0.01233730 -0.01622764 0.00304998
v 0.01317504 -0.01555518 0.00318687
v 0.00978999 -0.01788020 0.00300189
v 0.00870722 -0.01843176 0.00300189
v 0.00385724 -0.02001667 0.00300189
v 0.00590514 -0.01951088 0.00300189
v 0.00602999 -0.01947266 0.00300189
v 0.00788981 -0.01879618 0.00300189
v -0.00034010 -0.02038209 0.00300189
v 0.00037189 -0.02038154 0.00300189
v 0.00176804 -0.02030811 0.00300189
v 0.00323304 -0.02012692 0.00300189
v -0.00244459 -0.02023782 0.00300189
v -0.00452291 -0.01987684 0.00300189
v -0.00531561 -0.01967967 0.00300189
v -0.00655279 -0.01930301 0.00300189
v -0.01038107 -0.01754362 0.00300189
v -0.01058302 -0.01742254 0.00300189
v -0.01213847 -0.01637690 0.00300189
v -0.01292688 -0.01576202 0.00300189
v -0.01680312 -0.01154124 0.00300189
v -0.01656267 -0.01188374 0.00300189
v -0.01524591 -0.01353173 0.00300189
v -0.01501406 -0.01378852 0.00300189
v -0.01376589 -0.01503481 0.00300189
v -0.01770207 -0.01010851 0.00300189
v -0.01825855 -0.00906480 0.00300189
v -0.01933135 -0.00646872 0.00300189
v -0.01935144 -0.00640838 -0.00350000
v -0.01893104 -0.00756049 -0.00291200
v -0.01901480 -0.00734729 -0.00174720
v -0.01913594 -0.00702576 -0.00000000
v -0.01865192 -0.00822503 0.00300189
v -0.01680312 -0.01154124 -0.00350000
v -0.01680312 -0.01154124 -0.00300189
v -0.01716040 -0.01100301 -0.00300189
v -0.01825855 -0.00906480 -0.00350000
v -0.01817608 -0.00922905 -0.00300189
v -0.01825855 -0.00906480 -0.00300189
v -0.01892448 -0.00757691 -0.00300189
v -0.01501406 -0.01378852 -0.00350000
v -0.01501406 -0.01378852 -0.00300189
v -0.01597215 -0.01266633 -0.00300189
v -0.01292688 -0.01576202 -0.00350000
v -0.01312739 -0.01559541 -0.00300189
v -0.01462329 -0.01420228 -0.00300189
v -0.00975594 -0.01789879 -0.00300189
v -0.01058302 -0.01742254 -0.00300189
v -0.01058302 -0.01742254 -0.00350000
v -0.01149948 -0.01683173 -0.00300189
v -0.01292688 -0.01576202 -0.00300189
v -0.00791430 -0.01878588 -0.00300189
v -0.00802903 -0.01873713 -0.00350000
v -0.00599307 -0.01948405 -0.00300189
v -0.00531561 -0.01967967 -0.00350000
v -0.00531561 -0.01967967 -0.00300189
v -0.00249665 -0.02023146 -0.00350000
v -0.00249665 -0.02023146 -0.00300189
v -0.00401159 -0.01998631 -0.00300189
v 0.00037189 -0.02038154 -0.00350000
v 0.00005208 -0.02038486 -0.00300189
v -0.00198976 -0.02028759 -0.00300189
v 0.00411365 -0.01996555 -0.00300189
v 0.00323304 -0.02012692 -0.00300189
v 0.00323304 -0.02012692 -0.00350000
v 0.00209339 -0.02027715 -0.00300189
v 0.00037189 -0.02038154 -0.00300189
v 0.00609255 -0.01945318 -0.00300189
v 0.00602999 -0.01947266 -0.00350000
v 0.00801018 -0.01874519 -0.00300189
v 0.00870722 -0.01843176 -0.00350000
v 0.00870722 -0.01843176 -0.00300189
v 0.01180248 -0.01662067 -0.00300605
v 0.01158533 -0.01677276 -0.00300189
v 0.01121155 -0.01702487 -0.00350000
v 0.01121155 -0.01702487 -0.00300189
v 0.00984727 -0.01784871 -0.00300189
v 0.01349328 -0.01527995 -0.00350000
v 0.01533890 -0.01342622 -0.00350000
v 0.01468240 -0.01414117 -0.00345448
v 0.01396730 -0.01484789 -0.00334013
v 0.01321476 -0.01552145 -0.00319447
v 0.01249728 -0.01610476 -0.00307113
v 0.01518255 -0.01391042 0.00343819
v 0.01789294 -0.01248701 0.00343819
v 0.02068437 -0.01122993 0.00343819
v 0.02354664 -0.01014379 0.00343819
v 0.02646930 -0.00923254 0.00343819
v 0.02944167 -0.00849951 0.00343819
v 0.03245290 -0.00794738 0.00343819
v 0.03549198 -0.00757817 0.00343819
v 0.03854781 -0.00739323 0.00343819
v 0.04007852 -0.00737010 0.00343819
v 0.04007852 -0.00752398 0.00336603
v 0.04007852 -0.00773109 0.00320711
v 0.04007852 -0.00802398 0.00250000
v 0.04007852 -0.00796217 0.00284612
v 0.03856757 -0.00804682 0.00250000
v 0.03856570 -0.00798504 0.00284612
v 0.03576622 -0.00821029 0.00250000
v 0.03554558 -0.00816782 0.00284612
v 0.03555118 -0.00822937 0.00250000
v 0.03254203 -0.00853271 0.00284612
v 0.03255134 -0.00859381 0.00250000
v 0.03148606 -0.00876782 0.00250000
v 0.02956600 -0.00907838 0.00284612
v 0.02957898 -0.00913881 0.00250000
v 0.02726993 -0.00969242 0.00250000
v 0.02662838 -0.00980284 0.00284612
v 0.02664498 -0.00986238 0.00250000
v 0.02373988 -0.01070344 0.00284612
v 0.02376005 -0.01076187 0.00250000
v 0.01531615 -0.01458638 0.00250000
v 0.01550393 -0.01447987 0.00250000
v 0.01547355 -0.01442604 0.00284612
v 0.01817933 -0.01307484 0.00250000
v 0.01815226 -0.01301927 0.00284612
v 0.01915474 -0.01261258 0.00250000
v 0.02091106 -0.01177689 0.00284612
v 0.02093473 -0.01183399 0.00250000
v 0.02314925 -0.01097720 0.00250000
v 0.01164257 -0.01685562 0.00275988
v 0.01166210 -0.01688389 0.00250000
v 0.01291829 -0.01604396 0.00250000
v 0.01288472 -0.01599207 0.00284612
v 0.01535997 -0.01422480 0.00320711
v 0.01805105 -0.01281153 0.00320711
v 0.02082259 -0.01156342 0.00320711
v 0.02366446 -0.01048501 0.00320711
v 0.02656629 -0.00958025 0.00320711
v 0.02951748 -0.00885245 0.00320711
v 0.03250724 -0.00830426 0.00320711
v 0.03552466 -0.00793768 0.00320711
v 0.03855872 -0.00775406 0.00320711
v 0.04007852 -0.00789001 0.00300000
v 0.01166210 -0.01688389 -0.00250000
v 0.01291829 -0.01604396 -0.00250000
v 0.01531615 -0.01458638 -0.00250000
v 0.01550393 -0.01447987 -0.00250000
v 0.01817933 -0.01307484 -0.00250000
v 0.01915474 -0.01261258 -0.00250000
v 0.02093473 -0.01183399 -0.00250000
v 0.02314925 -0.01097720 -0.00250000
v 0.02376005 -0.01076187 -0.00250000
v 0.02664498 -0.00986238 -0.00250000
v 0.02726993 -0.00969242 -0.00250000
v 0.02957898 -0.00913881 -0.00250000
v 0.03148606 -0.00876782 -0.00250000
v 0.03255134 -0.00859381 -0.00250000
v 0.03555118 -0.00822937 -0.00250000
v 0.03576622 -0.00821029 -0.00250000
v 0.03856757 -0.00804682 -0.00250000
v 0.04007852 -0.00802398 -0.00250000
v -0.00454525 -0.01997504 0.00275988
v -0.00425865 -0.02007322 0.00250001
v -0.00245667 -0.02033780 0.00275988
v -0.00285057 -0.02032104 0.00250001
v -0.00246079 -0.02037191 0.00250001
v -0.00700606 -0.01928692 0.00250002
v -0.00659621 -0.01943091 0.00250002
v -0.00658516 -0.01939838 0.00275988
v -0.00564606 -0.01972796 0.00250002
v -0.00510354 -0.01987522 0.00250001
v -0.00787705 -0.01894788 0.00250002
v -0.00855456 -0.01861400 0.00275988
v -0.00833204 -0.01875226 0.00250002
v -0.00961758 -0.01812657 0.00250003
v -0.01043236 -0.01763030 0.00275988
v -0.01044985 -0.01765987 0.00250003
v -0.01204258 -0.01661465 0.00250003
v -0.01085644 -0.01741287 0.00250003
v -0.01049057 -0.01763571 0.00250003
v -0.01289102 -0.01596534 0.00250004
v -0.01219844 -0.01645781 0.00275988
v -0.01317027 -0.01573577 0.00250004
v -0.01383390 -0.01510909 0.00275988
v -0.01385711 -0.01513443 0.00250004
v -0.01532123 -0.01359858 0.00275988
v -0.01522867 -0.01375347 0.00250005
v -0.01502964 -0.01397069 0.00250004
v -0.01423402 -0.01478050 0.00250004
v -0.01614939 -0.01265968 0.00250005
v -0.01664450 -0.01194246 0.00275988
v -0.01667241 -0.01196248 0.00250005
v -0.01775155 -0.01029333 0.00250006
v -0.01699172 -0.01150443 0.00250005
v -0.01686300 -0.01169230 0.00250005
v -0.01877551 -0.00827953 0.00250006
v -0.01842522 -0.00903227 0.00250006
v -0.01874407 -0.00826567 0.00275988
v -0.01835385 -0.00917642 0.00250006
v -0.01778953 -0.01015845 0.00275988
v -0.01937829 -0.00657243 0.00283413
v -0.01940180 -0.00667443 0.00256709
v -0.01939913 -0.00668910 0.00250007
v -0.01900943 -0.00772735 0.00250006
v 0.00985486 -0.01799867 0.00250000
v 0.00914356 -0.01837024 0.00250000
v 0.00983835 -0.01796854 0.00275988
v 0.00794208 -0.01892072 0.00250000
v 0.00792878 -0.01888904 0.00275988
v 0.00643930 -0.01948347 0.00250000
v 0.00593431 -0.01960728 0.00275988
v 0.00594427 -0.01964016 0.00250000
v 0.00388280 -0.02014930 0.00250000
v 0.00360426 -0.02020098 0.00250000
v 0.00387630 -0.02011556 0.00275988
v 0.00177975 -0.02044267 0.00250000
v 0.00177677 -0.02040844 0.00275988
v 0.00069601 -0.02050819 0.00250000
v -0.00034178 -0.02048279 0.00275988
v -0.00222638 -0.02039886 0.00250001
v -0.00142865 -0.02047020 0.00250000
v -0.00000000 -0.02052000 0.00250000
v -0.01905403 -0.00761671 -0.00250007
v -0.01862570 -0.00861125 -0.00250007
v -0.01835385 -0.00917642 -0.00250006
v -0.01923217 -0.00715499 -0.00000000
v -0.01910885 -0.00747813 -0.00174720
v -0.01049057 -0.01763571 -0.00250004
v -0.01124932 -0.01716168 -0.00250004
v -0.01241702 -0.01633671 -0.00250005
v -0.01289102 -0.01596534 -0.00250005
v -0.01321437 -0.01569875 -0.00250005
v -0.01352444 -0.01543243 -0.00250005
v -0.01456621 -0.01445323 -0.00250005
v -0.01502964 -0.01397069 -0.00250005
v -0.01553727 -0.01340387 -0.00250006
v -0.01607798 -0.01275025 -0.00250006
v -0.01643290 -0.01228944 -0.00250006
v -0.01686300 -0.01169230 -0.00250006
v -0.01724875 -0.01111535 -0.00250006
v -0.01798087 -0.00988730 -0.00250006
v -0.01002700 -0.01790334 -0.00250004
v -0.00982059 -0.01801739 -0.00250004
v -0.00875601 -0.01855809 -0.00250004
v -0.00787705 -0.01894788 -0.00250004
v -0.00744252 -0.01912274 -0.00250004
v -0.00609289 -0.01959457 -0.00250003
v 0.00005242 -0.02051993 -0.00250002
v -0.00510354 -0.01987522 -0.00250003
v -0.00471369 -0.01997127 -0.00250003
v -0.00403817 -0.02011874 -0.00250003
v -0.00331160 -0.02025102 -0.00250003
v -0.00222638 -0.02039886 -0.00250003
v -0.00189344 -0.02043246 -0.00250003
v -0.00046608 -0.02051470 -0.00250002
v 0.00069601 -0.02050819 -0.00250002
v 0.00096354 -0.02049736 -0.00250002
v 0.00238848 -0.02038052 -0.00250002
v 0.00360426 -0.02020098 -0.00250002
v 0.00380182 -0.02016473 -0.00250002
v 0.00414091 -0.02009784 -0.00250002
v 0.00519671 -0.01985106 -0.00250001
v 0.00643930 -0.01948347 -0.00250001
v 0.00656637 -0.01944102 -0.00250001
v 0.00790416 -0.01893659 -0.00250001
v 0.00806326 -0.01886940 -0.00250001
v 0.00920357 -0.01834024 -0.00250001
v 0.01045831 -0.01765486 -0.00250000
v 0.02000000 0.01397602 -0.00350000
v 0.02000000 0.01397602 -0.00320000
v 0.02000000 0.01395318 -0.00331480
v 0.02000000 0.01388815 -0.00341213
v 0.02000000 0.01379082 -0.00347716
v 0.02000000 0.01367602 -0.00350000
v 0.01518255 -0.01391042 -0.00343819
v 0.01162697 -0.01683304 -0.00284612
v 0.01288472 -0.01599207 -0.00284612
v 0.01547355 -0.01442604 -0.00284612
v 0.01815226 -0.01301927 -0.00284612
v 0.02091106 -0.01177689 -0.00284612
v 0.02662838 -0.00980284 -0.00284612
v 0.02373988 -0.01070344 -0.00284612
v 0.02956600 -0.00907838 -0.00284612
v 0.03254203 -0.00853271 -0.00284612
v 0.03554558 -0.00816782 -0.00284612
v 0.03856570 -0.00798504 -0.00284612
v 0.04007852 -0.00796217 -0.00284612
v 0.04007852 -0.00794786 -0.00288268
v 0.04007852 -0.00773109 -0.00320711
v 0.03853735 -0.00704727 -0.00350000
v 0.04007852 -0.00702398 -0.00350000
v 0.04007852 -0.00737010 -0.00343819
v 0.01774135 -0.01217585 -0.00350000
v 0.01789294 -0.01248701 -0.00343819
v 0.02055185 -0.01091019 -0.00350000
v 0.02068437 -0.01122993 -0.00343819
v 0.02343368 -0.00981662 -0.00350000
v 0.02354664 -0.01014379 -0.00343819
v 0.02637631 -0.00889915 -0.00350000
v 0.02646930 -0.00923254 -0.00343819
v 0.02936899 -0.00816111 -0.00350000
v 0.02944167 -0.00849951 -0.00343819
v 0.03240079 -0.00760521 -0.00350000
v 0.03245290 -0.00794738 -0.00343819
v 0.03546064 -0.00723348 -0.00350000
v 0.03549198 -0.00757817 -0.00343819
v 0.03854781 -0.00739323 -0.00343819
v 0.04007852 -0.00740666 -0.00342388
v 0.03855872 -0.00775406 -0.00320711
v 0.03552466 -0.00793768 -0.00320711
v 0.03250724 -0.00830426 -0.00320711
v 0.02951748 -0.00885245 -0.00320711
v 0.02656629 -0.00958025 -0.00320711
v 0.02366446 -0.01048501 -0.00320711
v 0.02082259 -0.01156342 -0.00320711
v 0.01805105 -0.01281153 -0.00320711
v 0.01535997 -0.01422480 -0.00320711
v -0.00795356 -0.01887907 -0.00275835
v -0.00602280 -0.01958071 -0.00275835
v -0.01900647 -0.00762905 -0.00277851
v -0.01826625 -0.00927483 -0.00275835
v -0.01605138 -0.01272916 -0.00275835
v -0.01724552 -0.01105759 -0.00275835
v -0.01469583 -0.01427273 -0.00275835
v -0.01319251 -0.01567278 -0.00275835
v -0.01155653 -0.01691523 -0.00275835
v -0.00980434 -0.01798758 -0.00275835
v -0.00403149 -0.02008545 -0.00275835
v -0.00199963 -0.02038823 -0.00275835
v 0.00005234 -0.02048598 -0.00275835
v 0.00210378 -0.02037774 -0.00275835
v 0.00413406 -0.02006459 -0.00275835
v 0.00612277 -0.01954968 -0.00275835
v 0.00804992 -0.01883818 -0.00275835
v 0.00989612 -0.01793725 -0.00275835
v -0.01918429 -0.00709020 -0.00000000
v -0.01913594 -0.00702576 -0.00000000
v -0.01906206 -0.00741254 -0.00174720
v -0.01923217 -0.00715499 -0.00000000
v 0.05380391 0.01397602 -0.00320000
v 0.05380391 0.01397602 0.00320000
v 0.00894923 0.00015372 -0.00350000
v 0.00870337 0.00208893 -0.00350000
v 0.00719002 -0.00533066 -0.00350000
v 0.00817414 -0.00364633 -0.00350000
v 0.00876998 -0.00178879 -0.00350000
v 0.00562866 0.00695920 -0.00350000
v 0.00700269 0.00557445 -0.00350000
v 0.00804409 0.00392491 -0.00350000
v 0.06460417 0.01070026 -0.00350000
v 0.06250000 0.00975602 -0.00350000
v 0.06228386 0.01077286 -0.00350000
v 0.06167283 0.01161388 -0.00350000
v 0.06387250 0.01241943 -0.00350000
v 0.06432462 0.01159657 -0.00350000
v 0.05797746 0.01122548 -0.00350000
v 0.05541222 0.01373983 -0.00350000
v 0.05875000 0.01192108 -0.00350000
v 0.05726118 0.01397259 -0.00350000
v 0.05973868 0.01224232 -0.00350000
v 0.06469999 0.00976628 -0.00350000
v 0.06460825 0.00883188 -0.00350000
v 0.06228387 0.00873918 -0.00350000
v 0.06077254 0.01213366 -0.00350000
v 0.06252885 0.01371770 -0.00350000
v 0.06326584 0.01313600 -0.00350000
v 0.00586435 -0.00676178 -0.00350000
v 0.05755463 0.01027580 -0.00350000
v 0.00426012 -0.00787170 -0.00350000
v 0.05755463 0.00923624 -0.00350000
v 0.00245353 -0.00860770 -0.00350000
v 0.06433262 0.00793436 -0.00350000
v 0.06388409 0.00710954 -0.00350000
v 0.06167283 0.00789816 -0.00350000
v 0.06000000 0.01225602 -0.00350000
v 0.06078557 0.01438990 -0.00350000
v 0.06169095 0.01414130 -0.00350000
v 0.05883513 0.01430938 -0.00350000
v 0.05891815 0.01432981 -0.00350000
v 0.05984885 0.01445359 -0.00350000
v 0.05380391 0.01367602 -0.00350000
v 0.05895420 0.00517385 -0.00350000
v 0.05875000 0.00759095 -0.00350000
v 0.05986935 0.00505783 -0.00350000
v 0.05973868 0.00726971 -0.00350000
v 0.06080579 0.00512561 -0.00350000
v 0.06077254 0.00737838 -0.00350000
v 0.06328057 0.00639032 -0.00350000
v 0.06254612 0.00580542 -0.00350000
v 0.06171008 0.00537816 -0.00350000
v 0.05884982 0.00511480 -0.00350000
v 0.05797746 0.00828656 -0.00350000
v -0.00849676 -0.00281377 -0.00350000
v -0.00768535 -0.00458777 -0.00350000
v -0.00502321 -0.00740808 -0.00350000
v -0.00650887 -0.00614385 -0.00350000
v -0.00141795 -0.00883752 -0.00350000
v -0.00329893 -0.00832042 -0.00350000
v 0.00053038 -0.00893482 -0.00350000
v 0.04385119 -0.00702398 -0.00350000
v 0.04468151 -0.00698560 -0.00350000
v 0.05011581 -0.00448576 -0.00350000
v 0.05792164 0.00445568 -0.00350000
v 0.05726333 0.00379615 -0.00350000
v 0.05068523 -0.00388024 -0.00350000
v 0.04918546 -0.00527281 -0.00350000
v 0.04815733 -0.00592697 -0.00350000
v 0.04705025 -0.00643624 -0.00350000
v 0.04588451 -0.00679128 -0.00350000
v 0.05985389 0.00450469 0.00250000
v 0.06021620 0.00464807 0.00250000
v 0.06019565 0.00470636 0.00284612
v 0.06033288 0.00476711 0.00288142
v 0.05973170 0.00476322 0.00320000
v 0.05792093 0.00323263 0.00300000
v 0.05797573 0.00318567 0.00284612
v 0.05853343 0.00374440 0.00284612
v 0.05780026 0.00333604 0.00320711
v 0.05838275 0.00391960 0.00320711
v 0.05764299 0.00347080 0.00336603
v 0.05814734 0.00419328 0.00343819
v 0.05752615 0.00357093 0.00343819
v 0.05902319 0.00481523 0.00343819
v 0.05917370 0.00498030 0.00346151
v 0.05929950 0.00489443 0.00341245
v 0.05920400 0.00450279 0.00320711
v 0.05943077 0.00482905 0.00335001
v 0.06039390 0.00477156 0.00284523
v 0.06094912 0.00484693 0.00250000
v 0.05931975 0.00430278 0.00284612
v 0.05935071 0.00424929 0.00250000
v 0.05802266 0.00314545 0.00250000
v 0.05857374 0.00369754 0.00250000
v 0.05886192 0.00392795 0.00250000
v 0.05144458 -0.00453094 0.00250000
v 0.05139764 -0.00449072 0.00284612
v 0.05134284 -0.00444376 0.00300000
v 0.05122217 -0.00434036 0.00320711
v 0.05106490 -0.00420559 0.00336603
v 0.05094806 -0.00410546 0.00343819
v 0.05060800 -0.00499345 0.00320711
v 0.05035673 -0.00473426 0.00343819
v 0.04385119 -0.00752398 0.00336603
v 0.04385119 -0.00773109 0.00320711
v 0.04474674 -0.00768969 0.00320711
v 0.04385119 -0.00789001 0.00300000
v 0.04385119 -0.00796217 0.00284612
v 0.04476806 -0.00791979 0.00284612
v 0.04385119 -0.00737010 0.00343819
v 0.04471344 -0.00733024 0.00343819
v 0.04596271 -0.00712845 0.00343819
v 0.04717327 -0.00675975 0.00343819
v 0.04832293 -0.00623090 0.00343819
v 0.04939061 -0.00555158 0.00343819
v 0.05081188 -0.00520373 0.00250000
v 0.05076885 -0.00515936 0.00284612
v 0.05021530 -0.00573748 0.00250000
v 0.04974153 -0.00602845 0.00284612
v 0.04977816 -0.00607824 0.00250000
v 0.04879722 -0.00671517 0.00250000
v 0.04860621 -0.00675080 0.00284612
v 0.04863578 -0.00680508 0.00250000
v 0.04738373 -0.00731316 0.00284612
v 0.04740570 -0.00737093 0.00250000
v 0.04723239 -0.00743501 0.00250000
v 0.04609648 -0.00770522 0.00284612
v 0.04611044 -0.00776543 0.00250000
v 0.04385119 -0.00802398 0.00250000
v 0.04477376 -0.00798133 0.00250000
v 0.04556724 -0.00787564 0.00250000
v 0.04960456 -0.00584233 0.00320711
v 0.04849565 -0.00654788 0.00320711
v 0.04730159 -0.00709717 0.00320711
v 0.04604427 -0.00748011 0.00320711
v 0.05380391 0.01377985 0.00348146
v 0.05380390 0.01388815 0.00341213
v 0.05380391 0.01395748 0.00330384
v 0.05876543 0.01458184 0.00330443
v 0.05721325 0.01424993 0.00330384
v 0.05722506 0.01418162 0.00341213
v 0.05878280 0.01451392 0.00341313
v 0.05724350 0.01407491 0.00348146
v 0.05880991 0.01440798 0.00348221
v 0.05540399 0.01384334 0.00348146
v 0.05539541 0.01395130 0.00341213
v 0.05538992 0.01402040 0.00330384
v 0.05538845 0.01403889 0.00320000
v 0.05876078 0.01460002 0.00320000
v 0.05721009 0.01426821 0.00320000
v 0.05630190 0.01413263 0.00320000
v 0.05889472 0.01442886 0.00348221
v 0.05884910 0.01462176 0.00320000
v 0.05885342 0.01460350 0.00330443
v 0.05983980 0.01473468 0.00330443
v 0.06179214 0.01440370 0.00330443
v 0.06083572 0.01468568 0.00320000
v 0.06083258 0.01466718 0.00330443
v 0.06081065 0.01468987 0.00320000
v 0.05983920 0.01475343 0.00320000
v 0.06268017 0.01395475 0.00330443
v 0.06220252 0.01424477 0.00320000
v 0.06179889 0.01442121 0.00320000
v 0.06410422 0.01257880 0.00330443
v 0.06347430 0.01335175 0.00320000
v 0.06346126 0.01333825 0.00330443
v 0.06340626 0.01341627 0.00320000
v 0.06269027 0.01397057 0.00320000
v 0.06458340 0.01170671 0.00330443
v 0.06431904 0.01227511 0.00320000
v 0.06411968 0.01258944 0.00320000
v 0.06499141 0.00946314 0.00320000
v 0.06499999 0.00976693 0.00320000
v 0.06498122 0.00976689 0.00330443
v 0.06489805 0.01076054 0.00320000
v 0.06487967 0.01075677 0.00330443
v 0.06486291 0.01091879 0.00320000
v 0.06460066 0.01171405 0.00320000
v 0.06490240 0.00877289 0.00320000
v 0.06488400 0.00877658 0.00330443
v 0.06469356 0.00803251 0.00320000
v 0.06459187 0.00782536 0.00330443
v 0.06460917 0.00781809 0.00320000
v 0.06411651 0.00695118 0.00330443
v 0.06413200 0.00694061 0.00320000
v 0.06181241 0.00511620 0.00330443
v 0.06270865 0.00555325 0.00320000
v 0.06269848 0.00556902 0.00330443
v 0.06295482 0.00572253 0.00320000
v 0.06347686 0.00618893 0.00330443
v 0.06348996 0.00617549 0.00320000
v 0.06399480 0.00674910 0.00320000
v 0.06085723 0.00483005 0.00320000
v 0.06166245 0.00504048 0.00320000
v 0.06181924 0.00509872 0.00320000
v 0.06085401 0.00484854 0.00330443
v 0.05986154 0.00477671 0.00330443
v 0.05986102 0.00475795 0.00320000
v 0.06470804 0.00881187 0.00348221
v 0.06442644 0.00789491 0.00348221
v 0.06396820 0.00705223 0.00348221
v 0.06335160 0.00631744 0.00348221
v 0.06260126 0.00571987 0.00348221
v 0.06174711 0.00528336 0.00348221
v 0.06082324 0.00502534 0.00348221
v 0.05986653 0.00495610 0.00348221
v 0.05984557 0.01455531 0.00348221
v 0.06080258 0.01449025 0.00348221
v 0.06172756 0.01423626 0.00348221
v 0.06258361 0.01380349 0.00348221
v 0.06333656 0.01320920 0.00348221
v 0.06395635 0.01247711 0.00348221
v 0.06441827 0.01163643 0.00348221
v 0.06470387 0.01072071 0.00348221
v 0.06480176 0.00976650 0.00348221
v 0.05886955 0.01453527 0.00341313
v 0.05984205 0.01466461 0.00341313
v 0.06082086 0.01459806 0.00341313
v 0.06176691 0.01433829 0.00341313
v 0.06264245 0.01389566 0.00341313
v 0.06341254 0.01328784 0.00341313
v 0.06404645 0.01253907 0.00341313
v 0.06451889 0.01167925 0.00341313
v 0.06481099 0.01074268 0.00341313
v 0.06491111 0.00976674 0.00341313
v 0.06481525 0.00879037 0.00341313
v 0.06452724 0.00785253 0.00341313
v 0.06405856 0.00699065 0.00341313
v 0.06342793 0.00623913 0.00341313
v 0.06266050 0.00562795 0.00341313
v 0.06178690 0.00518150 0.00341313
v 0.06084199 0.00491761 0.00341313
v 0.05986349 0.00484679 0.00341313
v 0.06094912 0.00484693 -0.00250000
v 0.06021620 0.00464807 -0.00250000
v 0.05985389 0.00450469 -0.00250000
v 0.05935071 0.00424929 -0.00250000
v 0.05886192 0.00392795 -0.00250000
v 0.05857374 0.00369754 -0.00250000
v 0.05802266 0.00314545 -0.00250000
v 0.05144458 -0.00453094 -0.00250000
v 0.04385119 -0.00802398 -0.00250000
v 0.04477376 -0.00798133 -0.00250000
v 0.04556724 -0.00787564 -0.00250000
v 0.04611044 -0.00776543 -0.00250000
v 0.04723239 -0.00743501 -0.00250000
v 0.04740570 -0.00737093 -0.00250000
v 0.04863578 -0.00680508 -0.00250000
v 0.04879722 -0.00671517 -0.00250000
v 0.04977816 -0.00607824 -0.00250000
v 0.05021530 -0.00573748 -0.00250000
v 0.05081188 -0.00520373 -0.00250000
v 0.05876078 0.01460002 -0.00320000
v 0.05721009 0.01426821 -0.00320000
v 0.05630190 0.01413263 -0.00320000
v 0.05538845 0.01403889 -0.00320000
v 0.05973170 0.00476322 -0.00320000
v 0.05986102 0.00475795 -0.00320000
v 0.06036713 0.00476951 -0.00286117
v 0.06085723 0.00483005 -0.00320000
v 0.06166245 0.00504048 -0.00320000
v 0.06181924 0.00509872 -0.00320000
v 0.06270864 0.00555325 -0.00320000
v 0.06295482 0.00572253 -0.00320000
v 0.06348996 0.00617549 -0.00320000
v 0.06399480 0.00674910 -0.00320000
v 0.06413200 0.00694061 -0.00320000
v 0.06460917 0.00781809 -0.00320000
v 0.06469356 0.00803251 -0.00320000
v 0.06490240 0.00877289 -0.00320000
v 0.06499141 0.00946314 -0.00320000
v 0.06499999 0.00976693 -0.00320000
v 0.06489805 0.01076054 -0.00320000
v 0.06486291 0.01091879 -0.00320000
v 0.06460066 0.01171405 -0.00320000
v 0.06431904 0.01227511 -0.00320000
v 0.06411968 0.01258944 -0.00320000
v 0.06347430 0.01335175 -0.00320000
v 0.06340626 0.01341627 -0.00320000
v 0.06269027 0.01397057 -0.00320000
v 0.06220252 0.01424477 -0.00320000
v 0.06179889 0.01442121 -0.00320000
v 0.06083572 0.01468568 -0.00320000
v 0.05884910 0.01462176 -0.00320000
v 0.05934953 0.01471353 -0.00320000
v 0.05983920 0.01475343 -0.00320000
v 0.06081065 0.01468987 -0.00320000
v 0.05931975 0.00430278 -0.00284612
v 0.05918130 0.00497452 -0.00345899
v 0.05902319 0.00481523 -0.00343819
v 0.05814734 0.00419328 -0.00343819
v 0.05752615 0.00357093 -0.00343819
v 0.05764299 0.00347080 -0.00336603
v 0.05780026 0.00333604 -0.00320711
v 0.05838275 0.00391960 -0.00320711
v 0.05792093 0.00323263 -0.00300000
v 0.05853343 0.00374440 -0.00284612
v 0.05797573 0.00318567 -0.00284612
v 0.06019565 0.00470636 -0.00284612
v 0.05920400 0.00450279 -0.00320711
v 0.05945350 0.00482016 -0.00333856
v 0.05930201 0.00489295 -0.00341134
v 0.05094806 -0.00410546 -0.00343819
v 0.05106490 -0.00420559 -0.00336603
v 0.05122217 -0.00434036 -0.00320711
v 0.05134284 -0.00444376 -0.00300000
v 0.05139764 -0.00449072 -0.00284612
v 0.05060800 -0.00499345 -0.00320711
v 0.04471344 -0.00733024 -0.00343819
v 0.04385119 -0.00737010 -0.00343819
v 0.04385119 -0.00796217 -0.00284612
v 0.04476806 -0.00791979 -0.00284612
v 0.04609648 -0.00770522 -0.00284612
v 0.04738373 -0.00731316 -0.00284612
v 0.04860621 -0.00675080 -0.00284612
v 0.04974153 -0.00602845 -0.00284612
v 0.05076885 -0.00515936 -0.00284612
v 0.04596271 -0.00712845 -0.00343819
v 0.04717327 -0.00675975 -0.00343819
v 0.04832293 -0.00623090 -0.00343819
v 0.04939061 -0.00555158 -0.00343819
v 0.05035673 -0.00473426 -0.00343819
v 0.04385119 -0.00773109 -0.00320711
v 0.04474674 -0.00768969 -0.00320711
v 0.04604427 -0.00748011 -0.00320711
v 0.04730159 -0.00709717 -0.00320711
v 0.04849565 -0.00654788 -0.00320711
v 0.04960456 -0.00584233 -0.00320711
v 0.05880940 0.01440997 -0.00348146
v 0.05889425 0.01443086 -0.00348146
v 0.05984551 0.01455737 -0.00348146
v 0.06080293 0.01449228 -0.00348146
v 0.06172831 0.01423818 -0.00348146
v 0.06258472 0.01380522 -0.00348146
v 0.06333799 0.01321068 -0.00348146
v 0.06395805 0.01247827 -0.00348146
v 0.06442016 0.01163723 -0.00348146
v 0.06470589 0.01072113 -0.00348146
v 0.06480382 0.00976650 -0.00348146
v 0.06471006 0.00881146 -0.00348146
v 0.06442833 0.00789412 -0.00348146
v 0.06396990 0.00705107 -0.00348146
v 0.06335303 0.00631596 -0.00348146
v 0.06260237 0.00571814 -0.00348146
v 0.06174786 0.00528144 -0.00348146
v 0.06082360 0.00502331 -0.00348146
v 0.05986647 0.00495404 -0.00348146
v 0.05986153 0.00477649 -0.00330384
v 0.06085405 0.00484832 -0.00330384
v 0.06181249 0.00511600 -0.00330384
v 0.06269860 0.00556884 -0.00330384
v 0.06459207 0.00782527 -0.00330384
v 0.06411669 0.00695105 -0.00330384
v 0.06347702 0.00618877 -0.00330384
v 0.06488421 0.00877654 -0.00330384
v 0.06498145 0.00976689 -0.00330384
v 0.06487989 0.01075681 -0.00330384
v 0.06346142 0.01333841 -0.00330384
v 0.06410440 0.01257893 -0.00330384
v 0.06458360 0.01170679 -0.00330384
v 0.06268029 0.01395494 -0.00330384
v 0.06179222 0.01440391 -0.00330384
v 0.06083262 0.01466740 -0.00330384
v 0.05983979 0.01473490 -0.00330384
v 0.05885336 0.01460371 -0.00330384
v 0.05876537 0.01458205 -0.00330384
v 0.05986346 0.00484578 -0.00341213
v 0.06084216 0.00491662 -0.00341213
v 0.06178726 0.00518057 -0.00341213
v 0.06266104 0.00562711 -0.00341213
v 0.06342863 0.00623841 -0.00341213
v 0.06405939 0.00699009 -0.00341213
v 0.06452817 0.00785214 -0.00341213
v 0.06481624 0.00879017 -0.00341213
v 0.06491212 0.00976674 -0.00341213
v 0.06481198 0.01074288 -0.00341213
v 0.06451982 0.01167964 -0.00341213
v 0.06404728 0.01253964 -0.00341213
v 0.06341324 0.01328856 -0.00341213
v 0.06264299 0.01389651 -0.00341213
v 0.06176727 0.01433923 -0.00341213
v 0.06082103 0.01459905 -0.00341213
v 0.05984202 0.01466561 -0.00341213
v 0.05886932 0.01453625 -0.00341213
v 0.05878256 0.01451489 -0.00341213
v 0.05724350 0.01407491 -0.00348146
v 0.05722506 0.01418162 -0.00341213
v 0.05721325 0.01424993 -0.00330384
v 0.05538992 0.01402040 -0.00330384
v 0.05380391 0.01395748 -0.00330384
v 0.05539541 0.01395130 -0.00341213
v 0.05380390 0.01388815 -0.00341213
v 0.05540399 0.01384334 -0.00348146
v 0.05380391 0.01377985 -0.00348146
usemtl material_5
f 1 2 3
f 4 5 6
f 6 5 7
f 3 8 1
f 1 8 9
f 1 9 10
f 11 12 7
f 7 12 13
f 7 13 6
f 14 15 16
f 10 17 1
f 1 17 18
f 1 18 19
f 19 18 20
f 21 22 23
f 23 22 24
f 16 25 14
f 14 25 26
f 14 26 24
f 24 26 27
f 24 27 23
f 4 28 5
f 5 28 29
f 5 29 15
f 15 29 30
f 15 30 16
f 31 32 11
f 11 32 33
f 11 33 12
f 34 35 36
f 18 37 38
f 21 39 22
f 22 39 40
f 22 40 41
f 41 40 42
f 41 42 43
f 36 44 34
f 34 44 45
f 34 45 31
f 31 45 46
f 31 46 32
f 47 48 18
f 49 50 37
f 37 50 51
f 37 51 52
f 52 51 36
f 52 36 53
f 53 36 35
f 42 54 43
f 43 54 55
f 43 55 38
f 38 55 56
f 38 56 18
f 18 56 57
f 18 57 20
f 58 59 60
f 60 59 61
f 60 61 62
f 62 61 63
f 62 63 64
f 65 66 67
f 67 66 68
f 68 66 69
f 68 69 70
f 70 69 71
f 71 69 72
f 71 72 73
f 73 72 74
f 73 74 75
f 75 74 76
f 76 74 77
f 76 77 78
f 78 77 79
f 78 79 80
f 37 18 49
f 49 18 48
f 49 48 81
f 82 83 18
f 18 83 84
f 18 84 47
f 67 85 65
f 65 85 86
f 65 86 87
f 87 86 88
f 87 88 58
f 58 88 89
f 58 89 59
f 64 63 18
f 18 63 90
f 18 90 82
f 91 92 93
f 81 94 49
f 49 94 95
f 49 95 92
f 92 95 96
f 92 96 93
f 93 97 91
f 91 97 98
f 91 98 99
f 99 98 100
f 2 1 101
f 101 102 2
f 2 102 103
f 2 103 104
f 105 106 107
f 107 106 2
f 107 2 108
f 108 2 104
f 109 110 70
f 61 111 112
f 112 113 61
f 61 113 114
f 61 114 63
f 115 116 59
f 59 116 117
f 59 117 61
f 61 117 118
f 61 118 111
f 115 59 119
f 119 59 89
f 119 89 120
f 88 86 121
f 121 122 88
f 88 122 123
f 88 123 89
f 89 123 124
f 89 124 120
f 125 126 85
f 85 126 127
f 85 127 86
f 86 127 128
f 86 128 121
f 125 85 129
f 129 85 67
f 129 67 130
f 130 67 68
f 130 68 131
f 70 110 68
f 68 110 132
f 68 132 131
f 109 70 133
f 133 70 71
f 133 71 134
f 134 71 135
f 135 71 73
f 135 73 136
f 76 137 138
f 76 138 75
f 138 139 75
f 75 139 140
f 75 140 73
f 73 140 141
f 73 141 136
f 137 76 142
f 142 76 78
f 142 78 143
f 144 80 145
f 146 147 145
f 145 147 148
f 145 148 144
f 80 144 78
f 78 144 149
f 78 149 143
f 150 151 152
f 150 152 153
f 152 154 153
f 153 154 155
f 153 155 145
f 145 155 156
f 145 156 146
f 157 158 150
f 150 158 159
f 150 159 151
f 160 161 157
f 157 161 162
f 157 162 158
f 163 164 165
f 165 164 166
f 165 166 160
f 160 166 167
f 160 167 161
f 163 165 168
f 168 165 169
f 168 169 170
f 170 169 171
f 170 171 172
f 173 174 171
f 171 174 175
f 171 175 172
f 176 177 173
f 173 177 178
f 173 178 174
f 179 180 181
f 181 180 182
f 181 182 176
f 176 182 183
f 176 183 177
f 179 181 184
f 184 181 185
f 184 185 186
f 186 185 187
f 186 187 188
f 189 190 191
f 191 190 192
f 191 192 187
f 187 192 193
f 187 193 188
f 194 195 196
f 196 197 194
f 194 197 198
f 194 198 191
f 191 198 199
f 191 199 189
f 63 114 200
f 63 200 90
f 200 201 90
f 90 201 202
f 90 202 82
f 82 202 203
f 82 203 83
f 83 203 204
f 83 204 84
f 84 204 205
f 84 205 47
f 47 205 206
f 47 206 48
f 48 206 207
f 48 207 81
f 81 207 208
f 81 208 94
f 95 94 209
f 209 94 208
f 209 208 210
f 210 208 211
f 212 213 214
f 214 213 215
f 214 215 216
f 216 215 217
f 216 217 218
f 218 217 219
f 218 219 220
f 220 219 221
f 221 219 222
f 221 222 223
f 223 222 224
f 224 222 225
f 224 225 226
f 226 225 227
f 226 227 228
f 229 230 231
f 231 230 232
f 231 232 233
f 233 232 234
f 233 234 235
f 235 234 236
f 235 236 227
f 227 236 237
f 227 237 228
f 238 239 240
f 231 118 241
f 241 118 117
f 229 231 240
f 240 231 241
f 240 241 238
f 238 241 117
f 238 117 116
f 112 111 242
f 112 242 113
f 114 113 200
f 200 113 242
f 200 242 201
f 201 242 243
f 201 243 202
f 202 243 244
f 202 244 203
f 203 244 245
f 203 245 204
f 204 245 246
f 204 246 205
f 205 246 247
f 205 247 206
f 206 247 248
f 206 248 207
f 207 248 249
f 207 249 208
f 208 249 250
f 208 250 211
f 211 250 251
f 111 118 242
f 242 118 231
f 242 231 243
f 243 231 233
f 243 233 244
f 244 233 235
f 244 235 245
f 245 235 227
f 245 227 246
f 246 227 225
f 246 225 247
f 247 225 222
f 247 222 248
f 248 222 219
f 248 219 249
f 249 219 217
f 249 217 250
f 250 217 215
f 250 215 251
f 251 215 213
f 239 252 240
f 240 252 253
f 240 253 229
f 229 253 254
f 229 254 230
f 230 254 255
f 230 255 232
f 232 255 256
f 232 256 234
f 234 256 257
f 234 257 236
f 236 257 258
f 236 258 237
f 237 258 259
f 237 259 228
f 228 259 260
f 228 260 226
f 226 260 261
f 226 261 224
f 224 261 262
f 224 262 223
f 223 262 263
f 223 263 221
f 221 263 264
f 221 264 220
f 220 264 265
f 220 265 218
f 218 265 266
f 218 266 216
f 216 266 267
f 216 267 214
f 214 267 268
f 214 268 212
f 212 268 269
f 270 271 272
f 272 271 273
f 272 273 274
f 275 276 277
f 277 276 278
f 277 278 270
f 270 278 279
f 270 279 271
f 275 277 280
f 280 277 281
f 280 281 282
f 282 281 283
f 283 281 284
f 283 284 285
f 286 287 284
f 284 287 288
f 284 288 285
f 289 290 291
f 291 290 292
f 291 292 293
f 294 295 296
f 294 296 292
f 292 296 297
f 292 297 293
f 295 294 298
f 298 294 299
f 298 299 300
f 301 302 299
f 299 302 303
f 299 303 300
f 304 305 306
f 306 305 307
f 306 307 308
f 306 309 310
f 310 311 306
f 306 311 312
f 306 312 304
f 313 239 238
f 314 315 316
f 316 315 317
f 316 317 318
f 318 317 319
f 318 319 320
f 320 319 321
f 322 323 324
f 324 323 325
f 324 325 326
f 326 325 327
f 274 328 272
f 272 328 329
f 272 329 327
f 327 329 330
f 327 330 326
f 116 115 238
f 238 115 315
f 238 315 313
f 313 315 314
f 115 119 315
f 315 119 120
f 315 120 317
f 317 120 124
f 317 124 319
f 319 124 123
f 123 122 319
f 319 122 323
f 319 323 321
f 321 323 322
f 122 121 323
f 323 121 128
f 323 128 325
f 325 128 127
f 325 127 327
f 127 126 327
f 327 126 125
f 327 125 272
f 272 125 129
f 272 129 270
f 129 130 270
f 270 130 131
f 270 131 277
f 277 131 132
f 277 132 281
f 133 284 109
f 109 284 281
f 109 281 110
f 110 281 132
f 133 134 284
f 284 134 290
f 284 290 286
f 286 290 289
f 134 135 290
f 290 135 136
f 290 136 292
f 292 136 141
f 292 141 294
f 138 299 139
f 139 299 294
f 139 294 140
f 140 294 141
f 138 137 299
f 299 137 308
f 299 308 301
f 301 308 307
f 137 142 308
f 308 142 143
f 308 143 306
f 306 143 149
f 306 149 309
f 309 149 144
f 312 331 304
f 304 331 332
f 304 332 305
f 305 332 333
f 311 334 312
f 312 334 335
f 312 335 331
f 283 285 336
f 336 285 288
f 336 288 337
f 337 288 287
f 337 287 338
f 338 287 286
f 338 286 339
f 339 286 289
f 339 289 340
f 340 289 291
f 340 291 341
f 341 291 293
f 341 293 342
f 342 293 297
f 342 297 343
f 343 297 296
f 343 296 344
f 344 296 295
f 344 295 345
f 345 295 298
f 345 298 346
f 346 298 300
f 346 300 347
f 347 300 303
f 347 303 348
f 348 303 302
f 348 302 349
f 349 302 301
f 349 301 333
f 333 301 307
f 333 307 305
f 336 350 283
f 283 350 351
f 283 351 282
f 282 351 352
f 282 352 280
f 280 352 353
f 280 353 275
f 275 353 354
f 275 354 276
f 276 354 355
f 276 355 278
f 278 355 279
f 326 330 356
f 355 357 279
f 279 357 358
f 279 358 271
f 271 358 359
f 271 359 273
f 273 359 360
f 273 360 274
f 274 360 361
f 274 361 328
f 328 361 362
f 328 362 329
f 329 362 330
f 330 362 363
f 330 363 356
f 356 364 326
f 326 364 365
f 326 365 324
f 324 365 366
f 324 366 322
f 366 367 322
f 322 367 368
f 322 368 321
f 321 368 369
f 321 369 320
f 320 369 370
f 320 370 318
f 370 371 318
f 318 371 372
f 318 372 316
f 372 373 316
f 316 373 374
f 316 374 314
f 314 374 375
f 314 375 313
f 313 375 376
f 313 376 239
f 239 376 252
f 377 378 379
f 379 380 377
f 377 380 381
f 377 381 382
f 197 196 383
f 384 190 189
f 384 189 385
f 252 384 253
f 253 384 385
f 253 385 254
f 254 385 386
f 254 386 255
f 255 386 387
f 388 257 387
f 387 257 256
f 387 256 255
f 262 261 389
f 389 261 260
f 389 260 390
f 390 260 259
f 390 259 388
f 388 259 258
f 388 258 257
f 262 389 263
f 263 389 391
f 263 391 264
f 264 391 392
f 264 392 265
f 265 392 393
f 265 393 266
f 394 268 393
f 393 268 267
f 393 267 266
f 269 268 395
f 395 268 394
f 395 394 396
f 396 394 397
f 398 399 400
f 196 195 383
f 383 195 401
f 383 401 402
f 402 401 403
f 402 403 404
f 404 403 405
f 404 405 406
f 406 405 407
f 406 407 408
f 408 407 409
f 408 409 410
f 410 409 411
f 410 411 412
f 412 411 413
f 412 413 414
f 414 413 398
f 414 398 415
f 415 398 400
f 400 416 415
f 415 416 417
f 415 417 414
f 414 417 418
f 414 418 412
f 412 418 419
f 412 419 410
f 410 419 420
f 410 420 408
f 408 420 421
f 408 421 406
f 406 421 422
f 406 422 404
f 404 422 423
f 404 423 402
f 402 423 424
f 402 424 383
f 383 424 425
f 383 425 197
f 197 425 198
f 416 397 417
f 417 397 394
f 417 394 418
f 418 394 393
f 418 393 419
f 419 393 392
f 419 392 420
f 420 392 391
f 420 391 421
f 421 391 389
f 421 389 422
f 422 389 390
f 422 390 423
f 423 390 388
f 423 388 424
f 424 388 387
f 424 387 425
f 425 387 386
f 425 386 198
f 198 386 385
f 198 385 199
f 199 385 189
f 354 426 427
f 428 156 429
f 429 156 155
f 331 428 332
f 332 428 429
f 332 429 333
f 333 429 349
f 430 345 346
f 430 346 431
f 431 346 347
f 431 347 348
f 345 430 344
f 344 430 432
f 344 432 343
f 433 341 432
f 432 341 342
f 432 342 343
f 338 339 433
f 433 339 340
f 433 340 341
f 337 434 336
f 336 434 435
f 336 435 350
f 354 353 426
f 426 353 352
f 426 352 435
f 435 352 351
f 435 351 350
f 359 358 436
f 436 358 357
f 436 357 427
f 427 357 355
f 427 355 354
f 437 361 436
f 436 361 360
f 436 360 359
f 438 363 437
f 437 363 362
f 437 362 361
f 365 364 438
f 438 364 356
f 438 356 363
f 366 439 367
f 367 439 440
f 367 440 368
f 372 371 441
f 441 371 370
f 441 370 440
f 440 370 369
f 440 369 368
f 372 441 373
f 373 441 442
f 373 442 374
f 374 442 375
f 375 442 443
f 375 443 376
f 376 443 384
f 376 384 252
f 155 154 429
f 429 154 431
f 429 431 349
f 349 431 348
f 154 152 431
f 431 152 151
f 431 151 430
f 430 151 159
f 430 159 432
f 161 433 162
f 162 433 432
f 162 432 158
f 158 432 159
f 161 167 433
f 433 167 434
f 433 434 338
f 338 434 337
f 167 166 434
f 434 166 164
f 434 164 435
f 435 164 163
f 435 163 426
f 426 163 168
f 426 168 427
f 168 170 427
f 427 170 172
f 427 172 436
f 436 172 175
f 436 175 437
f 177 438 178
f 178 438 437
f 178 437 174
f 174 437 175
f 177 183 438
f 438 183 439
f 438 439 365
f 365 439 366
f 183 182 439
f 439 182 180
f 439 180 440
f 440 180 179
f 440 179 441
f 441 179 184
f 441 184 442
f 184 186 442
f 442 186 188
f 442 188 443
f 443 188 193
f 443 193 384
f 384 193 192
f 384 192 190
f 310 309 311
f 311 309 444
f 309 144 444
f 444 144 445
f 444 445 446
f 446 445 147
f 446 147 428
f 428 147 146
f 428 146 156
f 428 331 446
f 446 331 335
f 446 335 444
f 444 335 447
f 444 447 311
f 377 105 378
f 378 105 107
f 378 107 448
f 448 107 449
f 105 450 451
f 382 452 453
f 105 377 450
f 450 377 382
f 450 382 454
f 454 382 453
f 455 106 456
f 456 106 105
f 456 105 457
f 457 105 451
f 458 459 460
f 461 462 460
f 460 462 463
f 460 463 458
f 464 465 466
f 466 465 467
f 466 467 468
f 458 469 459
f 459 469 470
f 459 470 471
f 472 473 461
f 461 473 474
f 461 474 462
f 475 476 477
f 477 476 478
f 477 478 479
f 470 480 471
f 471 480 481
f 471 481 482
f 483 484 472
f 472 484 485
f 472 485 473
f 467 486 468
f 468 486 487
f 468 487 483
f 483 487 488
f 483 488 484
f 475 452 476
f 476 452 382
f 476 382 464
f 464 382 489
f 464 489 465
f 490 491 492
f 492 491 493
f 492 493 494
f 494 493 495
f 481 496 482
f 482 496 497
f 482 497 495
f 495 497 498
f 495 498 494
f 499 478 490
f 490 478 500
f 490 500 491
f 145 501 153
f 153 501 502
f 503 160 504
f 504 160 157
f 504 157 502
f 502 157 150
f 502 150 153
f 505 171 506
f 506 171 169
f 506 169 503
f 503 169 165
f 503 165 160
f 403 401 479
f 479 401 195
f 479 195 507
f 507 195 505
f 505 195 194
f 505 194 191
f 508 399 478
f 399 398 478
f 478 398 413
f 478 413 411
f 411 409 478
f 478 409 407
f 478 407 479
f 479 407 405
f 479 405 403
f 191 187 505
f 505 187 185
f 505 185 181
f 181 176 505
f 505 176 173
f 505 173 171
f 509 508 510
f 499 511 478
f 478 511 512
f 478 512 508
f 508 512 513
f 508 513 510
f 514 515 516
f 514 516 510
f 510 516 517
f 510 517 509
f 22 41 466
f 466 41 464
f 464 41 43
f 464 43 476
f 476 43 38
f 476 38 478
f 478 38 37
f 478 37 500
f 500 37 52
f 500 52 491
f 491 52 53
f 491 53 493
f 53 35 493
f 493 35 34
f 493 34 495
f 495 34 31
f 495 31 482
f 482 31 11
f 482 11 471
f 471 11 7
f 471 7 459
f 459 7 5
f 459 5 460
f 460 5 15
f 460 15 461
f 461 15 14
f 461 14 472
f 472 14 24
f 472 24 483
f 483 24 22
f 483 22 468
f 468 22 466
f 518 519 520
f 520 521 522
f 523 524 525
f 523 525 526
f 526 525 527
f 526 527 528
f 528 527 529
f 528 529 530
f 531 51 50
f 36 51 532
f 532 51 531
f 532 531 533
f 533 531 534
f 533 534 535
f 521 520 536
f 536 520 519
f 536 519 537
f 535 534 522
f 522 534 538
f 522 538 520
f 520 538 539
f 520 539 518
f 524 540 525
f 525 540 541
f 525 541 542
f 49 530 50
f 50 530 529
f 50 529 531
f 531 529 527
f 531 527 534
f 534 527 525
f 534 525 538
f 538 525 542
f 538 542 539
f 543 540 544
f 544 540 524
f 544 524 545
f 545 524 523
f 545 523 546
f 546 523 526
f 546 526 547
f 547 526 528
f 547 528 548
f 548 528 530
f 548 530 92
f 92 530 49
f 545 546 549
f 547 548 550
f 551 552 553
f 554 555 556
f 93 96 557
f 557 558 93
f 93 558 559
f 93 559 97
f 97 559 560
f 97 560 98
f 98 560 561
f 98 561 100
f 100 561 562
f 100 562 99
f 99 562 550
f 99 550 91
f 91 550 548
f 91 548 92
f 543 544 563
f 563 544 564
f 563 564 565
f 565 564 566
f 565 566 567
f 567 566 568
f 568 566 569
f 568 569 570
f 570 569 571
f 570 571 572
f 572 571 573
f 573 571 574
f 573 574 575
f 555 576 556
f 556 576 577
f 556 577 574
f 574 577 578
f 574 578 575
f 544 545 564
f 564 545 549
f 564 549 566
f 566 549 579
f 566 579 569
f 569 579 580
f 569 580 571
f 571 580 581
f 571 581 574
f 574 581 582
f 574 582 556
f 556 582 553
f 556 553 554
f 554 553 552
f 546 547 549
f 549 547 550
f 549 550 579
f 579 550 562
f 579 562 580
f 580 562 561
f 580 561 581
f 581 561 560
f 581 560 582
f 582 560 559
f 582 559 553
f 553 559 558
f 553 558 551
f 551 558 557
f 96 95 557
f 557 95 209
f 557 209 551
f 551 209 210
f 551 210 552
f 552 210 211
f 552 211 554
f 554 211 251
f 554 251 555
f 555 251 213
f 555 213 576
f 576 213 212
f 20 101 19
f 19 101 1
f 56 55 57
f 57 55 583
f 20 57 101
f 101 57 583
f 101 583 102
f 102 583 584
f 102 584 103
f 103 584 104
f 104 584 585
f 104 585 108
f 108 585 449
f 108 449 107
f 586 587 588
f 586 588 589
f 589 588 590
f 589 590 591
f 592 54 42
f 583 55 54
f 54 592 583
f 583 592 593
f 583 593 584
f 584 593 594
f 584 594 585
f 585 594 595
f 585 595 449
f 586 596 587
f 587 596 597
f 587 597 598
f 40 591 42
f 42 591 590
f 42 590 592
f 592 590 588
f 592 588 593
f 593 588 587
f 593 587 594
f 594 587 598
f 594 598 595
f 599 591 40
f 596 586 600
f 600 586 601
f 600 601 602
f 603 604 605
f 605 604 606
f 605 606 602
f 602 606 607
f 602 607 600
f 608 609 603
f 603 609 610
f 603 610 604
f 611 612 613
f 613 612 614
f 613 614 608
f 608 614 615
f 608 615 609
f 616 617 611
f 611 617 618
f 611 618 612
f 619 620 621
f 621 620 622
f 621 622 623
f 623 622 624
f 623 624 616
f 616 624 625
f 616 625 617
f 619 621 626
f 626 621 627
f 626 627 628
f 628 627 629
f 628 629 630
f 630 629 631
f 630 631 632
f 633 634 635
f 635 634 636
f 635 636 637
f 637 636 638
f 637 638 631
f 631 638 639
f 631 639 632
f 640 641 633
f 633 641 642
f 633 642 634
f 633 643 640
f 640 643 644
f 640 644 645
f 645 644 535
f 645 535 522
f 44 36 532
f 646 13 647
f 647 13 12
f 647 12 648
f 648 12 33
f 648 33 649
f 649 33 32
f 649 32 650
f 650 32 46
f 650 46 651
f 651 46 45
f 651 45 652
f 652 45 44
f 652 44 653
f 653 44 532
f 40 39 599
f 599 39 21
f 599 21 654
f 654 21 23
f 654 23 655
f 655 23 27
f 655 27 656
f 656 27 26
f 656 26 657
f 657 26 25
f 657 25 658
f 658 25 16
f 658 16 659
f 659 16 30
f 659 30 660
f 660 30 29
f 660 29 661
f 661 29 28
f 661 28 662
f 662 28 4
f 662 4 646
f 646 4 6
f 646 6 13
f 586 589 601
f 601 589 663
f 601 663 602
f 602 663 664
f 602 664 605
f 605 664 665
f 605 665 603
f 603 665 666
f 603 666 608
f 608 666 667
f 608 667 613
f 613 667 668
f 613 668 611
f 611 668 669
f 611 669 616
f 616 669 670
f 616 670 623
f 623 670 671
f 623 671 621
f 621 671 672
f 621 672 627
f 627 672 673
f 627 673 629
f 629 673 674
f 629 674 631
f 631 674 675
f 631 675 637
f 637 675 676
f 637 676 635
f 635 676 677
f 635 677 633
f 633 677 678
f 633 678 643
f 643 678 679
f 643 679 644
f 644 679 680
f 644 680 535
f 535 680 533
f 589 591 663
f 663 591 599
f 663 599 664
f 664 599 654
f 664 654 665
f 665 654 655
f 665 655 666
f 666 655 656
f 666 656 667
f 667 656 657
f 667 657 668
f 668 657 658
f 668 658 669
f 669 658 659
f 669 659 670
f 670 659 660
f 670 660 671
f 671 660 661
f 671 661 672
f 672 661 662
f 672 662 673
f 673 662 646
f 673 646 674
f 674 646 647
f 674 647 675
f 675 647 648
f 675 648 676
f 676 648 649
f 676 649 677
f 677 649 650
f 677 650 678
f 678 650 651
f 678 651 679
f 679 651 652
f 679 652 680
f 680 652 653
f 680 653 533
f 533 653 532
f 681 537 682
f 682 537 519
f 682 519 683
f 683 519 518
f 683 518 684
f 684 518 539
f 684 539 685
f 685 539 542
f 685 542 686
f 686 542 541
f 686 541 687
f 687 541 540
f 687 540 688
f 688 540 543
f 576 689 577
f 577 689 690
f 577 690 578
f 578 690 691
f 578 691 575
f 575 691 692
f 575 692 573
f 573 692 693
f 573 693 572
f 572 693 694
f 572 694 570
f 570 694 695
f 570 695 568
f 568 695 696
f 568 696 567
f 567 696 697
f 567 697 565
f 565 697 698
f 565 698 563
f 563 698 699
f 563 699 543
f 543 699 688
f 576 212 689
f 689 212 269
f 596 700 597
f 597 700 701
f 597 701 598
f 598 701 702
f 598 702 595
f 595 702 703
f 595 703 449
f 449 703 448
f 641 640 536
f 704 705 706
f 706 705 707
f 706 707 681
f 681 707 708
f 681 708 537
f 536 640 521
f 521 640 645
f 521 645 522
f 536 537 641
f 641 537 708
f 641 708 642
f 642 708 709
f 642 709 634
f 634 709 710
f 634 710 636
f 636 710 711
f 636 711 638
f 638 711 712
f 638 712 639
f 639 712 713
f 639 713 632
f 632 713 714
f 632 714 630
f 630 714 715
f 630 715 628
f 628 715 716
f 628 716 626
f 626 716 717
f 626 717 619
f 619 717 718
f 619 718 620
f 620 718 719
f 620 719 622
f 622 719 720
f 622 720 624
f 624 720 721
f 624 721 625
f 625 721 722
f 625 722 617
f 617 722 723
f 617 723 618
f 618 723 724
f 618 724 612
f 612 724 725
f 612 725 614
f 614 725 726
f 614 726 615
f 615 726 727
f 615 727 609
f 609 727 728
f 609 728 610
f 610 728 729
f 610 729 604
f 604 729 730
f 604 730 606
f 700 596 731
f 731 596 600
f 731 600 732
f 732 600 607
f 732 607 733
f 733 607 606
f 733 606 734
f 734 606 730
f 683 684 735
f 490 736 737
f 738 511 499
f 512 511 739
f 739 511 738
f 739 738 740
f 740 738 741
f 741 738 742
f 741 742 743
f 743 742 744
f 743 744 745
f 687 745 686
f 686 745 744
f 686 744 685
f 685 744 684
f 681 682 706
f 706 682 746
f 706 746 704
f 682 683 746
f 746 683 735
f 746 735 704
f 704 735 747
f 704 747 748
f 737 736 747
f 747 736 749
f 747 749 748
f 684 744 735
f 735 744 742
f 735 742 747
f 747 742 738
f 747 738 737
f 737 738 499
f 737 499 490
f 513 512 750
f 750 512 739
f 750 739 751
f 751 739 740
f 751 740 752
f 752 740 741
f 752 741 753
f 753 741 743
f 753 743 754
f 754 743 745
f 754 745 688
f 688 745 687
f 751 752 755
f 756 757 508
f 689 758 690
f 690 758 759
f 690 759 691
f 691 759 760
f 691 760 692
f 692 760 693
f 693 760 761
f 693 761 694
f 694 761 762
f 694 762 695
f 695 762 696
f 696 762 763
f 696 763 697
f 764 699 763
f 763 699 698
f 763 698 697
f 688 699 754
f 754 699 764
f 754 764 753
f 510 513 750
f 508 509 756
f 756 509 517
f 756 517 765
f 765 517 516
f 765 516 766
f 766 516 515
f 766 515 767
f 767 515 514
f 767 514 768
f 768 514 510
f 768 510 769
f 769 510 750
f 758 770 759
f 759 770 771
f 759 771 760
f 760 771 772
f 760 772 761
f 761 772 773
f 761 773 762
f 762 773 774
f 762 774 763
f 763 774 775
f 763 775 764
f 764 775 755
f 764 755 753
f 753 755 752
f 770 757 771
f 771 757 756
f 771 756 772
f 772 756 765
f 772 765 773
f 773 765 766
f 773 766 774
f 774 766 767
f 774 767 775
f 775 767 768
f 775 768 755
f 755 768 769
f 755 769 751
f 751 769 750
f 399 508 400
f 400 508 757
f 400 757 416
f 416 757 770
f 416 770 397
f 397 770 758
f 397 758 396
f 396 758 395
f 395 758 689
f 395 689 269
f 486 776 777
f 486 777 487
f 487 777 778
f 487 778 488
f 488 778 779
f 488 779 484
f 484 779 780
f 484 780 485
f 485 780 781
f 485 781 473
f 473 781 782
f 473 782 474
f 474 782 783
f 474 783 462
f 462 783 784
f 462 784 463
f 463 784 785
f 463 785 458
f 458 785 786
f 458 786 469
f 469 786 787
f 469 787 470
f 470 787 788
f 470 788 480
f 480 788 789
f 480 789 481
f 481 789 790
f 481 790 496
f 496 790 791
f 496 791 497
f 497 791 792
f 497 792 498
f 498 792 793
f 498 793 494
f 494 793 794
f 494 794 492
f 492 794 736
f 492 736 490
f 705 704 748
f 748 795 705
f 705 795 796
f 705 796 707
f 707 796 708
f 708 796 797
f 708 797 709
f 709 797 798
f 709 798 710
f 716 715 799
f 799 715 714
f 799 714 800
f 800 714 713
f 800 713 801
f 801 713 712
f 801 712 798
f 798 712 711
f 798 711 710
f 716 799 717
f 717 799 802
f 717 802 718
f 718 802 803
f 718 803 719
f 719 803 804
f 719 804 720
f 726 725 805
f 805 725 724
f 805 724 806
f 806 724 723
f 806 723 807
f 807 723 722
f 807 722 804
f 804 722 721
f 804 721 720
f 726 805 727
f 727 805 808
f 727 808 728
f 728 808 809
f 728 809 729
f 729 809 810
f 729 810 730
f 730 810 734
f 734 810 811
f 734 811 733
f 733 811 732
f 732 811 812
f 732 812 731
f 731 812 813
f 731 813 700
f 748 749 795
f 795 749 814
f 795 814 796
f 796 814 815
f 796 815 797
f 797 815 816
f 797 816 798
f 798 816 817
f 798 817 801
f 801 817 818
f 801 818 800
f 800 818 819
f 800 819 799
f 799 819 820
f 799 820 802
f 802 820 821
f 802 821 803
f 803 821 822
f 803 822 804
f 804 822 823
f 804 823 807
f 807 823 824
f 807 824 806
f 806 824 825
f 806 825 805
f 805 825 826
f 805 826 808
f 808 826 827
f 808 827 809
f 809 827 828
f 809 828 810
f 810 828 829
f 810 829 811
f 811 829 830
f 811 830 812
f 812 830 831
f 812 831 813
f 813 831 832
f 749 736 814
f 814 736 794
f 814 794 815
f 815 794 793
f 815 793 816
f 816 793 792
f 816 792 817
f 817 792 791
f 817 791 818
f 818 791 790
f 818 790 819
f 819 790 789
f 819 789 820
f 820 789 788
f 820 788 821
f 821 788 787
f 821 787 822
f 822 787 786
f 822 786 823
f 823 786 785
f 823 785 824
f 824 785 784
f 824 784 825
f 825 784 783
f 825 783 826
f 826 783 782
f 826 782 827
f 827 782 781
f 827 781 828
f 828 781 780
f 828 780 829
f 829 780 779
f 829 779 830
f 830 779 778
f 830 778 831
f 831 778 777
f 831 777 832
f 832 777 776
f 776 833 834
f 776 834 832
f 832 834 835
f 832 835 813
f 813 835 701
f 813 701 700
f 836 703 702
f 837 448 703
f 703 836 837
f 837 836 838
f 837 838 839
f 839 838 840
f 839 840 841
f 776 486 833
f 833 486 467
f 833 467 465
f 489 841 465
f 465 841 840
f 465 840 833
f 833 840 838
f 833 838 834
f 834 838 836
f 834 836 835
f 835 836 702
f 835 702 701
f 489 382 381
f 489 381 841
f 841 381 380
f 841 380 839
f 839 380 379
f 839 379 837
f 837 379 378
f 837 378 448
f 455 3 106
f 106 3 2
f 501 79 502
f 502 79 77
f 502 77 504
f 504 77 74
f 504 74 503
f 503 74 72
f 503 72 506
f 506 72 69
f 506 69 505
f 505 69 66
f 505 66 507
f 507 66 65
f 507 65 479
f 479 65 87
f 479 87 477
f 477 87 58
f 477 58 475
f 475 58 60
f 475 60 452
f 452 60 62
f 452 62 453
f 453 62 64
f 453 64 454
f 454 64 18
f 454 18 450
f 450 18 17
f 450 17 451
f 451 17 10
f 451 10 457
f 457 10 9
f 457 9 456
f 456 9 8
f 456 8 455
f 455 8 3
f 79 501 80
f 80 501 145
