# Exported from USD: /mycobot_pro450/mygripper_f100/Geometry/f100_base_link/joint1_right_link/SL_R_Link/SL_R_Link
mtllib SL_R_Link.mtl

g SL_R_Link
v 0.06422224 0.01207471 0.00350000
v 0.06184163 0.01148235 0.00350000
v 0.06232589 0.01070159 0.00350000
v 0.06022801 0.00730752 0.00350000
v 0.05972160 0.00454877 0.00350000
v 0.06111149 0.00755963 0.00350000
v 0.06190987 0.00550426 0.00350000
v 0.06469541 0.00980032 0.00350000
v 0.06249541 0.00979861 0.00350000
v 0.06465354 0.00917066 0.00350000
v 0.06232729 0.00889538 0.00350000
v 0.06184424 0.00811387 0.00350000
v 0.06413192 0.00756526 0.00350000
v 0.06446540 0.00834435 0.00350000
v 0.06238936 0.00575205 0.00350000
v 0.06307676 0.00624769 0.00350000
v 0.06366398 0.00685872 0.00350000
v 0.06469023 0.01001732 0.00350000
v 0.06463397 0.01055411 0.00350000
v 0.06453896 0.01103795 0.00350000
v 0.05786885 0.01111111 0.00350000
v 0.05848728 0.01179055 0.00350000
v 0.05409306 0.01664818 0.00350000
v 0.06110802 0.01203545 0.00350000
v 0.06163371 0.01548638 0.00350000
v 0.06022415 0.01228619 0.00350000
v 0.06072054 0.01607060 0.00350000
v 0.05930939 0.01220071 0.00350000
v 0.05973431 0.01652066 0.00350000
v 0.05869462 0.01682763 0.00350000
v 0.06376293 0.01305666 0.00350000
v 0.06317016 0.01396430 0.00350000
v 0.06245569 0.01477960 0.00350000
v 0.05999541 0.00729668 0.00350000
v 0.05931311 0.00739158 0.00350000
v 0.05485637 0.00256821 0.00350000
v 0.05849037 0.00780046 0.00350000
v 0.04992572 0.00075665 0.00350000
v 0.05787089 0.00847895 0.00350000
v 0.04493551 -0.00088376 0.00350000
v 0.03989169 -0.00235106 0.00350000
v 0.00856659 -0.00151775 0.00350000
v 0.00828195 -0.00266446 0.00350000
v 0.01930114 -0.00645741 0.00350000
v 0.00884261 -0.00743650 0.00350000
v 0.01408032 -0.00703717 0.00350000
v 0.00726249 -0.00479022 0.00350000
v 0.04132606 0.01023726 0.00350000
v 0.03946818 0.00902154 0.00350000
v 0.05753833 0.00933540 0.00350000
v 0.05762210 0.01698540 0.00350000
v 0.05653805 0.01699084 0.00350000
v 0.05604732 0.01694282 0.00350000
v 0.00784456 -0.00376203 0.00350000
v 0.04680734 0.01476518 0.00350000
v 0.04608863 0.01432138 0.00350000
v 0.05753762 0.01025414 0.00350000
v 0.00875635 -0.00001900 0.00350000
v 0.03480026 -0.00364351 0.00350000
v 0.00867455 -0.00066497 0.00350000
v 0.02966728 -0.00475957 0.00350000
v 0.02449886 -0.00569791 0.00350000
v 0.04554042 0.01383971 0.00350000
v 0.04475133 0.01305858 0.00350000
v 0.04309024 0.01158534 0.00350000
v 0.03752654 0.00794466 0.00350000
v 0.03551147 0.00701237 0.00350000
v 0.03343374 0.00622964 0.00350000
v 0.05172301 0.01618207 0.00350000
v 0.04937863 0.01560043 0.00350000
v 0.04748354 0.01503958 0.00350000
v 0.02583045 0.00472070 0.00350000
v 0.02185001 0.00442018 0.00350000
v 0.01985789 0.00430221 0.00350000
v 0.01786171 0.00425385 0.00350000
v 0.03130441 0.00560065 0.00350000
v 0.02913485 0.00512874 0.00350000
v 0.02693664 0.00481644 0.00350000
v 0.00573844 -0.00673691 0.00350000
v 0.00574267 -0.00700275 0.00350000
v 0.00583364 -0.00648867 0.00350000
v 0.00584573 -0.00724783 0.00350000
v 0.00654648 -0.00573006 0.00350000
v 0.00594907 -0.00634812 0.00350000
v 0.00645793 -0.00755823 0.00350000
v 0.00627675 -0.00754241 0.00350000
v 0.00603275 -0.00743681 0.00350000
v 0.01157558 0.00430345 0.00350000
v 0.01115096 0.00399371 0.00350000
v 0.01044778 0.00334820 0.00350000
v 0.00984528 0.00260782 0.00350000
v 0.00935613 0.00178814 0.00350000
v 0.00899059 0.00090636 0.00350000
v 0.00639096 -0.00785821 0.00179327
v 0.00647088 -0.00785796 0.00175000
v 0.00647088 -0.00785796 0.00320000
v 0.00592143 -0.00772125 0.00201573
v 0.00621205 -0.00783535 0.00320000
v 0.00586348 -0.00768449 0.00320000
v 0.00574274 -0.00758744 0.00205000
v 0.00605967 -0.00778869 0.00196069
v 0.00613859 -0.00781617 0.00192395
v 0.00627936 -0.00784782 0.00185238
v 0.00576317 -0.00760612 0.00320000
v 0.00559630 -0.00741452 0.00320000
v 0.00550591 -0.00724652 0.00205000
v 0.00550591 -0.00724652 0.00320000
v 0.00544907 -0.00706440 0.00320000
v 0.00542887 -0.00681113 0.00205000
v 0.00574393 -0.00612922 0.00320000
v 0.00574393 -0.00612922 0.00205000
v 0.00557904 -0.00633000 0.00320000
v 0.00554709 -0.00638509 0.00205000
v 0.00544303 -0.00668463 0.00320000
v 0.00542887 -0.00681113 0.00320000
v -0.00499597 -0.00520003 0.00175000
v -0.00500000 -0.00000388 0.00175000
v -0.00499597 -0.00520003 -0.00175000
v -0.00500000 -0.00000388 -0.00175000
v 0.01153745 0.00443048 0.00347185
v 0.01108647 0.00407509 0.00348146
v 0.01037220 0.00341940 0.00348146
v 0.00976021 0.00266736 0.00348146
v 0.00926334 0.00183475 0.00348146
v 0.00889204 0.00093907 0.00348146
v 0.00865411 -0.00000088 0.00348146
v 0.00857102 -0.00065703 0.00348146
v 0.00837543 -0.00064204 0.00320000
v 0.00839392 -0.00064345 0.00330384
v 0.00846095 0.00003336 0.00320000
v 0.00847921 0.00003012 0.00330384
v 0.00867497 0.00090545 0.00320000
v 0.00872346 0.00099502 0.00330384
v 0.00870586 0.00100086 0.00320000
v 0.00910462 0.00191448 0.00330384
v 0.00908805 0.00192280 0.00320000
v 0.00931853 0.00234430 0.00320000
v 0.00961468 0.00276919 0.00330384
v 0.00959948 0.00277982 0.00320000
v 0.01024292 0.00354120 0.00330384
v 0.01022942 0.00355392 0.00320000
v 0.01150241 0.00455007 0.00337165
v 0.01149199 0.00458548 0.00330402
v 0.01097615 0.00421430 0.00330384
v 0.01148818 0.00459862 0.00325733
v 0.01027240 0.00359912 0.00320000
v 0.01096464 0.00422883 0.00320000
v 0.01148661 0.00460419 0.00320000
v 0.00846304 -0.00064875 0.00341213
v 0.00854747 0.00001802 0.00341213
v 0.00878926 0.00097318 0.00341213
v 0.00916657 0.00188336 0.00341213
v 0.00967148 0.00272944 0.00341213
v 0.01029338 0.00349366 0.00341213
v 0.01101921 0.00415996 0.00341213
v 0.01151254 0.00451577 0.00341246
v 0.00846434 -0.00149964 0.00348146
v 0.00818310 -0.00263266 0.00348146
v 0.00775093 -0.00371713 0.00348146
v 0.00717581 -0.00473305 0.00348146
v 0.00646835 -0.00566167 0.00348146
v 0.00587806 -0.00627235 0.00348146
v 0.00575661 -0.00614275 0.00330384
v 0.00632074 -0.00553247 0.00320000
v 0.00633469 -0.00554468 0.00330384
v 0.00677501 -0.00496580 0.00320000
v 0.00702754 -0.00463525 0.00330384
v 0.00701206 -0.00462504 0.00320000
v 0.00759078 -0.00364033 0.00330384
v 0.00757406 -0.00363231 0.00320000
v 0.00801401 -0.00257827 0.00330384
v 0.00799636 -0.00257259 0.00320000
v 0.00811369 -0.00217441 0.00320000
v 0.00828945 -0.00146865 0.00330384
v 0.00827119 -0.00146542 0.00320000
v 0.00835771 -0.00148075 0.00341213
v 0.00808001 -0.00259950 0.00341213
v 0.00765328 -0.00367030 0.00341213
v 0.00708541 -0.00467342 0.00341213
v 0.00638686 -0.00559034 0.00341213
v 0.00580401 -0.00619333 0.00341213
v 0.00561172 -0.00740422 0.00330384
v 0.00574552 -0.00643375 0.00348146
v 0.00563619 -0.00671881 0.00348146
v 0.00564105 -0.00702409 0.00348146
v 0.00575940 -0.00730553 0.00348146
v 0.00597416 -0.00752253 0.00348146
v 0.00625436 -0.00764380 0.00348146
v 0.00646241 -0.00766197 0.00348146
v 0.00647008 -0.00783943 0.00330384
v 0.00621605 -0.00781724 0.00330384
v 0.00587394 -0.00766918 0.00330384
v 0.00546722 -0.00706059 0.00330384
v 0.00546129 -0.00668786 0.00330384
v 0.00559477 -0.00633981 0.00330384
v 0.00646709 -0.00777017 0.00341213
v 0.00623100 -0.00774955 0.00341213
v 0.00591306 -0.00761194 0.00341213
v 0.00566936 -0.00736570 0.00341213
v 0.00553507 -0.00704634 0.00341213
v 0.00552955 -0.00669994 0.00341213
v 0.00565361 -0.00637647 0.00341213
v 0.00867497 0.00090545 0.00205000
v 0.00837543 -0.00064204 0.00205000
v 0.00931853 0.00234430 0.00205000
v 0.01145216 0.00458163 0.00186481
v 0.01147718 0.00459804 0.00181078
v 0.01148661 0.00460419 0.00175000
v 0.01027240 0.00359912 0.00205000
v 0.01106595 0.00430759 0.00205000
v 0.01121923 0.00442116 0.00202716
v 0.01135642 0.00451737 0.00196213
v -0.00497716 -0.00000386 0.00186481
v -0.00491213 -0.00000381 0.00196213
v -0.00489301 0.00043303 0.00196213
v -0.00481480 -0.00000373 0.00202716
v -0.00480383 -0.00000372 0.00203146
v -0.00478513 0.00042349 0.00203146
v 0.00097675 0.00459739 0.00205000
v 0.00099832 0.00469895 0.00203146
v 0.00057650 0.00476912 0.00203146
v 0.00056404 0.00466603 0.00205000
v -0.00027748 0.00479581 0.00203146
v -0.00027148 0.00469215 0.00205000
v -0.00112267 0.00467081 0.00203146
v -0.00109841 0.00456985 0.00205000
v -0.00193236 0.00439805 0.00203146
v -0.00189059 0.00430298 0.00205000
v -0.00268092 0.00398617 0.00203146
v -0.00262297 0.00390001 0.00205000
v -0.00334467 0.00344819 0.00203146
v -0.00327237 0.00337366 0.00205000
v -0.00390262 0.00280114 0.00203146
v -0.00381827 0.00274059 0.00205000
v -0.00433712 0.00206548 0.00203146
v -0.00424337 0.00202083 0.00205000
v -0.00463443 0.00126448 0.00203146
v -0.00453425 0.00123715 0.00205000
v -0.00468170 0.00041433 0.00205000
v -0.00470000 -0.00000364 0.00205000
v -0.00436845 0.00243241 0.00175000
v -0.00451423 0.00214982 0.00175000
v -0.00449749 0.00214185 0.00185384
v -0.00482367 0.00131612 0.00175000
v -0.00480579 0.00131124 0.00185384
v -0.00484003 0.00125465 0.00175000
v -0.00496206 0.00043915 0.00185384
v -0.00498053 0.00044078 0.00175000
v -0.00498146 -0.00000386 0.00185384
v -0.00406198 0.00291552 0.00175000
v -0.00404692 0.00290471 0.00185384
v -0.00361565 0.00345356 0.00175000
v -0.00346834 0.00357569 0.00185384
v -0.00348125 0.00358900 0.00175000
v -0.00278004 0.00413356 0.00185384
v -0.00279039 0.00414894 0.00175000
v -0.00028773 0.00497314 0.00185384
v -0.00116852 0.00486154 0.00175000
v -0.00116418 0.00484351 0.00185384
v -0.00147516 0.00477744 0.00175000
v -0.00200381 0.00456067 0.00185384
v -0.00201127 0.00457764 0.00175000
v -0.00263006 0.00425238 0.00175000
v 0.00060004 0.00496386 0.00175000
v -0.00022529 0.00499492 0.00175000
v -0.00028881 0.00499165 0.00175000
v 0.00059782 0.00494546 0.00185384
v 0.00103524 0.00487270 0.00185384
v 0.00103909 0.00489084 0.00175000
v -0.00473891 0.00129299 0.00196213
v -0.00443490 0.00211204 0.00196213
v -0.00399060 0.00286429 0.00196213
v -0.00342007 0.00352593 0.00196213
v -0.00274135 0.00407603 0.00196213
v -0.00197592 0.00449720 0.00196213
v -0.00114798 0.00477610 0.00196213
v -0.00028373 0.00490393 0.00196213
v 0.00058950 0.00487663 0.00196213
v 0.00102083 0.00480489 0.00196213
v -0.00497743 -0.00520001 0.00185384
v -0.00481078 -0.00519988 0.00202716
v -0.00490810 -0.00519996 0.00196213
v -0.00497313 -0.00520001 0.00186481
v -0.00469597 -0.00519979 0.00205000
v -0.00479981 -0.00519987 0.00203146
v -0.00485492 -0.00564630 0.00196213
v -0.00492232 -0.00566253 0.00185384
v -0.00474964 -0.00562093 0.00203146
v -0.00464869 -0.00559661 0.00205000
v -0.00455744 -0.00610160 0.00203146
v -0.00446756 -0.00604962 0.00205000
v -0.00423663 -0.00650789 0.00203146
v -0.00416522 -0.00643252 0.00205000
v -0.00389668 -0.00676134 0.00203146
v -0.00384483 -0.00667138 0.00205000
v -0.00399463 -0.00693130 0.00175000
v -0.00398537 -0.00691524 0.00185384
v -0.00437156 -0.00665029 0.00175000
v -0.00435880 -0.00663683 0.00185384
v -0.00452706 -0.00648524 0.00175000
v -0.00472725 -0.00619982 0.00175000
v -0.00471120 -0.00619054 0.00185384
v -0.00487483 -0.00588397 0.00175000
v -0.00494035 -0.00566687 0.00175000
v -0.00395075 -0.00685517 0.00196213
v -0.00431112 -0.00658651 0.00196213
v -0.00465118 -0.00615583 0.00196213
v 0.00811369 -0.00217441 0.00205000
v 0.00757406 -0.00363231 0.00205000
v 0.00677501 -0.00496580 0.00205000
v -0.00485000 -0.00000376 -0.00200981
v -0.00491213 -0.00000381 -0.00196213
v -0.00489301 0.00043303 -0.00196213
v 0.00103524 0.00487270 -0.00185384
v 0.00059782 0.00494546 -0.00185384
v 0.00103909 0.00489084 -0.00175000
v 0.00060004 0.00496386 -0.00175000
v -0.00022529 0.00499492 -0.00175000
v -0.00028773 0.00497314 -0.00185384
v -0.00028881 0.00499165 -0.00175000
v -0.00116418 0.00484351 -0.00185384
v -0.00116852 0.00486154 -0.00175000
v -0.00361565 0.00345356 -0.00175000
v -0.00348125 0.00358900 -0.00175000
v -0.00346834 0.00357569 -0.00185384
v -0.00279039 0.00414894 -0.00175000
v -0.00278004 0.00413356 -0.00185384
v -0.00263006 0.00425238 -0.00175000
v -0.00200381 0.00456067 -0.00185384
v -0.00201127 0.00457764 -0.00175000
v -0.00147516 0.00477744 -0.00175000
v -0.00406198 0.00291552 -0.00175000
v -0.00404692 0.00290471 -0.00185384
v -0.00436845 0.00243241 -0.00175000
v -0.00449749 0.00214185 -0.00185384
v -0.00451423 0.00214982 -0.00175000
v -0.00480579 0.00131124 -0.00185384
v -0.00482367 0.00131612 -0.00175000
v -0.00496206 0.00043915 -0.00185384
v -0.00498053 0.00044078 -0.00175000
v -0.00484003 0.00125465 -0.00175000
v -0.00498146 -0.00000386 -0.00185384
v -0.00495981 -0.00000384 -0.00190000
v -0.00468170 0.00041433 -0.00205000
v -0.00470000 -0.00000364 -0.00205000
v -0.00480383 -0.00000372 -0.00203146
v -0.00478513 0.00042349 -0.00203146
v -0.00463443 0.00126448 -0.00203146
v -0.00453425 0.00123715 -0.00205000
v -0.00433712 0.00206548 -0.00203146
v -0.00424337 0.00202083 -0.00205000
v -0.00390262 0.00280114 -0.00203146
v -0.00381827 0.00274059 -0.00205000
v -0.00334467 0.00344819 -0.00203146
v -0.00327237 0.00337366 -0.00205000
v -0.00268092 0.00398617 -0.00203146
v -0.00262297 0.00390001 -0.00205000
v -0.00193236 0.00439805 -0.00203146
v -0.00189059 0.00430298 -0.00205000
v -0.00112267 0.00467081 -0.00203146
v -0.00109841 0.00456985 -0.00205000
v -0.00027748 0.00479581 -0.00203146
v -0.00027148 0.00469215 -0.00205000
v 0.00057650 0.00476912 -0.00203146
v 0.00056404 0.00466603 -0.00205000
v 0.00099832 0.00469895 -0.00203146
v 0.00097675 0.00459739 -0.00205000
v -0.00473891 0.00129299 -0.00196213
v -0.00443490 0.00211204 -0.00196213
v -0.00399060 0.00286429 -0.00196213
v -0.00342007 0.00352593 -0.00196213
v -0.00274135 0.00407603 -0.00196213
v -0.00197592 0.00449720 -0.00196213
v -0.00114798 0.00477610 -0.00196213
v -0.00028373 0.00490393 -0.00196213
v 0.00058950 0.00487663 -0.00196213
v 0.00102083 0.00480489 -0.00196213
v -0.00469597 -0.00519979 -0.00205000
v -0.00479981 -0.00519987 -0.00203146
v -0.00484597 -0.00519991 -0.00200981
v -0.00490810 -0.00519996 -0.00196213
v -0.00495578 -0.00520000 -0.00190000
v -0.00497743 -0.00520001 -0.00185384
v -0.00485492 -0.00564630 -0.00196213
v -0.00474964 -0.00562093 -0.00203146
v -0.00487483 -0.00588397 -0.00175000
v -0.00494035 -0.00566687 -0.00175000
v -0.00492232 -0.00566253 -0.00185384
v -0.00472725 -0.00619982 -0.00175000
v -0.00471120 -0.00619054 -0.00185384
v -0.00452706 -0.00648524 -0.00175000
v -0.00435880 -0.00663683 -0.00185384
v -0.00437156 -0.00665029 -0.00175000
v -0.00398537 -0.00691524 -0.00185384
v -0.00399463 -0.00693130 -0.00175000
v -0.00416522 -0.00643252 -0.00205000
v -0.00384483 -0.00667138 -0.00205000
v -0.00389668 -0.00676134 -0.00203146
v -0.00423663 -0.00650789 -0.00203146
v -0.00455744 -0.00610160 -0.00203146
v -0.00446756 -0.00604962 -0.00205000
v -0.00464869 -0.00559661 -0.00205000
v -0.00395075 -0.00685517 -0.00196213
v -0.00431112 -0.00658651 -0.00196213
v -0.00465118 -0.00615583 -0.00196213
v -0.00255000 -0.00000198 0.00205000
v -0.00255000 -0.00000198 -0.00205000
v -0.00237852 0.00091932 0.00205000
v -0.00237852 0.00091932 -0.00205000
v -0.00188580 0.00171646 0.00205000
v -0.00188580 0.00171646 -0.00205000
v -0.00113840 0.00228178 0.00205000
v -0.00113840 0.00228178 -0.00205000
v -0.00023725 0.00253894 0.00205000
v -0.00023725 0.00253894 -0.00205000
v 0.00069594 0.00245320 0.00205000
v 0.00069594 0.00245320 -0.00205000
v 0.00153514 0.00203613 0.00205000
v 0.00153514 0.00203613 -0.00205000
v 0.00216701 0.00134408 0.00205000
v 0.00216701 0.00134408 -0.00205000
v 0.00250622 0.00047050 0.00205000
v 0.00250622 0.00047050 -0.00205000
v 0.00250694 -0.00046662 0.00205000
v 0.00250694 -0.00046662 -0.00205000
v 0.00216909 -0.00134072 0.00205000
v 0.00216909 -0.00134072 -0.00205000
v 0.00153830 -0.00203375 0.00205000
v 0.00153830 -0.00203375 -0.00205000
v 0.00069974 -0.00245211 0.00205000
v 0.00069974 -0.00245211 -0.00205000
v -0.00023332 -0.00253930 0.00205000
v -0.00023332 -0.00253930 -0.00205000
v -0.00113486 -0.00228355 0.00205000
v -0.00113486 -0.00228355 -0.00205000
v -0.00188314 -0.00171938 0.00205000
v -0.00188314 -0.00171938 -0.00205000
v -0.00237709 -0.00092301 0.00205000
v -0.00237709 -0.00092301 -0.00205000
v 0.00201079 0.00453656 0.00203146
v 0.00199952 0.00443334 0.00205000
v 0.00303359 0.00437285 0.00205000
v 0.00202254 0.00464422 0.00196213
v 0.00203006 0.00471314 0.00185384
v 0.00303588 0.00465430 0.00185384
v 0.00303603 0.00467284 0.00175000
v 0.00203207 0.00473157 0.00175000
v 0.00303444 0.00447668 0.00203146
v 0.00303532 0.00458498 0.00196213
v 0.00203006 0.00471314 -0.00185384
v 0.00203207 0.00473157 -0.00175000
v 0.00303603 0.00467284 -0.00175000
v 0.00202254 0.00464422 -0.00196213
v 0.00201079 0.00453656 -0.00203146
v 0.00303444 0.00447668 -0.00203146
v 0.00303359 0.00437285 -0.00205000
v 0.00199952 0.00443334 -0.00205000
v 0.00303588 0.00465430 -0.00185384
v 0.00303532 0.00458498 -0.00196213
v -0.00314495 -0.00733573 -0.00185384
v -0.00315225 -0.00735278 -0.00175000
v -0.00273033 -0.00751966 -0.00175000
v -0.00205978 -0.00771109 -0.00185384
v -0.00206456 -0.00772901 -0.00175000
v -0.00138308 -0.00787954 -0.00175000
v -0.00093198 -0.00792686 -0.00185384
v -0.00093414 -0.00794527 -0.00175000
v 0.00000619 -0.00798145 -0.00185384
v 0.00000620 -0.00800000 -0.00175000
v -0.00089911 -0.00764733 -0.00205000
v 0.00000597 -0.00770000 -0.00205000
v 0.00000605 -0.00780383 -0.00203146
v -0.00091123 -0.00775045 -0.00203146
v -0.00201394 -0.00753949 -0.00203146
v -0.00198714 -0.00743917 -0.00205000
v -0.00307496 -0.00717248 -0.00203146
v -0.00303404 -0.00707705 -0.00205000
v 0.00000613 -0.00791213 -0.00196213
v -0.00092388 -0.00785801 -0.00196213
v -0.00204189 -0.00764412 -0.00196213
v -0.00311763 -0.00727202 -0.00196213
v -0.00307496 -0.00717248 0.00203146
v -0.00303404 -0.00707705 0.00205000
v -0.00201394 -0.00753949 0.00203146
v -0.00198714 -0.00743917 0.00205000
v -0.00091123 -0.00775045 0.00203146
v -0.00089911 -0.00764733 0.00205000
v 0.00000605 -0.00780383 0.00203146
v 0.00000597 -0.00770000 0.00205000
v 0.00000620 -0.00800000 0.00175000
v 0.00000619 -0.00798145 0.00185384
v -0.00093414 -0.00794527 0.00175000
v -0.00093198 -0.00792686 0.00185384
v -0.00138308 -0.00787954 0.00175000
v -0.00205978 -0.00771109 0.00185384
v -0.00206456 -0.00772901 0.00175000
v -0.00273033 -0.00751966 0.00175000
v -0.00314495 -0.00733573 0.00185384
v -0.00315225 -0.00735278 0.00175000
v 0.00000613 -0.00791213 0.00196213
v -0.00092388 -0.00785801 0.00196213
v -0.00204189 -0.00764412 0.00196213
v -0.00311763 -0.00727202 0.00196213
v 0.00325206 -0.00766288 0.00205000
v 0.00554709 -0.00638509 -0.00205000
v 0.00542887 -0.00681113 -0.00205000
v 0.00325206 -0.00766288 -0.00205000
v 0.00550591 -0.00724652 -0.00205000
v 0.00574274 -0.00758744 -0.00205000
v 0.00757406 -0.00363231 -0.00205000
v 0.00677501 -0.00496580 -0.00205000
v 0.00574393 -0.00612922 -0.00205000
v 0.00931853 0.00234430 -0.00205000
v 0.01027240 0.00359912 -0.00205000
v 0.01106595 0.00430759 -0.00205000
v 0.00867497 0.00090545 -0.00205000
v 0.00837543 -0.00064204 -0.00205000
v 0.00811369 -0.00217441 -0.00205000
v 0.01924551 0.00457849 0.00320000
v 0.01786148 0.00455385 0.00320000
v 0.01786149 0.00453278 0.00331043
v 0.02184222 0.00453040 0.00347894
v 0.02582339 0.00482430 0.00348146
v 0.02183505 0.00463192 0.00341213
v 0.02581602 0.00493234 0.00341213
v 0.02183034 0.00469860 0.00331043
v 0.02581131 0.00500151 0.00330384
v 0.02322233 0.00482414 0.00320000
v 0.02581005 0.00502001 0.00320000
v 0.01985296 0.00441257 0.00347894
v 0.01984842 0.00451421 0.00341213
v 0.01984544 0.00458097 0.00331043
v 0.01984450 0.00460197 0.00320000
v 0.01786162 0.00436428 0.00347894
v 0.01786154 0.00446598 0.00341213
v 0.01513106 0.00457458 0.00320000
v 0.00983633 0.00461759 0.00175000
v 0.00983633 0.00461759 -0.00175000
v 0.01148661 0.00460419 -0.00175000
v 0.01147720 0.00459806 -0.00181069
v 0.01145216 0.00458163 -0.00186481
v 0.01135642 0.00451737 -0.00196213
v 0.01121923 0.00442116 -0.00202716
v 0.02690726 0.00509636 0.00330384
v 0.03123458 0.00587330 0.00330384
v 0.02908184 0.00542402 0.00320000
v 0.02908512 0.00540577 0.00330384
v 0.02892718 0.00539667 0.00320000
v 0.02690532 0.00511481 0.00320000
v 0.03334419 0.00649648 0.00330384
v 0.03198811 0.00609599 0.00320000
v 0.03122998 0.00589127 0.00320000
v 0.03739911 0.00819562 0.00330384
v 0.03539553 0.00728906 0.00320000
v 0.03540270 0.00727196 0.00330384
v 0.03495955 0.00711037 0.00320000
v 0.03333829 0.00651405 0.00320000
v 0.03932278 0.00926252 0.00330384
v 0.03780914 0.00842876 0.00320000
v 0.03739071 0.00821215 0.00320000
v 0.04291130 0.01180258 0.00330384
v 0.04115273 0.01048212 0.00320000
v 0.04116345 0.01046699 0.00330384
v 0.04050590 0.01003683 0.00320000
v 0.03931320 0.00927840 0.00320000
v 0.04454420 0.01327560 0.00320000
v 0.04302048 0.01191707 0.00320000
v 0.04289951 0.01181690 0.00320000
v 0.04455701 0.01326219 0.00330384
v 0.04533879 0.01403609 0.00330384
v 0.04532551 0.01404902 0.00320000
v 0.04546604 0.01391216 0.00348146
v 0.04467963 0.01313370 0.00348146
v 0.04302422 0.01166548 0.00348146
v 0.04126607 0.01032201 0.00348146
v 0.03941454 0.00911044 0.00348146
v 0.03747953 0.00803724 0.00348146
v 0.03547134 0.00710814 0.00348146
v 0.03340070 0.00632808 0.00348146
v 0.03127865 0.00570123 0.00348146
v 0.02911650 0.00523094 0.00348146
v 0.02692580 0.00491971 0.00348146
v 0.04538845 0.01398772 0.00341213
v 0.04460487 0.01321204 0.00341213
v 0.04295537 0.01174907 0.00341213
v 0.04120350 0.01041040 0.00341213
v 0.03935859 0.00920317 0.00341213
v 0.03743049 0.00813380 0.00341213
v 0.03542949 0.00720802 0.00341213
v 0.03336625 0.00643075 0.00341213
v 0.03125178 0.00580615 0.00341213
v 0.02909737 0.00533753 0.00341213
v 0.02691450 0.00502742 0.00341213
v 0.04591983 0.01454660 0.00330384
v 0.04590871 0.01456144 0.00320000
v 0.04668158 0.01501698 0.00330384
v 0.04667329 0.01503357 0.00320000
v 0.04628037 0.01481472 0.00320000
v 0.04739827 0.01530781 0.00330384
v 0.04739266 0.01532548 0.00320000
v 0.04671255 0.01495496 0.00341213
v 0.04741928 0.01524174 0.00341213
v 0.04676095 0.01485808 0.00348146
v 0.04745208 0.01513854 0.00348146
v 0.04596141 0.01449113 0.00341213
v 0.04602636 0.01440447 0.00348146
v 0.04930419 0.01587186 0.00330384
v 0.04929928 0.01588974 0.00320000
v 0.05166195 0.01645682 0.00330384
v 0.05165793 0.01647492 0.00320000
v 0.05022500 0.01613406 0.00320000
v 0.05404553 0.01692559 0.00330384
v 0.05404240 0.01694387 0.00320000
v 0.05310034 0.01677308 0.00320000
v 0.05601094 0.01722192 0.00330384
v 0.05600855 0.01724031 0.00320000
v 0.05405724 0.01685726 0.00341213
v 0.05601990 0.01715318 0.00341213
v 0.05407552 0.01675052 0.00348146
v 0.05603390 0.01704579 0.00348146
v 0.05170048 0.01628343 0.00348146
v 0.04932252 0.01580500 0.00341213
v 0.04935117 0.01570057 0.00348146
v 0.05167699 0.01638914 0.00341213
v 0.06473646 0.01057084 0.00348146
v 0.06464016 0.01106121 0.00348146
v 0.06431916 0.01211197 0.00348146
v 0.06385366 0.01310717 0.00348146
v 0.06325288 0.01402706 0.00348146
v 0.06252877 0.01485337 0.00348146
v 0.06169569 0.01556969 0.00348146
v 0.06077019 0.01616180 0.00348146
v 0.05977066 0.01661793 0.00348146
v 0.05871693 0.01692904 0.00348146
v 0.05762994 0.01708894 0.00348146
v 0.05653126 0.01709446 0.00348146
v 0.05651842 0.01729020 0.00320000
v 0.05651964 0.01727170 0.00330384
v 0.05754251 0.01729162 0.00320000
v 0.05764334 0.01726605 0.00330384
v 0.05764474 0.01728454 0.00320000
v 0.05875510 0.01710251 0.00330384
v 0.05875909 0.01712062 0.00320000
v 0.06265377 0.01497956 0.00330384
v 0.06181279 0.01572707 0.00320000
v 0.06180172 0.01571220 0.00330384
v 0.06086401 0.01633408 0.00320000
v 0.06085514 0.01631779 0.00330384
v 0.06049914 0.01652079 0.00320000
v 0.05983283 0.01678432 0.00330384
v 0.05983933 0.01680169 0.00320000
v 0.05905800 0.01704880 0.00320000
v 0.06339438 0.01413442 0.00330384
v 0.06295051 0.01469690 0.00320000
v 0.06266682 0.01499273 0.00320000
v 0.06448495 0.01217570 0.00330384
v 0.06402504 0.01320260 0.00320000
v 0.06400885 0.01319358 0.00330384
v 0.06387036 0.01346827 0.00320000
v 0.06340916 0.01414563 0.00320000
v 0.06483133 0.01110516 0.00320000
v 0.06453842 0.01208647 0.00320000
v 0.06450226 0.01218236 0.00320000
v 0.06481326 0.01110101 0.00330384
v 0.06491176 0.01059947 0.00330384
v 0.06493005 0.01060245 0.00320000
v 0.05652417 0.01720252 0.00341213
v 0.05763811 0.01719693 0.00341213
v 0.05874020 0.01703480 0.00341213
v 0.05980857 0.01671938 0.00341213
v 0.06082198 0.01625691 0.00341213
v 0.06176033 0.01565658 0.00341213
v 0.06260499 0.01493031 0.00341213
v 0.06333915 0.01409252 0.00341213
v 0.06394827 0.01315985 0.00341213
v 0.06442025 0.01215083 0.00341213
v 0.06474570 0.01108547 0.00341213
v 0.06484333 0.01058829 0.00341213
v 0.06475644 0.00915683 0.00348146
v 0.06479394 0.01002220 0.00348146
v 0.06498989 0.01003140 0.00320000
v 0.06497137 0.01003053 0.00330384
v 0.06497005 0.00929371 0.00320000
v 0.06493248 0.00913317 0.00330384
v 0.06495086 0.00913070 0.00320000
v 0.06473308 0.00825738 0.00330384
v 0.06475071 0.00825165 0.00320000
v 0.06326129 0.00603516 0.00330384
v 0.06389814 0.00667119 0.00320000
v 0.06388367 0.00668278 0.00330384
v 0.06404726 0.00686708 0.00320000
v 0.06437964 0.00743163 0.00330384
v 0.06439596 0.00742283 0.00320000
v 0.06466889 0.00801945 0.00320000
v 0.06254216 0.00549388 0.00320000
v 0.06314775 0.00591560 0.00320000
v 0.06327344 0.00602116 0.00320000
v 0.06253272 0.00550984 0.00330384
v 0.06202452 0.00524721 0.00330384
v 0.06203207 0.00523027 0.00320000
v 0.06195217 0.00540943 0.00348146
v 0.06456415 0.00831227 0.00348146
v 0.06422331 0.00751596 0.00348146
v 0.06374503 0.00679381 0.00348146
v 0.06314483 0.00616928 0.00348146
v 0.06244225 0.00566269 0.00348146
v 0.06490213 0.01002728 0.00341213
v 0.06486378 0.00914241 0.00341213
v 0.06466715 0.00827880 0.00341213
v 0.06431863 0.00746455 0.00341213
v 0.06382956 0.00672611 0.00341213
v 0.06321583 0.00608751 0.00341213
v 0.06249741 0.00556949 0.00341213
v 0.06199628 0.00531052 0.00341213
v 0.00325828 -0.00794426 -0.00185384
v 0.00325869 -0.00796280 -0.00175000
v 0.00605966 -0.00778867 -0.00196067
v 0.00613692 -0.00781560 -0.00192505
v 0.00628017 -0.00784780 -0.00185306
v 0.00637961 -0.00785770 -0.00179982
v 0.00647088 -0.00785796 -0.00175000
v 0.00325675 -0.00787496 -0.00196213
v 0.00325435 -0.00776669 -0.00203146
v 0.00592678 -0.00772410 -0.00201332
v 0.00884871 -0.00754016 0.00348146
v 0.01409000 -0.00714055 0.00348146
v 0.01931438 -0.00656040 0.00348146
v 0.02451564 -0.00580038 0.00348146
v 0.02968759 -0.00486140 0.00348146
v 0.03482407 -0.00374458 0.00348146
v 0.03991897 -0.00245125 0.00348146
v 0.04496623 -0.00098295 0.00348146
v 0.04995984 0.00065858 0.00348146
v 0.05489385 0.00247137 0.00348146
v 0.05976240 0.00445328 0.00348146
v 0.05983949 0.00427290 0.00320000
v 0.05983220 0.00428995 0.00330384
v 0.05548419 0.00249064 0.00320000
v 0.05495797 0.00230573 0.00330384
v 0.05496467 0.00228844 0.00320000
v 0.05001821 0.00049082 0.00330384
v 0.05002430 0.00047331 0.00320000
v 0.04881597 0.00005853 0.00320000
v 0.04501878 -0.00115262 0.00330384
v 0.04502427 -0.00117033 0.00320000
v 0.04204184 -0.00206080 0.00320000
v 0.03996564 -0.00262263 0.00330384
v 0.03997051 -0.00264052 0.00320000
v 0.03517647 -0.00386276 0.00320000
v 0.03486479 -0.00391747 0.00330384
v 0.03486905 -0.00393552 0.00320000
v 0.02972233 -0.00503559 0.00330384
v 0.02972595 -0.00505377 0.00320000
v 0.02823472 -0.00534346 0.00320000
v 0.02454435 -0.00597566 0.00330384
v 0.02454735 -0.00599396 0.00320000
v 0.02123161 -0.00649968 0.00320000
v 0.01933702 -0.00673657 0.00330384
v 0.01933939 -0.00675496 0.00320000
v 0.01418231 -0.00732892 0.00320000
v 0.01410655 -0.00731740 0.00330384
v 0.01410828 -0.00733586 0.00320000
v 0.00885916 -0.00771747 0.00330384
v 0.00886025 -0.00773598 0.00320000
v 0.00710206 -0.00782938 0.00320000
v 0.05980496 0.00435370 0.00341213
v 0.05493295 0.00237038 0.00341213
v 0.04999543 0.00055630 0.00341213
v 0.04499827 -0.00108640 0.00341213
v 0.03994742 -0.00255574 0.00341213
v 0.03484890 -0.00384999 0.00341213
v 0.02970877 -0.00496760 0.00341213
v 0.02453314 -0.00590725 0.00341213
v 0.01932819 -0.00666781 0.00341213
v 0.01410009 -0.00724838 0.00341213
v 0.00885508 -0.00764827 0.00341213
v 0.00325435 -0.00776669 0.00203146
v 0.00325675 -0.00787496 0.00196213
v 0.00325828 -0.00794426 0.00185384
v 0.00325869 -0.00796280 0.00175000
v 0.00837543 -0.00064204 -0.00320000
v 0.00827119 -0.00146542 -0.00320000
v 0.00811369 -0.00217441 -0.00320000
v 0.00799636 -0.00257259 -0.00320000
v 0.00757406 -0.00363231 -0.00320000
v 0.00701206 -0.00462504 -0.00320000
v 0.00574393 -0.00612922 -0.00320000
v 0.00632074 -0.00553247 -0.00320000
v 0.00677501 -0.00496580 -0.00320000
v 0.01027240 0.00359912 -0.00320000
v 0.01096464 0.00422883 -0.00320000
v 0.01148661 0.00460419 -0.00320000
v 0.00931853 0.00234430 -0.00320000
v 0.00959948 0.00277982 -0.00320000
v 0.01022942 0.00355392 -0.00320000
v 0.00908805 0.00192280 -0.00320000
v 0.00870586 0.00100086 -0.00320000
v 0.00867497 0.00090545 -0.00320000
v 0.00846095 0.00003336 -0.00320000
v 0.01513106 0.00457458 -0.00320000
v 0.01786148 0.00455385 -0.00320000
v 0.01924551 0.00457849 -0.00320000
v 0.02182886 0.00471947 -0.00320000
v 0.02322233 0.00482414 -0.00320000
v 0.02581005 0.00502001 -0.00320000
v 0.04532551 0.01404902 -0.00320000
v 0.04454420 0.01327560 -0.00320000
v 0.04302048 0.01191707 -0.00320000
v 0.04289951 0.01181690 -0.00320000
v 0.04115273 0.01048212 -0.00320000
v 0.04050590 0.01003683 -0.00320000
v 0.03931320 0.00927840 -0.00320000
v 0.03780914 0.00842876 -0.00320000
v 0.03739071 0.00821215 -0.00320000
v 0.03539553 0.00728906 -0.00320000
v 0.03495955 0.00711037 -0.00320000
v 0.03333829 0.00651405 -0.00320000
v 0.03198811 0.00609599 -0.00320000
v 0.03122998 0.00589127 -0.00320000
v 0.02908184 0.00542402 -0.00320000
v 0.02892718 0.00539667 -0.00320000
v 0.02690532 0.00511481 -0.00320000
v 0.04590871 0.01456144 -0.00320000
v 0.04628037 0.01481472 -0.00320000
v 0.04667329 0.01503357 -0.00320000
v 0.04739266 0.01532548 -0.00320000
v 0.04929928 0.01588974 -0.00320000
v 0.05022500 0.01613406 -0.00320000
v 0.05165793 0.01647492 -0.00320000
v 0.05310034 0.01677308 -0.00320000
v 0.05404240 0.01694387 -0.00320000
v 0.05600855 0.01724031 -0.00320000
v 0.06493005 0.01060245 -0.00320000
v 0.06483133 0.01110516 -0.00320000
v 0.06453842 0.01208647 -0.00320000
v 0.06450226 0.01218236 -0.00320000
v 0.06402504 0.01320260 -0.00320000
v 0.06387036 0.01346827 -0.00320000
v 0.06340916 0.01414563 -0.00320000
v 0.06295051 0.01469690 -0.00320000
v 0.06266682 0.01499273 -0.00320000
v 0.06181279 0.01572707 -0.00320000
v 0.06086401 0.01633408 -0.00320000
v 0.06049914 0.01652079 -0.00320000
v 0.05983933 0.01680169 -0.00320000
v 0.05905800 0.01704880 -0.00320000
v 0.05875909 0.01712062 -0.00320000
v 0.05764474 0.01728454 -0.00320000
v 0.05754251 0.01729162 -0.00320000
v 0.05651842 0.01729020 -0.00320000
v 0.06203207 0.00523027 -0.00320000
v 0.06254216 0.00549388 -0.00320000
v 0.06314775 0.00591560 -0.00320000
v 0.06327344 0.00602116 -0.00320000
v 0.06389814 0.00667119 -0.00320000
v 0.06404726 0.00686708 -0.00320000
v 0.06439596 0.00742283 -0.00320000
v 0.06466889 0.00801945 -0.00320000
v 0.06475071 0.00825165 -0.00320000
v 0.06495086 0.00913070 -0.00320000
v 0.06497005 0.00929371 -0.00320000
v 0.06498989 0.01003140 -0.00320000
v 0.00647088 -0.00785796 -0.00320000
v 0.00710206 -0.00782938 -0.00320000
v 0.05983949 0.00427290 -0.00320000
v 0.05548419 0.00249064 -0.00320000
v 0.05496467 0.00228844 -0.00320000
v 0.05002430 0.00047331 -0.00320000
v 0.04881597 0.00005853 -0.00320000
v 0.04502427 -0.00117033 -0.00320000
v 0.04204184 -0.00206080 -0.00320000
v 0.03997051 -0.00264052 -0.00320000
v 0.03517647 -0.00386276 -0.00320000
v 0.03486905 -0.00393552 -0.00320000
v 0.02972595 -0.00505377 -0.00320000
v 0.02823472 -0.00534346 -0.00320000
v 0.02454735 -0.00599396 -0.00320000
v 0.02123161 -0.00649968 -0.00320000
v 0.01933939 -0.00675496 -0.00320000
v 0.01418231 -0.00732892 -0.00320000
v 0.01410828 -0.00733586 -0.00320000
v 0.00886025 -0.00773598 -0.00320000
v 0.00621205 -0.00783535 -0.00320000
v 0.00557904 -0.00633000 -0.00320000
v 0.00544303 -0.00668463 -0.00320000
v 0.00542887 -0.00681113 -0.00320000
v 0.00544907 -0.00706440 -0.00320000
v 0.00550591 -0.00724652 -0.00320000
v 0.00559630 -0.00741452 -0.00320000
v 0.00586348 -0.00768449 -0.00320000
v 0.00576317 -0.00760612 -0.00320000
v 0.00839392 -0.00064345 -0.00330384
v 0.00828945 -0.00146865 -0.00330384
v 0.00801401 -0.00257827 -0.00330384
v 0.00759078 -0.00364033 -0.00330384
v 0.00702754 -0.00463525 -0.00330384
v 0.00633469 -0.00554468 -0.00330384
v 0.00575661 -0.00614275 -0.00330384
v 0.00654648 -0.00573006 -0.00350000
v 0.00594907 -0.00634812 -0.00350000
v 0.00587806 -0.00627235 -0.00348146
v 0.00646835 -0.00566167 -0.00348146
v 0.00717581 -0.00473305 -0.00348146
v 0.00726249 -0.00479022 -0.00350000
v 0.00775093 -0.00371713 -0.00348146
v 0.00784456 -0.00376203 -0.00350000
v 0.00818310 -0.00263266 -0.00348146
v 0.00828195 -0.00266446 -0.00350000
v 0.00846434 -0.00149964 -0.00348146
v 0.00856659 -0.00151775 -0.00350000
v 0.00857102 -0.00065703 -0.00348146
v 0.00867455 -0.00066497 -0.00350000
v 0.00580401 -0.00619333 -0.00341213
v 0.00638686 -0.00559034 -0.00341213
v 0.00708541 -0.00467342 -0.00341213
v 0.00765328 -0.00367030 -0.00341213
v 0.00808001 -0.00259950 -0.00341213
v 0.00835771 -0.00148075 -0.00341213
v 0.00846304 -0.00064875 -0.00341213
v 0.01148827 0.00459902 -0.00325538
v 0.01149234 0.00458554 -0.00330399
v 0.01097615 0.00421430 -0.00330384
v 0.01150153 0.00455379 -0.00336625
v 0.01151253 0.00451581 -0.00341242
v 0.01101921 0.00415996 -0.00341213
v 0.00865411 -0.00000088 -0.00348146
v 0.00875635 -0.00001900 -0.00350000
v 0.00889204 0.00093907 -0.00348146
v 0.00899059 0.00090636 -0.00350000
v 0.00926334 0.00183475 -0.00348146
v 0.00935613 0.00178814 -0.00350000
v 0.00976021 0.00266736 -0.00348146
v 0.00984528 0.00260782 -0.00350000
v 0.01037220 0.00341940 -0.00348146
v 0.01044778 0.00334820 -0.00350000
v 0.01108647 0.00407509 -0.00348146
v 0.01115096 0.00399371 -0.00350000
v 0.01153169 0.00445043 -0.00346173
v 0.01157558 0.00430345 -0.00350000
v 0.01024292 0.00354120 -0.00330384
v 0.00961468 0.00276919 -0.00330384
v 0.00872346 0.00099502 -0.00330384
v 0.00910462 0.00191448 -0.00330384
v 0.00847921 0.00003012 -0.00330384
v 0.01029338 0.00349366 -0.00341213
v 0.00967148 0.00272944 -0.00341213
v 0.00916657 0.00188336 -0.00341213
v 0.00878926 0.00097318 -0.00341213
v 0.00854747 0.00001802 -0.00341213
v 0.01786149 0.00453278 -0.00331043
v 0.01786154 0.00446598 -0.00341213
v 0.01786162 0.00436428 -0.00347894
v 0.01786171 0.00425385 -0.00350000
v 0.02581131 0.00500151 -0.00330384
v 0.01985789 0.00430221 -0.00350000
v 0.01985296 0.00441257 -0.00347894
v 0.01984842 0.00451421 -0.00341213
v 0.01984544 0.00458097 -0.00331043
v 0.02185001 0.00442018 -0.00350000
v 0.02184222 0.00453040 -0.00347894
v 0.02183505 0.00463192 -0.00341213
v 0.02183034 0.00469860 -0.00331043
v 0.02583045 0.00472070 -0.00350000
v 0.02582339 0.00482430 -0.00348146
v 0.02581602 0.00493234 -0.00341213
v 0.02692580 0.00491971 -0.00348146
v 0.02693664 0.00481644 -0.00350000
v 0.02911650 0.00523094 -0.00348146
v 0.02913485 0.00512874 -0.00350000
v 0.03127865 0.00570123 -0.00348146
v 0.03130441 0.00560065 -0.00350000
v 0.03340070 0.00632808 -0.00348146
v 0.03343374 0.00622964 -0.00350000
v 0.03547134 0.00710814 -0.00348146
v 0.03551147 0.00701237 -0.00350000
v 0.03747953 0.00803724 -0.00348146
v 0.03752654 0.00794466 -0.00350000
v 0.03941454 0.00911044 -0.00348146
v 0.03946818 0.00902154 -0.00350000
v 0.04126607 0.01032201 -0.00348146
v 0.04132606 0.01023726 -0.00350000
v 0.04302422 0.01166548 -0.00348146
v 0.04309024 0.01158534 -0.00350000
v 0.04467963 0.01313370 -0.00348146
v 0.04475133 0.01305858 -0.00350000
v 0.04546604 0.01391216 -0.00348146
v 0.04554042 0.01383971 -0.00350000
v 0.04533879 0.01403609 -0.00330384
v 0.04455701 0.01326219 -0.00330384
v 0.04291130 0.01180258 -0.00330384
v 0.04116345 0.01046699 -0.00330384
v 0.03932278 0.00926252 -0.00330384
v 0.03540270 0.00727196 -0.00330384
v 0.03739911 0.00819562 -0.00330384
v 0.03334419 0.00649648 -0.00330384
v 0.02908512 0.00540577 -0.00330384
v 0.03123458 0.00587330 -0.00330384
v 0.02690726 0.00509636 -0.00330384
v 0.02691450 0.00502742 -0.00341213
v 0.02909737 0.00533753 -0.00341213
v 0.03125178 0.00580615 -0.00341213
v 0.03336625 0.00643075 -0.00341213
v 0.03542949 0.00720802 -0.00341213
v 0.03743049 0.00813380 -0.00341213
v 0.03935859 0.00920317 -0.00341213
v 0.04120350 0.01041040 -0.00341213
v 0.04295537 0.01174907 -0.00341213
v 0.04460487 0.01321204 -0.00341213
v 0.04538845 0.01398772 -0.00341213
v 0.04602636 0.01440447 -0.00348146
v 0.04608863 0.01432138 -0.00350000
v 0.04676095 0.01485808 -0.00348146
v 0.04680734 0.01476518 -0.00350000
v 0.04745208 0.01513854 -0.00348146
v 0.04748354 0.01503958 -0.00350000
v 0.04671255 0.01495496 -0.00341213
v 0.04741928 0.01524174 -0.00341213
v 0.04668158 0.01501698 -0.00330384
v 0.04739827 0.01530781 -0.00330384
v 0.04596141 0.01449113 -0.00341213
v 0.04591983 0.01454660 -0.00330384
v 0.05404553 0.01692559 -0.00330384
v 0.05166195 0.01645682 -0.00330384
v 0.04930419 0.01587186 -0.00330384
v 0.04932252 0.01580500 -0.00341213
v 0.04935117 0.01570057 -0.00348146
v 0.05170048 0.01628343 -0.00348146
v 0.05172301 0.01618207 -0.00350000
v 0.04937863 0.01560043 -0.00350000
v 0.05603390 0.01704579 -0.00348146
v 0.05604732 0.01694282 -0.00350000
v 0.05409306 0.01664818 -0.00350000
v 0.05601094 0.01722192 -0.00330384
v 0.05601990 0.01715318 -0.00341213
v 0.05405724 0.01685726 -0.00341213
v 0.05407552 0.01675052 -0.00348146
v 0.05167699 0.01638914 -0.00341213
v 0.06491176 0.01059947 -0.00330384
v 0.06481326 0.01110101 -0.00330384
v 0.06448495 0.01217570 -0.00330384
v 0.06400885 0.01319358 -0.00330384
v 0.06085514 0.01631779 -0.00330384
v 0.06180172 0.01571220 -0.00330384
v 0.06265377 0.01497956 -0.00330384
v 0.06339438 0.01413442 -0.00330384
v 0.05983283 0.01678432 -0.00330384
v 0.05764334 0.01726605 -0.00330384
v 0.05875510 0.01710251 -0.00330384
v 0.05651964 0.01727170 -0.00330384
v 0.05653805 0.01699084 -0.00350000
v 0.05653126 0.01709446 -0.00348146
v 0.05762994 0.01708894 -0.00348146
v 0.05762210 0.01698540 -0.00350000
v 0.05871693 0.01692904 -0.00348146
v 0.05869462 0.01682763 -0.00350000
v 0.05977066 0.01661793 -0.00348146
v 0.05973431 0.01652066 -0.00350000
v 0.06077019 0.01616180 -0.00348146
v 0.06072054 0.01607060 -0.00350000
v 0.06169569 0.01556969 -0.00348146
v 0.06163371 0.01548638 -0.00350000
v 0.06252877 0.01485337 -0.00348146
v 0.06245569 0.01477960 -0.00350000
v 0.06325288 0.01402706 -0.00348146
v 0.06317016 0.01396430 -0.00350000
v 0.06385366 0.01310717 -0.00348146
v 0.06376293 0.01305666 -0.00350000
v 0.06431916 0.01211197 -0.00348146
v 0.06422224 0.01207471 -0.00350000
v 0.06464016 0.01106121 -0.00348146
v 0.06453896 0.01103795 -0.00350000
v 0.06473646 0.01057084 -0.00348146
v 0.06463397 0.01055411 -0.00350000
v 0.06484333 0.01058829 -0.00341213
v 0.06474570 0.01108547 -0.00341213
v 0.06442025 0.01215083 -0.00341213
v 0.06394827 0.01315985 -0.00341213
v 0.06333915 0.01409252 -0.00341213
v 0.06260499 0.01493031 -0.00341213
v 0.06176033 0.01565658 -0.00341213
v 0.06082198 0.01625691 -0.00341213
v 0.05980857 0.01671938 -0.00341213
v 0.05874020 0.01703480 -0.00341213
v 0.05763811 0.01719693 -0.00341213
v 0.05652417 0.01720252 -0.00341213
v 0.06202452 0.00524721 -0.00330384
v 0.06253272 0.00550984 -0.00330384
v 0.06326129 0.00603516 -0.00330384
v 0.06388367 0.00668278 -0.00330384
v 0.06493248 0.00913317 -0.00330384
v 0.06473308 0.00825738 -0.00330384
v 0.06437964 0.00743163 -0.00330384
v 0.06497137 0.01003053 -0.00330384
v 0.06469023 0.01001732 -0.00350000
v 0.06479394 0.01002220 -0.00348146
v 0.06475644 0.00915683 -0.00348146
v 0.06465354 0.00917066 -0.00350000
v 0.06456415 0.00831227 -0.00348146
v 0.06446540 0.00834435 -0.00350000
v 0.06422331 0.00751596 -0.00348146
v 0.06413192 0.00756526 -0.00350000
v 0.06374503 0.00679381 -0.00348146
v 0.06366398 0.00685872 -0.00350000
v 0.06314483 0.00616928 -0.00348146
v 0.06307676 0.00624769 -0.00350000
v 0.06244225 0.00566269 -0.00348146
v 0.06238936 0.00575205 -0.00350000
v 0.06195217 0.00540943 -0.00348146
v 0.06190987 0.00550426 -0.00350000
v 0.06199628 0.00531052 -0.00341213
v 0.06249741 0.00556949 -0.00341213
v 0.06321583 0.00608751 -0.00341213
v 0.06382956 0.00672611 -0.00341213
v 0.06431863 0.00746455 -0.00341213
v 0.06466715 0.00827880 -0.00341213
v 0.06486378 0.00914241 -0.00341213
v 0.06490213 0.01002728 -0.00341213
v 0.00647008 -0.00783943 -0.00330384
v 0.00885916 -0.00771747 -0.00330384
v 0.01410655 -0.00731740 -0.00330384
v 0.02454435 -0.00597566 -0.00330384
v 0.01933702 -0.00673657 -0.00330384
v 0.03486479 -0.00391747 -0.00330384
v 0.02972233 -0.00503559 -0.00330384
v 0.03996564 -0.00262263 -0.00330384
v 0.04501878 -0.00115262 -0.00330384
v 0.05001821 0.00049082 -0.00330384
v 0.05495797 0.00230573 -0.00330384
v 0.05983220 0.00428995 -0.00330384
v 0.05972160 0.00454877 -0.00350000
v 0.05976240 0.00445328 -0.00348146
v 0.05489385 0.00247137 -0.00348146
v 0.05485637 0.00256821 -0.00350000
v 0.04995984 0.00065858 -0.00348146
v 0.04992572 0.00075665 -0.00350000
v 0.04496623 -0.00098295 -0.00348146
v 0.04493551 -0.00088376 -0.00350000
v 0.03991897 -0.00245125 -0.00348146
v 0.03989169 -0.00235106 -0.00350000
v 0.03482407 -0.00374458 -0.00348146
v 0.03480026 -0.00364351 -0.00350000
v 0.02968759 -0.00486140 -0.00348146
v 0.02966728 -0.00475957 -0.00350000
v 0.02451564 -0.00580038 -0.00348146
v 0.02449886 -0.00569791 -0.00350000
v 0.01931438 -0.00656040 -0.00348146
v 0.01930114 -0.00645741 -0.00350000
v 0.01409000 -0.00714055 -0.00348146
v 0.01408032 -0.00703717 -0.00350000
v 0.00884871 -0.00754016 -0.00348146
v 0.00884261 -0.00743650 -0.00350000
v 0.00646241 -0.00766197 -0.00348146
v 0.00645793 -0.00755823 -0.00350000
v 0.00646709 -0.00777017 -0.00341213
v 0.00885508 -0.00764827 -0.00341213
v 0.01410009 -0.00724838 -0.00341213
v 0.01932819 -0.00666781 -0.00341213
v 0.02453314 -0.00590725 -0.00341213
v 0.02970877 -0.00496760 -0.00341213
v 0.03484890 -0.00384999 -0.00341213
v 0.03994742 -0.00255574 -0.00341213
v 0.04499827 -0.00108640 -0.00341213
v 0.04999543 0.00055630 -0.00341213
v 0.05493295 0.00237038 -0.00341213
v 0.05980496 0.00435370 -0.00341213
v 0.00546129 -0.00668786 -0.00330384
v 0.00559477 -0.00633981 -0.00330384
v 0.00546722 -0.00706059 -0.00330384
v 0.00561172 -0.00740422 -0.00330384
v 0.00587394 -0.00766918 -0.00330384
v 0.00621605 -0.00781724 -0.00330384
v 0.00627675 -0.00754241 -0.00350000
v 0.00625436 -0.00764380 -0.00348146
v 0.00597416 -0.00752253 -0.00348146
v 0.00603275 -0.00743681 -0.00350000
v 0.00575940 -0.00730553 -0.00348146
v 0.00584573 -0.00724783 -0.00350000
v 0.00564105 -0.00702409 -0.00348146
v 0.00574267 -0.00700275 -0.00350000
v 0.00572773 -0.00685943 -0.00350000
v 0.00563619 -0.00671881 -0.00348146
v 0.00573844 -0.00673691 -0.00350000
v 0.00574552 -0.00643375 -0.00348146
v 0.00583364 -0.00648867 -0.00350000
v 0.00565361 -0.00637647 -0.00341213
v 0.00552955 -0.00669994 -0.00341213
v 0.00553507 -0.00704634 -0.00341213
v 0.00566936 -0.00736570 -0.00341213
v 0.00591306 -0.00761194 -0.00341213
v 0.00623100 -0.00774955 -0.00341213
v 0.06184163 0.01148235 -0.00350000
v 0.06232589 0.01070159 -0.00350000
v 0.06110802 0.01203545 -0.00350000
v 0.06022415 0.01228619 -0.00350000
v 0.05787089 0.00847895 -0.00350000
v 0.06111149 0.00755963 -0.00350000
v 0.06022801 0.00730752 -0.00350000
v 0.05931311 0.00739158 -0.00350000
v 0.06184424 0.00811387 -0.00350000
v 0.06232729 0.00889538 -0.00350000
v 0.06249541 0.00979861 -0.00350000
v 0.05999541 0.01229667 -0.00350000
v 0.05930939 0.01220071 -0.00350000
v 0.05848728 0.01179055 -0.00350000
v 0.05786885 0.01111111 -0.00350000
v 0.05753833 0.00933540 -0.00350000
v 0.05753762 0.01025414 -0.00350000
v 0.05849037 0.00780046 -0.00350000
usemtl material_7
f 1 2 3
f 4 5 6
f 6 5 7
f 8 9 10
f 10 9 11
f 12 13 11
f 11 13 14
f 11 14 10
f 7 15 6
f 6 15 16
f 6 16 12
f 12 16 17
f 12 17 13
f 8 18 9
f 9 18 19
f 9 19 3
f 3 19 20
f 3 20 1
f 21 22 23
f 24 25 26
f 26 25 27
f 26 27 28
f 28 27 29
f 28 29 30
f 1 31 2
f 2 31 32
f 2 32 24
f 24 32 33
f 24 33 25
f 4 34 5
f 5 34 35
f 5 35 36
f 36 35 37
f 36 37 38
f 38 37 39
f 38 39 40
f 40 39 41
f 42 43 44
f 45 46 47
f 48 49 50
f 30 51 28
f 28 51 52
f 28 52 22
f 22 52 53
f 22 53 23
f 44 43 46
f 46 43 54
f 46 54 47
f 55 56 57
f 39 50 41
f 41 50 58
f 41 58 59
f 59 58 60
f 59 60 61
f 61 60 42
f 61 42 62
f 62 42 44
f 56 63 57
f 57 63 64
f 57 64 50
f 50 64 65
f 50 65 48
f 49 66 50
f 50 66 67
f 50 67 68
f 23 69 21
f 21 69 70
f 21 70 57
f 57 70 71
f 57 71 55
f 72 73 58
f 58 73 74
f 58 74 75
f 68 76 50
f 50 76 77
f 50 77 58
f 58 77 78
f 58 78 72
f 79 80 81
f 81 80 82
f 47 83 45
f 45 83 84
f 45 84 85
f 85 84 81
f 85 81 86
f 86 81 82
f 86 82 87
f 88 89 75
f 75 89 90
f 75 90 91
f 91 92 75
f 75 92 93
f 75 93 58
f 94 95 96
f 97 98 99
f 97 99 100
f 97 101 98
f 98 101 102
f 98 102 96
f 96 102 103
f 96 103 94
f 99 104 100
f 100 104 105
f 100 105 106
f 105 107 106
f 106 107 108
f 106 108 109
f 110 111 112
f 112 111 113
f 112 113 114
f 114 113 109
f 114 109 115
f 115 109 108
f 116 117 118
f 118 117 119
f 88 120 121
f 88 121 89
f 89 121 122
f 89 122 90
f 90 122 123
f 90 123 91
f 91 123 124
f 91 124 92
f 92 124 125
f 92 125 93
f 93 125 126
f 93 126 58
f 58 126 127
f 58 127 60
f 128 129 130
f 130 129 131
f 130 131 132
f 132 131 133
f 132 133 134
f 134 133 135
f 134 135 136
f 136 135 137
f 137 135 138
f 137 138 139
f 139 138 140
f 139 140 141
f 142 143 144
f 144 143 145
f 141 140 146
f 146 140 144
f 146 144 147
f 147 144 145
f 147 145 148
f 129 149 131
f 131 149 150
f 131 150 133
f 133 150 151
f 133 151 135
f 135 151 152
f 135 152 138
f 138 152 153
f 138 153 140
f 140 153 154
f 140 154 144
f 144 154 155
f 144 155 142
f 142 155 156
f 149 127 150
f 150 127 126
f 150 126 151
f 151 126 125
f 151 125 152
f 152 125 124
f 152 124 153
f 153 124 123
f 153 123 154
f 154 123 122
f 154 122 155
f 155 122 121
f 155 121 156
f 156 121 120
f 60 127 157
f 60 157 42
f 42 157 158
f 42 158 43
f 43 158 159
f 43 159 54
f 54 159 160
f 54 160 47
f 47 160 161
f 47 161 83
f 83 161 162
f 83 162 84
f 110 163 164
f 164 163 165
f 164 165 166
f 166 165 167
f 166 167 168
f 168 167 169
f 168 169 170
f 170 169 171
f 170 171 172
f 172 171 173
f 173 171 174
f 173 174 175
f 175 174 129
f 175 129 128
f 127 149 157
f 157 149 176
f 157 176 158
f 158 176 177
f 158 177 159
f 159 177 178
f 159 178 160
f 160 178 179
f 160 179 161
f 161 179 180
f 161 180 162
f 162 180 181
f 149 129 176
f 176 129 174
f 176 174 177
f 177 174 171
f 177 171 178
f 178 171 169
f 178 169 179
f 179 169 167
f 179 167 180
f 180 167 165
f 180 165 181
f 181 165 163
f 107 105 182
f 84 162 183
f 84 183 81
f 81 183 184
f 81 184 79
f 79 184 185
f 79 185 80
f 80 185 186
f 80 186 82
f 82 186 187
f 82 187 87
f 87 187 188
f 87 188 86
f 86 188 189
f 86 189 85
f 98 96 190
f 190 191 98
f 98 191 192
f 98 192 99
f 182 105 192
f 192 105 104
f 192 104 99
f 107 182 108
f 108 182 193
f 108 193 115
f 115 193 194
f 115 194 114
f 114 194 195
f 114 195 112
f 112 195 163
f 112 163 110
f 190 196 191
f 191 196 197
f 191 197 192
f 192 197 198
f 192 198 182
f 182 198 199
f 182 199 193
f 193 199 200
f 193 200 194
f 194 200 201
f 194 201 195
f 195 201 202
f 195 202 163
f 163 202 181
f 196 189 197
f 197 189 188
f 197 188 198
f 198 188 187
f 198 187 199
f 199 187 186
f 199 186 200
f 200 186 185
f 200 185 201
f 201 185 184
f 201 184 202
f 202 184 183
f 202 183 181
f 181 183 162
f 132 203 130
f 130 203 204
f 130 204 128
f 137 205 136
f 136 205 203
f 136 203 134
f 134 203 132
f 206 148 207
f 207 148 208
f 137 139 205
f 205 139 141
f 205 141 209
f 209 141 146
f 209 146 210
f 210 146 147
f 210 147 211
f 211 147 148
f 211 148 212
f 212 148 206
f 213 214 215
f 216 217 218
f 219 220 221
f 219 221 222
f 222 221 223
f 222 223 224
f 224 223 225
f 224 225 226
f 226 225 227
f 226 227 228
f 228 227 229
f 228 229 230
f 230 229 231
f 230 231 232
f 232 231 233
f 232 233 234
f 234 233 235
f 234 235 236
f 236 235 237
f 236 237 238
f 238 237 218
f 238 218 239
f 239 218 217
f 239 217 240
f 241 242 243
f 243 242 244
f 243 244 245
f 245 244 246
f 245 246 247
f 247 246 248
f 247 248 249
f 249 248 117
f 241 243 250
f 250 243 251
f 250 251 252
f 252 251 253
f 252 253 254
f 254 253 255
f 254 255 256
f 257 258 259
f 259 258 260
f 259 260 261
f 261 260 262
f 261 262 255
f 255 262 263
f 255 263 256
f 264 265 257
f 257 265 266
f 257 266 258
f 257 267 264
f 264 267 268
f 264 268 269
f 249 213 247
f 247 213 215
f 247 215 245
f 245 215 270
f 245 270 243
f 243 270 271
f 243 271 251
f 251 271 272
f 251 272 253
f 253 272 273
f 253 273 255
f 255 273 274
f 255 274 261
f 261 274 275
f 261 275 259
f 259 275 276
f 259 276 257
f 257 276 277
f 257 277 267
f 267 277 278
f 267 278 268
f 268 278 279
f 214 216 215
f 215 216 218
f 215 218 270
f 270 218 237
f 270 237 271
f 271 237 235
f 271 235 272
f 272 235 233
f 272 233 273
f 273 233 231
f 273 231 274
f 274 231 229
f 274 229 275
f 275 229 227
f 275 227 276
f 276 227 225
f 276 225 277
f 277 225 223
f 277 223 278
f 278 223 221
f 278 221 279
f 279 221 220
f 117 116 249
f 249 116 280
f 249 280 213
f 281 214 282
f 282 214 213
f 282 213 283
f 283 213 280
f 284 240 285
f 285 240 217
f 285 217 281
f 281 217 216
f 281 216 214
f 281 282 286
f 283 280 287
f 284 285 288
f 284 288 289
f 289 288 290
f 289 290 291
f 291 290 292
f 291 292 293
f 293 292 294
f 293 294 295
f 296 297 298
f 298 297 299
f 298 299 300
f 300 299 301
f 301 299 302
f 301 302 303
f 303 302 287
f 303 287 304
f 304 287 280
f 304 280 116
f 297 305 299
f 299 305 306
f 299 306 302
f 302 306 307
f 302 307 287
f 287 307 286
f 287 286 283
f 283 286 282
f 305 294 306
f 306 294 292
f 306 292 307
f 307 292 290
f 307 290 286
f 286 290 288
f 286 288 281
f 281 288 285
f 128 204 175
f 175 204 308
f 175 308 173
f 173 308 172
f 172 308 309
f 172 309 170
f 170 309 168
f 168 309 310
f 168 310 166
f 111 110 310
f 310 110 164
f 310 164 166
f 311 312 313
f 314 315 316
f 316 315 317
f 317 315 318
f 318 315 319
f 318 319 320
f 320 319 321
f 320 321 322
f 323 324 325
f 325 324 326
f 325 326 327
f 327 326 328
f 327 328 329
f 329 328 330
f 329 330 321
f 321 330 331
f 321 331 322
f 323 325 332
f 332 325 333
f 332 333 334
f 334 333 335
f 334 335 336
f 336 335 337
f 336 337 338
f 339 340 337
f 337 340 341
f 337 341 338
f 119 340 342
f 342 340 339
f 342 339 343
f 344 345 346
f 346 347 344
f 344 347 348
f 344 348 349
f 349 348 350
f 349 350 351
f 351 350 352
f 351 352 353
f 353 352 354
f 353 354 355
f 355 354 356
f 355 356 357
f 357 356 358
f 357 358 359
f 359 358 360
f 359 360 361
f 361 360 362
f 361 362 363
f 363 362 364
f 363 364 365
f 365 364 366
f 365 366 367
f 346 311 347
f 347 311 313
f 347 313 348
f 348 313 368
f 348 368 350
f 350 368 369
f 350 369 352
f 352 369 370
f 352 370 354
f 354 370 371
f 354 371 356
f 356 371 372
f 356 372 358
f 358 372 373
f 358 373 360
f 360 373 374
f 360 374 362
f 362 374 375
f 362 375 364
f 364 375 376
f 364 376 366
f 366 376 377
f 312 343 313
f 313 343 339
f 313 339 368
f 368 339 337
f 368 337 369
f 369 337 335
f 369 335 370
f 370 335 333
f 370 333 371
f 371 333 325
f 371 325 372
f 372 325 327
f 372 327 373
f 373 327 329
f 373 329 374
f 374 329 321
f 374 321 375
f 375 321 319
f 375 319 376
f 376 319 315
f 376 315 377
f 377 315 314
f 345 378 346
f 346 378 379
f 346 379 311
f 311 379 380
f 311 380 312
f 312 380 381
f 312 381 343
f 343 381 382
f 343 382 342
f 342 382 383
f 342 383 119
f 119 383 118
f 382 381 384
f 380 379 385
f 386 387 388
f 388 387 118
f 388 118 383
f 386 388 389
f 389 388 390
f 389 390 391
f 391 390 392
f 391 392 393
f 393 392 394
f 393 394 395
f 396 397 398
f 398 399 396
f 396 399 400
f 396 400 401
f 401 400 385
f 401 385 402
f 402 385 379
f 402 379 378
f 398 403 399
f 399 403 404
f 399 404 400
f 400 404 405
f 400 405 385
f 385 405 384
f 385 384 380
f 380 384 381
f 403 394 404
f 404 394 392
f 404 392 405
f 405 392 390
f 405 390 384
f 384 390 388
f 384 388 382
f 382 388 383
f 406 407 408
f 408 407 409
f 408 409 410
f 410 409 411
f 410 411 412
f 412 411 413
f 412 413 414
f 414 413 415
f 414 415 416
f 416 415 417
f 416 417 418
f 418 417 419
f 418 419 420
f 420 419 421
f 420 421 422
f 422 421 423
f 422 423 424
f 424 423 425
f 424 425 426
f 426 425 427
f 426 427 428
f 428 427 429
f 428 429 430
f 430 429 431
f 430 431 432
f 432 431 433
f 432 433 434
f 434 433 435
f 434 435 436
f 436 435 437
f 436 437 438
f 438 437 439
f 438 439 406
f 406 439 407
f 440 441 442
f 220 219 441
f 441 440 220
f 220 440 443
f 220 443 279
f 279 443 444
f 279 444 268
f 445 446 447
f 442 448 440
f 440 448 449
f 440 449 443
f 443 449 445
f 443 445 444
f 444 445 447
f 444 447 268
f 268 447 269
f 119 117 340
f 340 117 248
f 340 248 341
f 341 248 246
f 341 246 338
f 338 246 244
f 338 244 336
f 336 244 242
f 336 242 334
f 334 242 241
f 334 241 332
f 332 241 250
f 332 250 323
f 323 250 252
f 323 252 324
f 324 252 254
f 324 254 326
f 326 254 256
f 326 256 328
f 328 256 263
f 328 263 330
f 330 263 262
f 330 262 331
f 331 262 260
f 331 260 322
f 322 260 258
f 322 258 320
f 320 258 266
f 320 266 318
f 318 266 265
f 318 265 317
f 317 265 264
f 317 264 316
f 316 264 269
f 450 451 452
f 314 316 451
f 451 450 314
f 314 450 453
f 314 453 377
f 377 453 454
f 377 454 366
f 455 456 457
f 452 458 450
f 450 458 459
f 450 459 453
f 453 459 455
f 453 455 454
f 454 455 457
f 454 457 366
f 366 457 367
f 116 118 304
f 304 118 387
f 304 387 303
f 303 387 386
f 303 386 301
f 301 386 389
f 301 389 300
f 300 389 391
f 300 391 298
f 298 391 393
f 298 393 296
f 296 393 395
f 394 460 395
f 395 460 461
f 461 460 462
f 462 460 463
f 462 463 464
f 464 463 465
f 465 463 466
f 465 466 467
f 467 466 468
f 467 468 469
f 470 471 472
f 472 473 470
f 470 473 474
f 470 474 475
f 475 474 476
f 475 476 477
f 477 476 398
f 477 398 397
f 472 478 473
f 473 478 479
f 473 479 474
f 474 479 480
f 474 480 476
f 476 480 481
f 476 481 398
f 398 481 403
f 478 468 479
f 479 468 466
f 479 466 480
f 480 466 463
f 480 463 481
f 481 463 460
f 481 460 403
f 403 460 394
f 295 294 482
f 295 482 483
f 483 482 484
f 483 484 485
f 485 484 486
f 485 486 487
f 487 486 488
f 487 488 489
f 490 491 492
f 492 491 493
f 492 493 494
f 494 493 495
f 494 495 496
f 496 495 497
f 497 495 498
f 497 498 499
f 499 498 297
f 499 297 296
f 491 500 493
f 493 500 501
f 493 501 495
f 495 501 502
f 495 502 498
f 498 502 503
f 498 503 297
f 297 503 305
f 500 488 501
f 501 488 486
f 501 486 502
f 502 486 484
f 502 484 503
f 503 484 482
f 503 482 305
f 305 482 294
f 111 310 309
f 504 100 106
f 483 485 434
f 434 485 432
f 406 240 438
f 438 240 284
f 438 284 436
f 485 487 432
f 432 487 489
f 432 489 430
f 430 489 504
f 430 504 428
f 428 504 106
f 428 106 426
f 426 106 109
f 426 109 424
f 291 293 434
f 434 293 295
f 434 295 483
f 408 238 406
f 406 238 239
f 406 239 240
f 410 234 408
f 408 234 236
f 408 236 238
f 203 205 420
f 436 284 434
f 434 284 289
f 434 289 291
f 412 230 410
f 410 230 232
f 410 232 234
f 205 209 420
f 420 209 210
f 420 210 418
f 210 442 418
f 418 442 441
f 418 441 416
f 414 226 412
f 412 226 228
f 412 228 230
f 441 219 416
f 416 219 222
f 416 222 414
f 414 222 224
f 414 224 226
f 309 308 420
f 420 308 204
f 420 204 203
f 111 309 113
f 113 309 420
f 113 420 109
f 109 420 422
f 109 422 424
f 421 419 456
f 431 429 505
f 471 506 507
f 507 506 508
f 507 508 509
f 475 477 470
f 470 477 471
f 415 365 417
f 417 365 367
f 417 367 419
f 419 367 457
f 419 457 456
f 413 361 415
f 415 361 363
f 415 363 365
f 378 345 407
f 477 397 471
f 471 397 396
f 471 396 506
f 506 396 435
f 506 435 505
f 505 435 433
f 505 433 431
f 411 357 413
f 413 357 359
f 413 359 361
f 409 353 411
f 411 353 355
f 411 355 357
f 345 344 407
f 407 344 349
f 407 349 409
f 409 349 351
f 409 351 353
f 407 439 378
f 378 439 437
f 378 437 402
f 402 437 435
f 402 435 401
f 401 435 396
f 425 510 427
f 427 510 511
f 427 511 429
f 429 511 512
f 429 512 505
f 513 423 514
f 514 423 421
f 514 421 515
f 515 421 456
f 513 516 423
f 423 516 517
f 423 517 425
f 425 517 518
f 425 518 510
f 519 520 521
f 73 72 522
f 522 72 523
f 522 523 524
f 524 523 525
f 524 525 526
f 526 525 527
f 526 527 528
f 528 527 529
f 74 73 530
f 530 73 522
f 530 522 531
f 531 522 524
f 531 524 532
f 532 524 526
f 532 526 533
f 533 526 528
f 75 74 534
f 534 74 530
f 534 530 535
f 535 530 531
f 535 531 521
f 521 531 532
f 521 532 519
f 519 532 533
f 535 120 534
f 534 120 88
f 534 88 75
f 521 520 536
f 148 145 536
f 536 145 143
f 536 143 521
f 521 143 142
f 521 142 535
f 535 142 156
f 535 156 120
f 537 446 445
f 208 537 207
f 207 537 206
f 537 445 206
f 206 445 449
f 206 449 212
f 212 449 448
f 212 448 211
f 211 448 442
f 211 442 210
f 316 269 451
f 451 269 447
f 451 447 452
f 452 447 446
f 458 452 538
f 539 540 538
f 538 540 541
f 538 541 458
f 458 541 542
f 458 542 459
f 459 542 543
f 459 543 455
f 455 543 515
f 455 515 456
f 529 527 544
f 545 546 547
f 547 546 548
f 547 548 544
f 544 548 549
f 544 549 529
f 550 551 545
f 545 551 552
f 545 552 546
f 553 554 555
f 555 554 556
f 555 556 550
f 550 556 557
f 550 557 551
f 558 559 553
f 553 559 560
f 553 560 554
f 561 562 563
f 563 562 564
f 563 564 558
f 558 564 565
f 558 565 559
f 566 567 561
f 561 567 568
f 561 568 562
f 561 569 566
f 566 569 570
f 566 570 571
f 64 63 572
f 572 573 64
f 64 573 574
f 64 574 65
f 65 574 575
f 65 575 48
f 48 575 576
f 48 576 49
f 49 576 577
f 49 577 66
f 66 577 578
f 66 578 67
f 67 578 579
f 67 579 68
f 68 579 580
f 68 580 76
f 76 580 581
f 76 581 77
f 77 581 582
f 77 582 78
f 78 582 523
f 78 523 72
f 572 583 573
f 573 583 584
f 573 584 574
f 574 584 585
f 574 585 575
f 575 585 586
f 575 586 576
f 576 586 587
f 576 587 577
f 577 587 588
f 577 588 578
f 578 588 589
f 578 589 579
f 579 589 590
f 579 590 580
f 580 590 591
f 580 591 581
f 581 591 592
f 581 592 582
f 582 592 593
f 582 593 523
f 523 593 525
f 583 570 584
f 584 570 569
f 584 569 585
f 585 569 561
f 585 561 586
f 586 561 563
f 586 563 587
f 587 563 558
f 587 558 588
f 588 558 553
f 588 553 589
f 589 553 555
f 589 555 590
f 590 555 550
f 590 550 591
f 591 550 545
f 591 545 592
f 592 545 547
f 592 547 593
f 593 547 544
f 593 544 525
f 525 544 527
f 594 595 571
f 596 597 598
f 599 600 597
f 597 596 599
f 599 596 601
f 599 601 602
f 602 601 603
f 602 603 604
f 572 63 56
f 571 570 594
f 594 570 583
f 594 583 605
f 605 583 572
f 605 572 606
f 606 572 56
f 606 56 55
f 71 604 55
f 55 604 603
f 55 603 606
f 606 603 601
f 606 601 605
f 605 601 596
f 605 596 594
f 594 596 598
f 594 598 595
f 607 608 600
f 609 610 611
f 612 613 614
f 615 616 613
f 613 612 615
f 615 612 617
f 615 617 618
f 618 617 619
f 618 619 620
f 621 69 23
f 604 71 70
f 600 599 607
f 607 599 602
f 607 602 622
f 622 602 604
f 622 604 623
f 623 604 70
f 623 70 69
f 69 621 623
f 623 621 624
f 623 624 622
f 622 624 609
f 622 609 607
f 607 609 611
f 607 611 608
f 53 620 23
f 23 620 619
f 23 619 621
f 621 619 617
f 621 617 624
f 624 617 612
f 624 612 609
f 609 612 614
f 609 614 610
f 19 625 626
f 19 626 20
f 20 626 627
f 20 627 1
f 1 627 628
f 1 628 31
f 31 628 629
f 31 629 32
f 32 629 630
f 32 630 33
f 33 630 631
f 33 631 25
f 25 631 632
f 25 632 27
f 27 632 633
f 27 633 29
f 29 633 634
f 29 634 30
f 30 634 635
f 30 635 51
f 51 635 636
f 51 636 52
f 52 636 620
f 52 620 53
f 616 615 637
f 637 615 638
f 637 638 639
f 639 638 640
f 639 640 641
f 641 640 642
f 641 642 643
f 644 645 646
f 646 645 647
f 646 647 648
f 648 647 649
f 648 649 650
f 650 649 651
f 650 651 642
f 642 651 652
f 642 652 643
f 653 654 644
f 644 654 655
f 644 655 645
f 656 657 658
f 658 657 659
f 658 659 653
f 653 659 660
f 653 660 654
f 661 662 656
f 656 662 663
f 656 663 657
f 656 664 661
f 661 664 665
f 661 665 666
f 615 618 638
f 638 618 667
f 638 667 640
f 640 667 668
f 640 668 642
f 642 668 669
f 642 669 650
f 650 669 670
f 650 670 648
f 648 670 671
f 648 671 646
f 646 671 672
f 646 672 644
f 644 672 673
f 644 673 653
f 653 673 674
f 653 674 658
f 658 674 675
f 658 675 656
f 656 675 676
f 656 676 664
f 664 676 677
f 664 677 665
f 665 677 678
f 618 620 667
f 667 620 636
f 667 636 668
f 668 636 635
f 668 635 669
f 669 635 634
f 669 634 670
f 670 634 633
f 670 633 671
f 671 633 632
f 671 632 672
f 672 632 631
f 672 631 673
f 673 631 630
f 673 630 674
f 674 630 629
f 674 629 675
f 675 629 628
f 675 628 676
f 676 628 627
f 676 627 677
f 677 627 626
f 677 626 678
f 678 626 625
f 679 680 8
f 8 680 18
f 18 680 625
f 18 625 19
f 666 665 681
f 681 665 682
f 681 682 683
f 683 682 684
f 683 684 685
f 685 684 686
f 685 686 687
f 688 689 690
f 690 689 691
f 690 691 692
f 692 691 693
f 692 693 686
f 686 693 694
f 686 694 687
f 695 696 688
f 688 696 697
f 688 697 689
f 688 698 695
f 695 698 699
f 695 699 700
f 15 7 701
f 8 10 679
f 679 10 14
f 679 14 702
f 702 14 13
f 702 13 703
f 703 13 17
f 703 17 704
f 704 17 16
f 704 16 705
f 705 16 15
f 705 15 706
f 706 15 701
f 665 678 682
f 682 678 707
f 682 707 684
f 684 707 708
f 684 708 686
f 686 708 709
f 686 709 692
f 692 709 710
f 692 710 690
f 690 710 711
f 690 711 688
f 688 711 712
f 688 712 698
f 698 712 713
f 698 713 699
f 699 713 714
f 678 625 707
f 707 625 680
f 707 680 708
f 708 680 679
f 708 679 709
f 709 679 702
f 709 702 710
f 710 702 703
f 710 703 711
f 711 703 704
f 711 704 712
f 712 704 705
f 712 705 713
f 713 705 706
f 713 706 714
f 714 706 701
f 469 490 467
f 467 490 492
f 467 492 465
f 465 492 494
f 465 494 464
f 464 494 496
f 464 496 462
f 462 496 497
f 462 497 461
f 461 497 499
f 461 499 395
f 395 499 296
f 715 716 469
f 717 718 715
f 715 718 719
f 715 719 716
f 716 719 720
f 716 720 721
f 715 722 717
f 717 722 723
f 717 723 724
f 472 471 507
f 469 468 715
f 715 468 478
f 715 478 722
f 722 478 472
f 722 472 723
f 723 472 507
f 723 507 724
f 724 507 509
f 85 189 725
f 85 725 45
f 45 725 726
f 45 726 46
f 46 726 727
f 46 727 44
f 44 727 728
f 44 728 62
f 62 728 729
f 62 729 61
f 61 729 730
f 61 730 59
f 59 730 731
f 59 731 41
f 41 731 732
f 41 732 40
f 40 732 733
f 40 733 38
f 38 733 734
f 38 734 36
f 36 734 735
f 36 735 5
f 5 735 701
f 5 701 7
f 700 699 736
f 736 699 737
f 736 737 738
f 738 737 739
f 738 739 740
f 740 739 741
f 740 741 742
f 742 741 743
f 743 741 744
f 743 744 745
f 745 744 746
f 746 744 747
f 746 747 748
f 748 747 749
f 749 747 750
f 749 750 751
f 751 750 752
f 751 752 753
f 753 752 754
f 754 752 755
f 754 755 756
f 756 755 757
f 757 755 758
f 757 758 759
f 759 758 760
f 760 758 761
f 760 761 762
f 762 761 763
f 762 763 764
f 764 763 765
f 765 763 190
f 765 190 96
f 699 714 737
f 737 714 766
f 737 766 739
f 739 766 767
f 739 767 741
f 741 767 768
f 741 768 744
f 744 768 769
f 744 769 747
f 747 769 770
f 747 770 750
f 750 770 771
f 750 771 752
f 752 771 772
f 752 772 755
f 755 772 773
f 755 773 758
f 758 773 774
f 758 774 761
f 761 774 775
f 761 775 763
f 763 775 776
f 763 776 190
f 190 776 196
f 714 701 766
f 766 701 735
f 766 735 767
f 767 735 734
f 767 734 768
f 768 734 733
f 768 733 769
f 769 733 732
f 769 732 770
f 770 732 731
f 770 731 771
f 771 731 730
f 771 730 772
f 772 730 729
f 772 729 773
f 773 729 728
f 773 728 774
f 774 728 727
f 774 727 775
f 775 727 726
f 775 726 776
f 776 726 725
f 776 725 196
f 196 725 189
f 777 504 489
f 100 504 97
f 97 504 777
f 97 777 778
f 94 103 779
f 779 103 102
f 779 102 778
f 778 102 101
f 778 101 97
f 491 490 780
f 489 488 777
f 777 488 500
f 777 500 778
f 778 500 491
f 778 491 779
f 779 491 780
f 779 780 94
f 94 780 95
f 517 781 518
f 518 781 782
f 782 783 518
f 518 783 784
f 518 784 510
f 784 785 510
f 510 785 786
f 510 786 511
f 787 512 788
f 788 512 511
f 788 511 789
f 789 511 786
f 790 514 791
f 791 514 515
f 791 515 792
f 792 515 543
f 792 543 542
f 542 541 792
f 792 541 540
f 792 540 539
f 793 513 794
f 794 513 514
f 794 514 795
f 795 514 790
f 793 796 513
f 513 796 797
f 513 797 516
f 516 797 798
f 516 798 517
f 517 798 799
f 517 799 781
f 208 148 536
f 800 792 539
f 538 452 537
f 537 452 446
f 538 537 539
f 539 537 208
f 539 208 800
f 800 208 536
f 800 536 801
f 801 536 520
f 801 520 802
f 520 519 802
f 802 519 533
f 802 533 803
f 803 533 528
f 803 528 804
f 804 528 529
f 804 529 805
f 571 806 566
f 566 806 807
f 566 807 567
f 567 807 808
f 567 808 568
f 568 808 809
f 568 809 562
f 562 809 810
f 562 810 564
f 564 810 811
f 564 811 565
f 565 811 812
f 565 812 559
f 559 812 813
f 559 813 560
f 560 813 814
f 560 814 554
f 554 814 815
f 554 815 556
f 556 815 816
f 556 816 557
f 557 816 817
f 557 817 551
f 551 817 818
f 551 818 552
f 552 818 819
f 552 819 546
f 546 819 820
f 546 820 548
f 548 820 821
f 548 821 549
f 549 821 822
f 549 822 529
f 529 822 805
f 806 571 823
f 823 571 595
f 823 595 824
f 824 595 598
f 824 598 825
f 825 598 597
f 825 597 826
f 826 597 600
f 826 600 827
f 827 600 608
f 827 608 828
f 828 608 611
f 828 611 829
f 829 611 610
f 829 610 830
f 830 610 614
f 830 614 831
f 831 614 613
f 831 613 832
f 832 613 616
f 666 833 661
f 661 833 834
f 661 834 662
f 662 834 835
f 662 835 663
f 663 835 836
f 663 836 657
f 657 836 837
f 657 837 659
f 659 837 838
f 659 838 660
f 660 838 839
f 660 839 654
f 654 839 840
f 654 840 655
f 655 840 841
f 655 841 645
f 645 841 842
f 645 842 647
f 647 842 843
f 647 843 649
f 649 843 844
f 649 844 651
f 651 844 845
f 651 845 652
f 652 845 846
f 652 846 643
f 643 846 847
f 643 847 641
f 641 847 848
f 641 848 639
f 639 848 849
f 639 849 637
f 637 849 850
f 637 850 616
f 616 850 832
f 700 851 695
f 695 851 852
f 695 852 696
f 696 852 853
f 696 853 697
f 697 853 854
f 697 854 689
f 689 854 855
f 689 855 691
f 691 855 856
f 691 856 693
f 693 856 857
f 693 857 694
f 694 857 858
f 694 858 687
f 687 858 859
f 687 859 685
f 685 859 860
f 685 860 683
f 683 860 861
f 683 861 681
f 681 861 862
f 681 862 666
f 666 862 833
f 863 864 721
f 721 864 95
f 721 95 716
f 716 95 780
f 716 780 469
f 469 780 490
f 851 700 865
f 865 700 736
f 865 736 866
f 866 736 738
f 866 738 867
f 867 738 740
f 867 740 868
f 868 740 742
f 868 742 869
f 869 742 743
f 869 743 870
f 870 743 745
f 870 745 871
f 871 745 746
f 871 746 872
f 872 746 748
f 872 748 873
f 873 748 749
f 873 749 874
f 874 749 751
f 874 751 875
f 875 751 753
f 875 753 876
f 876 753 754
f 876 754 877
f 877 754 756
f 877 756 878
f 878 756 757
f 878 757 879
f 879 757 759
f 879 759 880
f 880 759 760
f 880 760 881
f 881 760 762
f 881 762 882
f 882 762 764
f 882 764 864
f 864 764 765
f 864 765 95
f 95 765 96
f 718 883 719
f 719 883 863
f 719 863 720
f 720 863 721
f 505 512 787
f 787 884 505
f 505 884 885
f 505 885 506
f 885 886 506
f 506 886 887
f 506 887 508
f 887 888 508
f 508 888 889
f 508 889 509
f 718 717 883
f 883 717 724
f 883 724 890
f 890 724 509
f 890 509 891
f 891 509 889
f 892 893 781
f 781 893 782
f 782 893 783
f 783 893 894
f 783 894 784
f 784 894 895
f 784 895 785
f 785 895 896
f 785 896 786
f 786 896 789
f 789 896 897
f 789 897 788
f 788 897 898
f 788 898 787
f 899 900 901
f 901 902 899
f 899 902 903
f 899 903 904
f 904 903 905
f 904 905 906
f 906 905 907
f 906 907 908
f 908 907 909
f 908 909 910
f 910 909 911
f 910 911 912
f 901 913 902
f 902 913 914
f 902 914 903
f 903 914 915
f 903 915 905
f 905 915 916
f 905 916 907
f 907 916 917
f 907 917 909
f 909 917 918
f 909 918 911
f 911 918 919
f 913 898 914
f 914 898 897
f 914 897 915
f 915 897 896
f 915 896 916
f 916 896 895
f 916 895 917
f 917 895 894
f 917 894 918
f 918 894 893
f 918 893 919
f 919 893 892
f 920 921 922
f 923 924 925
f 912 911 926
f 912 926 927
f 927 926 928
f 927 928 929
f 929 928 930
f 929 930 931
f 931 930 932
f 931 932 933
f 933 932 934
f 933 934 935
f 935 934 936
f 935 936 937
f 937 936 938
f 937 938 939
f 792 920 791
f 791 920 922
f 791 922 790
f 790 922 940
f 790 940 795
f 795 940 941
f 942 796 943
f 943 796 793
f 943 793 941
f 941 793 794
f 941 794 795
f 799 798 942
f 942 798 797
f 942 797 796
f 942 944 799
f 799 944 892
f 799 892 781
f 921 923 922
f 922 923 925
f 922 925 940
f 940 925 945
f 940 945 941
f 941 945 946
f 941 946 943
f 943 946 947
f 943 947 942
f 942 947 948
f 942 948 944
f 944 948 949
f 944 949 892
f 892 949 919
f 924 938 925
f 925 938 936
f 925 936 945
f 945 936 934
f 945 934 946
f 946 934 932
f 946 932 947
f 947 932 930
f 947 930 948
f 948 930 928
f 948 928 949
f 949 928 926
f 949 926 919
f 919 926 911
f 800 801 950
f 920 792 800
f 920 800 921
f 921 800 950
f 921 950 923
f 923 950 951
f 923 951 924
f 924 951 952
f 924 952 938
f 938 952 953
f 938 953 939
f 804 805 954
f 955 953 956
f 956 953 952
f 956 952 957
f 957 952 951
f 957 951 958
f 958 951 950
f 958 950 802
f 802 950 801
f 959 955 960
f 960 955 956
f 960 956 961
f 961 956 957
f 961 957 962
f 962 957 958
f 962 958 803
f 803 958 802
f 963 959 964
f 964 959 960
f 964 960 965
f 965 960 961
f 965 961 954
f 954 961 962
f 954 962 804
f 804 962 803
f 963 964 966
f 963 966 967
f 967 966 968
f 967 968 969
f 969 968 970
f 969 970 971
f 971 970 972
f 971 972 973
f 973 972 974
f 973 974 975
f 975 974 976
f 975 976 977
f 977 976 978
f 977 978 979
f 979 978 980
f 979 980 981
f 981 980 982
f 981 982 983
f 983 982 984
f 983 984 985
f 985 984 986
f 985 986 987
f 806 988 807
f 807 988 989
f 807 989 808
f 808 989 990
f 808 990 809
f 809 990 991
f 992 811 991
f 991 811 810
f 991 810 809
f 993 814 994
f 994 814 813
f 994 813 992
f 992 813 812
f 992 812 811
f 995 816 993
f 993 816 815
f 993 815 814
f 996 819 997
f 997 819 818
f 997 818 995
f 995 818 817
f 995 817 816
f 822 821 996
f 996 821 820
f 996 820 819
f 996 998 822
f 822 998 954
f 822 954 805
f 964 965 966
f 966 965 999
f 966 999 968
f 968 999 1000
f 968 1000 970
f 970 1000 1001
f 970 1001 972
f 972 1001 1002
f 972 1002 974
f 974 1002 1003
f 974 1003 976
f 976 1003 1004
f 976 1004 978
f 978 1004 1005
f 978 1005 980
f 980 1005 1006
f 980 1006 982
f 982 1006 1007
f 982 1007 984
f 984 1007 1008
f 984 1008 986
f 986 1008 1009
f 965 954 999
f 999 954 998
f 999 998 1000
f 1000 998 996
f 1000 996 1001
f 1001 996 997
f 1001 997 1002
f 1002 997 995
f 1002 995 1003
f 1003 995 993
f 1003 993 1004
f 1004 993 994
f 1004 994 1005
f 1005 994 992
f 1005 992 1006
f 1006 992 991
f 1006 991 1007
f 1007 991 990
f 1007 990 1008
f 1008 990 989
f 1008 989 1009
f 1009 989 988
f 1010 1011 987
f 1012 1013 1011
f 1014 1015 1013
f 1013 1012 1014
f 1014 1012 1016
f 1014 1016 1017
f 1017 1016 1018
f 1017 1018 1019
f 1019 1018 825
f 1019 825 826
f 988 806 823
f 987 986 1010
f 1010 986 1009
f 1010 1009 1020
f 1020 1009 988
f 1020 988 1021
f 1021 988 823
f 1021 823 824
f 1011 1010 1012
f 1012 1010 1020
f 1012 1020 1016
f 1016 1020 1021
f 1016 1021 1018
f 1018 1021 824
f 1018 824 825
f 1022 831 832
f 1023 829 830
f 1024 827 828
f 1019 826 827
f 827 1024 1019
f 1019 1024 1025
f 1019 1025 1017
f 1017 1025 1026
f 1017 1026 1014
f 1027 1028 1029
f 1030 1031 1032
f 832 1033 1022
f 1022 1033 1034
f 1022 1034 1035
f 1035 1034 1030
f 1035 1030 1036
f 1036 1030 1032
f 1036 1032 1028
f 1028 1027 1036
f 1036 1027 1037
f 1036 1037 1035
f 1035 1037 1023
f 1035 1023 1022
f 1022 1023 830
f 1022 830 831
f 1015 1014 1029
f 1029 1014 1026
f 1029 1026 1027
f 1027 1026 1025
f 1027 1025 1037
f 1037 1025 1024
f 1037 1024 1023
f 1023 1024 828
f 1023 828 829
f 1038 1039 833
f 833 1039 834
f 834 1039 835
f 835 1039 1040
f 835 1040 836
f 836 1040 1041
f 836 1041 837
f 1042 842 1043
f 1043 842 841
f 1043 841 1044
f 1044 841 840
f 1044 840 1045
f 1045 840 839
f 1045 839 1041
f 1041 839 838
f 1041 838 837
f 1046 844 1042
f 1042 844 843
f 1042 843 842
f 1047 847 1048
f 1048 847 846
f 1048 846 1046
f 1046 846 845
f 1046 845 844
f 850 849 1047
f 1047 849 848
f 1047 848 847
f 1047 1049 850
f 850 1049 1033
f 850 1033 832
f 1050 1031 1030
f 1030 1051 1050
f 1050 1051 1052
f 1050 1052 1053
f 1053 1052 1054
f 1053 1054 1055
f 1055 1054 1056
f 1055 1056 1057
f 1057 1056 1058
f 1057 1058 1059
f 1059 1058 1060
f 1059 1060 1061
f 1061 1060 1062
f 1061 1062 1063
f 1063 1062 1064
f 1063 1064 1065
f 1065 1064 1066
f 1065 1066 1067
f 1067 1066 1068
f 1067 1068 1069
f 1069 1068 1070
f 1069 1070 1071
f 1071 1070 1072
f 1071 1072 1073
f 1038 1074 1039
f 1039 1074 1075
f 1039 1075 1040
f 1040 1075 1076
f 1040 1076 1041
f 1041 1076 1077
f 1041 1077 1045
f 1045 1077 1078
f 1045 1078 1044
f 1044 1078 1079
f 1044 1079 1043
f 1043 1079 1080
f 1043 1080 1042
f 1042 1080 1081
f 1042 1081 1046
f 1046 1081 1082
f 1046 1082 1048
f 1048 1082 1083
f 1048 1083 1047
f 1047 1083 1084
f 1047 1084 1049
f 1049 1084 1085
f 1049 1085 1033
f 1033 1085 1034
f 1074 1072 1075
f 1075 1072 1070
f 1075 1070 1076
f 1076 1070 1068
f 1076 1068 1077
f 1077 1068 1066
f 1077 1066 1078
f 1078 1066 1064
f 1078 1064 1079
f 1079 1064 1062
f 1079 1062 1080
f 1080 1062 1060
f 1080 1060 1081
f 1081 1060 1058
f 1081 1058 1082
f 1082 1058 1056
f 1082 1056 1083
f 1083 1056 1054
f 1083 1054 1084
f 1084 1054 1052
f 1084 1052 1085
f 1085 1052 1051
f 1085 1051 1034
f 1034 1051 1030
f 1086 1087 851
f 851 1087 852
f 852 1087 853
f 853 1087 1088
f 853 1088 854
f 854 1088 1089
f 854 1089 855
f 1090 859 1091
f 1091 859 858
f 1091 858 1092
f 1092 858 857
f 1092 857 1089
f 1089 857 856
f 1089 856 855
f 862 861 1090
f 1090 861 860
f 1090 860 859
f 1090 1093 862
f 862 1093 1038
f 862 1038 833
f 1094 1073 1072
f 1072 1095 1094
f 1094 1095 1096
f 1094 1096 1097
f 1097 1096 1098
f 1097 1098 1099
f 1099 1098 1100
f 1099 1100 1101
f 1101 1100 1102
f 1101 1102 1103
f 1103 1102 1104
f 1103 1104 1105
f 1105 1104 1106
f 1105 1106 1107
f 1107 1106 1108
f 1107 1108 1109
f 1086 1110 1087
f 1087 1110 1111
f 1087 1111 1088
f 1088 1111 1112
f 1088 1112 1089
f 1089 1112 1113
f 1089 1113 1092
f 1092 1113 1114
f 1092 1114 1091
f 1091 1114 1115
f 1091 1115 1090
f 1090 1115 1116
f 1090 1116 1093
f 1093 1116 1117
f 1093 1117 1038
f 1038 1117 1074
f 1110 1108 1111
f 1111 1108 1106
f 1111 1106 1112
f 1112 1106 1104
f 1112 1104 1113
f 1113 1104 1102
f 1113 1102 1114
f 1114 1102 1100
f 1114 1100 1115
f 1115 1100 1098
f 1115 1098 1116
f 1116 1098 1096
f 1116 1096 1117
f 1117 1096 1095
f 1117 1095 1074
f 1074 1095 1072
f 863 1118 864
f 864 1118 1119
f 864 1119 882
f 882 1119 1120
f 882 1120 881
f 1121 878 1122
f 1122 878 879
f 1122 879 1120
f 1120 879 880
f 1120 880 881
f 873 874 1123
f 1123 874 875
f 1123 875 1124
f 1124 875 876
f 1124 876 1121
f 1121 876 877
f 1121 877 878
f 873 1123 872
f 872 1123 1125
f 872 1125 871
f 871 1125 1126
f 871 1126 870
f 870 1126 869
f 869 1126 1127
f 869 1127 868
f 868 1127 1128
f 868 1128 867
f 867 1128 866
f 866 1128 1129
f 866 1129 865
f 865 1129 1086
f 865 1086 851
f 1130 1109 1108
f 1108 1131 1130
f 1130 1131 1132
f 1130 1132 1133
f 1133 1132 1134
f 1133 1134 1135
f 1135 1134 1136
f 1135 1136 1137
f 1137 1136 1138
f 1137 1138 1139
f 1139 1138 1140
f 1139 1140 1141
f 1141 1140 1142
f 1141 1142 1143
f 1143 1142 1144
f 1143 1144 1145
f 1145 1144 1146
f 1145 1146 1147
f 1147 1146 1148
f 1147 1148 1149
f 1149 1148 1150
f 1149 1150 1151
f 1151 1150 1152
f 1151 1152 1153
f 1118 1154 1119
f 1119 1154 1155
f 1119 1155 1120
f 1120 1155 1156
f 1120 1156 1122
f 1122 1156 1157
f 1122 1157 1121
f 1121 1157 1158
f 1121 1158 1124
f 1124 1158 1159
f 1124 1159 1123
f 1123 1159 1160
f 1123 1160 1125
f 1125 1160 1161
f 1125 1161 1126
f 1126 1161 1162
f 1126 1162 1127
f 1127 1162 1163
f 1127 1163 1128
f 1128 1163 1164
f 1128 1164 1129
f 1129 1164 1165
f 1129 1165 1086
f 1086 1165 1110
f 1154 1152 1155
f 1155 1152 1150
f 1155 1150 1156
f 1156 1150 1148
f 1156 1148 1157
f 1157 1148 1146
f 1157 1146 1158
f 1158 1146 1144
f 1158 1144 1159
f 1159 1144 1142
f 1159 1142 1160
f 1160 1142 1140
f 1160 1140 1161
f 1161 1140 1138
f 1161 1138 1162
f 1162 1138 1136
f 1162 1136 1163
f 1163 1136 1134
f 1163 1134 1164
f 1164 1134 1132
f 1164 1132 1165
f 1165 1132 1131
f 1165 1131 1110
f 1110 1131 1108
f 886 885 1166
f 1166 885 884
f 1166 884 1167
f 1167 884 787
f 1167 787 898
f 886 1166 887
f 887 1166 1168
f 887 1168 888
f 888 1168 1169
f 888 1169 889
f 889 1169 891
f 891 1169 1170
f 891 1170 890
f 890 1170 1171
f 890 1171 883
f 883 1171 1118
f 883 1118 863
f 1172 1153 1152
f 1152 1173 1172
f 1172 1173 1174
f 1172 1174 1175
f 1175 1174 1176
f 1175 1176 1177
f 1177 1176 1178
f 1177 1178 1179
f 1179 1178 1180
f 1180 1178 1181
f 1180 1181 1182
f 1182 1181 1183
f 1182 1183 1184
f 1184 1183 901
f 1184 901 900
f 898 913 1167
f 1167 913 1185
f 1167 1185 1166
f 1166 1185 1186
f 1166 1186 1168
f 1168 1186 1187
f 1168 1187 1169
f 1169 1187 1188
f 1169 1188 1170
f 1170 1188 1189
f 1170 1189 1171
f 1171 1189 1190
f 1171 1190 1118
f 1118 1190 1154
f 913 901 1185
f 1185 901 1183
f 1185 1183 1186
f 1186 1183 1181
f 1186 1181 1187
f 1187 1181 1178
f 1187 1178 1188
f 1188 1178 1176
f 1188 1176 1189
f 1189 1176 1174
f 1189 1174 1190
f 1190 1174 1173
f 1190 1173 1154
f 1154 1173 1152
f 1191 1067 1069
f 1191 1069 1192
f 1067 1191 1065
f 1065 1191 1193
f 1065 1193 1063
f 1063 1193 1061
f 1061 1193 1194
f 1061 1194 1059
f 1137 1139 1195
f 1196 1109 1197
f 1197 1109 1130
f 1197 1130 1198
f 1199 1200 1101
f 1069 1071 1192
f 1192 1071 1073
f 1192 1073 1201
f 1059 1194 1057
f 1057 1194 1202
f 1057 1202 1055
f 1055 1202 1203
f 1055 1203 1053
f 1053 1203 1050
f 1050 1203 1204
f 1050 1204 1031
f 1205 1028 1204
f 1204 1028 1032
f 1204 1032 1031
f 1206 973 975
f 1073 1094 1201
f 1201 1094 1097
f 1201 1097 1200
f 1200 1097 1099
f 1200 1099 1101
f 985 987 1207
f 1207 987 1011
f 927 969 1206
f 1206 969 971
f 1206 971 973
f 985 1207 983
f 983 1207 1206
f 983 1206 981
f 1182 1184 900
f 1198 1130 1208
f 1208 1130 1133
f 1208 1133 1195
f 1195 1133 1135
f 1195 1135 1137
f 1101 1103 1199
f 1199 1103 1105
f 1199 1105 1196
f 1196 1105 1107
f 1196 1107 1109
f 1011 1013 1207
f 1207 1013 1015
f 1207 1015 1205
f 1205 1015 1029
f 1205 1029 1028
f 937 939 953
f 927 955 959
f 975 977 1206
f 1206 977 979
f 1206 979 981
f 910 1145 908
f 908 1145 1147
f 908 1147 906
f 906 1147 1149
f 906 1149 904
f 959 963 927
f 927 963 967
f 927 967 969
f 1206 1195 927
f 927 1195 1139
f 927 1139 912
f 912 1139 1141
f 912 1141 910
f 910 1141 1143
f 910 1143 1145
f 904 1149 899
f 899 1149 1151
f 899 1151 900
f 900 1151 1153
f 900 1153 1182
f 955 927 953
f 953 927 929
f 953 929 931
f 931 933 953
f 953 933 935
f 953 935 937
f 1175 1177 1172
f 1172 1177 1179
f 1172 1179 1153
f 1153 1179 1180
f 1153 1180 1182
f 28 22 1204
f 1204 22 1205
f 1205 22 21
f 1205 21 1207
f 1207 21 57
f 1207 57 1206
f 1206 57 50
f 1206 50 1195
f 1195 50 39
f 1195 39 1208
f 1208 39 37
f 1208 37 1198
f 37 35 1198
f 1198 35 34
f 1198 34 1197
f 1197 34 4
f 1197 4 1196
f 1196 4 6
f 1196 6 1199
f 1199 6 12
f 1199 12 1200
f 1200 12 11
f 1200 11 1201
f 1201 11 9
f 1201 9 1192
f 1192 9 3
f 1192 3 1191
f 1191 3 2
f 1191 2 1193
f 1193 2 24
f 1193 24 1194
f 1194 24 26
f 1194 26 1202
f 1202 26 28
f 1202 28 1203
f 1203 28 1204
